<svg width="61" height="35" viewBox="0 0 61 35" fill="none" xmlns="http://www.w3.org/2000/svg">
<path fill-rule="evenodd" clip-rule="evenodd" d="M58.4357 21.3702C58.6058 21.3702 58.9055 21.4123 58.9055 21.1383C58.9055 20.9223 58.7339 20.8946 58.5506 20.8946H58.18V21.3702H58.4357ZM59.061 22.1178H58.862L58.4792 21.498H58.179V22.1178H58.0094V20.7781H58.5911C58.7192 20.7781 58.8179 20.7945 58.9182 20.8499C59.0033 20.8946 59.06 21.0105 59.06 21.1383C59.06 21.4123 58.8747 21.498 58.662 21.498L59.061 22.1178ZM59.4868 21.4421C59.4853 21.1675 59.377 20.9046 59.1855 20.7105C58.9939 20.5163 58.7345 20.4066 58.4635 20.4051C57.895 20.4051 57.414 20.8669 57.414 21.4421C57.414 22.0316 57.895 22.5052 58.4635 22.5052C59.0179 22.5052 59.4868 22.0316 59.4868 21.4421ZM57.2864 21.4421C57.2862 21.2859 57.3167 21.1312 57.376 20.987C57.4353 20.8429 57.5222 20.712 57.6317 20.6022C57.7413 20.4923 57.8713 20.4056 58.0141 20.347C58.157 20.2884 58.3099 20.2591 58.464 20.2609C59.1187 20.2609 59.6432 20.7945 59.6432 21.4421C59.6432 22.104 59.1187 22.6499 58.464 22.6499C57.7967 22.6494 57.2864 22.1035 57.2864 21.4421ZM42.5954 1.76086C42.767 1.76086 43.0647 1.80293 43.0647 1.52894C43.0647 1.31292 42.8799 1.28521 42.7235 1.28521H42.3407V1.76086H42.5954ZM43.2065 2.50845H43.0212L42.6252 1.88862H42.3407V2.50845H42.1853V1.16874H42.7533C42.8657 1.16874 42.966 1.18516 43.0784 1.24057C43.1791 1.28521 43.2207 1.40117 43.2207 1.52894C43.2207 1.80293 43.0374 1.88862 42.8085 1.88862L43.2065 2.50845ZM43.6465 1.83269C43.6465 1.25699 43.1928 0.795714 42.6111 0.795714C42.043 0.795714 41.5873 1.25751 41.5873 1.83269C41.5873 2.42225 42.043 2.89584 42.6111 2.89584C43.1928 2.89584 43.6465 2.42225 43.6465 1.83269ZM41.4456 1.83269C41.4456 1.18516 41.9417 0.651533 42.6111 0.651533C43.2637 0.651533 43.7887 1.18516 43.7887 1.83269C43.7887 2.49459 43.2637 3.04053 42.6111 3.04053C41.9422 3.04002 41.4456 2.49408 41.4456 1.83269ZM17.793 32.4224C17.3841 32.424 16.9789 32.3435 16.6008 32.1857C16.2228 32.0279 15.8793 31.7957 15.5901 31.5028C15.3009 31.2098 15.0719 30.8617 14.916 30.4785C14.7602 30.0954 14.6808 29.6848 14.6822 29.2705C14.682 28.8565 14.7624 28.4465 14.9187 28.064C15.0749 27.6816 15.3041 27.3341 15.593 27.0414C15.8819 26.7487 16.2249 26.5167 16.6024 26.3585C16.9799 26.2003 17.3845 26.1191 17.793 26.1195C18.2013 26.1193 18.6056 26.2007 18.9829 26.359C19.3601 26.5172 19.7029 26.7494 19.9916 27.042C20.2802 27.3347 20.5092 27.6821 20.6652 28.0645C20.8213 28.4469 20.9015 28.8567 20.9011 29.2705C20.9027 29.6846 20.8233 30.095 20.6677 30.478C20.5121 30.861 20.2832 31.209 19.9943 31.502C19.7054 31.795 19.3622 32.0271 18.9844 32.1851C18.6066 32.3431 18.2017 32.4237 17.793 32.4224ZM6.11818 32.4224C4.4003 32.4224 3.02316 31.0273 3.02316 29.2705C3.02316 27.5285 4.4003 26.1195 6.11818 26.1195C7.83605 26.1195 9.22888 27.5285 9.22888 29.2705C9.23016 29.6848 9.15056 30.0953 8.99468 30.4783C8.83879 30.8613 8.6097 31.2093 8.32058 31.5023C8.03147 31.7952 7.68804 32.0274 7.31006 32.1853C6.93208 32.3432 6.52701 32.4238 6.11818 32.4224ZM45.2567 32.4224C43.5388 32.4224 42.1617 31.0273 42.1617 29.2705C42.1617 27.5285 43.5388 26.1195 45.2567 26.1195C46.9609 26.1195 48.3532 27.5285 48.3532 29.2705C48.355 29.6837 48.2761 30.0932 48.1213 30.4755C47.9665 30.8578 47.7387 31.2054 47.451 31.4983C47.1633 31.7911 46.8213 32.0235 46.4448 32.1821C46.0682 32.3407 45.6645 32.4224 45.2567 32.4224ZM33.4559 32.4224C33.0467 32.425 32.6411 32.3453 32.2625 32.1878C31.884 32.0303 31.5401 31.7982 31.2507 31.505C30.9614 31.2118 30.7323 30.8634 30.5769 30.4798C30.4214 30.0962 30.3427 29.6851 30.3451 29.2705C30.3439 28.8562 30.4236 28.4458 30.5795 28.0628C30.7354 27.6799 30.9645 27.332 31.2537 27.0391C31.5428 26.7463 31.8862 26.5142 32.2641 26.3564C32.6421 26.1986 33.0471 26.1181 33.4559 26.1195C33.8643 26.1193 34.2687 26.2007 34.6461 26.3589C35.0234 26.5172 35.3663 26.7493 35.6552 27.0419C35.944 27.3345 36.1731 27.6819 36.3294 28.0643C36.4857 28.4467 36.5661 28.8566 36.5661 29.2705C36.5674 29.6848 36.4879 30.0952 36.332 30.4783C36.1762 30.8613 35.9472 31.2093 35.6581 31.5023C35.369 31.7952 35.0256 32.0273 34.6477 32.1853C34.2697 32.3432 33.8647 32.4238 33.4559 32.4224ZM20.9168 33.6026C20.0131 34.2805 18.9173 34.6441 17.793 34.639C14.8655 34.639 12.495 32.2357 12.495 29.2705C12.495 26.3196 14.8655 23.9168 17.793 23.9168C18.9564 23.9168 20.0354 24.3041 20.9011 24.9522V20.5344H23.2028V34.5528H20.9168V33.6026ZM57.8681 27.3427C57.74 26.4633 57.0434 25.8317 55.9371 25.8317C55.3559 25.8317 54.0911 26.0318 54.0911 26.7942C54.0911 27.9318 56.008 28.0318 56.4758 28.0621C59.5445 28.3494 60.4381 29.7169 60.4381 31.3285C60.4381 32.524 59.8417 33.4148 58.9906 34.0485C58.2666 34.5805 56.7755 34.796 55.8662 34.796C53.8486 34.796 51.8047 33.6754 51.5343 31.1402H53.7929C53.9195 32.3357 55.1554 32.7816 55.852 32.7816C57.1137 32.7816 58.0099 32.2357 58.0099 31.602C58.0099 30.5948 57.0869 30.3782 55.7513 30.2351C55.0004 30.1489 53.5636 29.8882 52.9682 29.3854C52.3019 28.8533 51.7338 28.2478 51.7338 27.2124C51.7338 25.3555 53.1676 23.888 55.9943 23.8721C58.3375 23.8583 60.1126 25.2693 60.1677 27.3263L57.8681 27.3427ZM9.24256 33.6026C8.33891 34.281 7.24277 34.6446 6.11818 34.639C3.17911 34.639 0.835948 32.2357 0.835948 29.2705C0.834547 28.567 0.970216 27.8703 1.23517 27.2201C1.50012 26.57 1.88915 25.9792 2.37992 25.4818C2.8707 24.9844 3.45356 24.5901 4.09506 24.3215C4.73657 24.053 5.42409 23.9154 6.11818 23.9168C7.28368 23.9168 8.36261 24.3041 9.24256 24.9522V23.9306H11.5148V34.5528H9.24256V33.6026ZM24.8639 23.1969H27.1504V20.521H24.8639V23.1969ZM24.8639 34.5528H27.1504V23.9306H24.8639V34.5528ZM48.3532 33.6026C47.5006 34.265 46.4222 34.639 45.2567 34.639C42.3313 34.639 39.9608 32.2357 39.9608 29.2705C39.9608 26.3196 42.3313 23.9168 45.2567 23.9168C46.4222 23.9168 47.5011 24.3041 48.3532 24.9522V23.9306H50.6528V34.5528H48.3811L48.3532 33.6026ZM36.5802 33.6026C35.714 34.265 34.6214 34.639 33.4559 34.639C30.5446 34.639 28.1594 32.2357 28.1594 29.2705C28.1594 26.3196 30.5446 23.9168 33.4559 23.9168C34.6214 23.9168 35.7003 24.3041 36.5802 24.9522V20.5344H38.852V34.5528H36.5802V33.6026ZM32.6977 8.45324C32.8263 5.93443 32.0861 3.16984 30.0979 0.479645C28.1668 2.99795 27.4869 5.86259 27.6565 8.45324H32.6977ZM27.9542 10.4518C27.8688 10.0765 27.7977 9.69809 27.741 9.3173H32.6127C32.5562 9.69808 32.4852 10.0765 32.4 10.4518H27.9542ZM29.0903 13.3031C29.4031 13.8305 29.7644 14.3268 30.1693 14.7854C30.5677 14.3385 30.9226 13.8341 31.2497 13.3031H29.0903ZM40.2953 8.4671C40.8633 7.27157 41.2623 5.93391 41.4456 4.43719C38.1374 4.72556 35.5381 6.35055 33.7903 8.4671H40.2953ZM39.8548 9.3173C39.629 9.71804 39.3854 10.0777 39.1313 10.4518L32.4972 10.4236C32.7109 10.0649 32.924 9.66108 33.166 9.3173H39.8548ZM37.2418 12.439C37.6574 12.0952 38.0465 11.7197 38.4057 11.3158L21.9323 11.302C22.3029 11.7196 22.7135 12.1075 23.1393 12.4534L37.2418 12.439ZM31.4907 13.3031C31.393 13.7812 31.3362 14.2671 31.3211 14.7552C32.8967 14.6838 34.53 14.1938 36.0074 13.3031H31.4907ZM20.4847 9.3173C20.7252 9.71804 20.9678 10.0777 21.2381 10.4518H27.8418C27.6565 10.0649 27.4292 9.69033 27.1866 9.3173H20.4847ZM24.3463 13.3031C25.8242 14.1938 27.4433 14.6838 29.0194 14.7552C29.0013 14.268 28.949 13.7827 28.863 13.3031H24.3463ZM26.5477 8.4671C24.8156 6.35004 22.232 4.72504 18.9218 4.43719C19.0905 5.83075 19.469 7.18985 20.0443 8.4671H26.5477Z" fill="white"/>
</svg>
