<svg width="13" height="14" viewBox="0 0 13 14" fill="none" xmlns="http://www.w3.org/2000/svg">
<path d="M5.25 2.25V2.5H7.75V2.25C7.75 1.91848 7.6183 1.60054 7.38388 1.36612C7.14946 1.1317 6.83152 1 6.5 1C6.16848 1 5.85054 1.1317 5.61612 1.36612C5.3817 1.60054 5.25 1.91848 5.25 2.25ZM4.25 2.5V2.25C4.25 1.65326 4.48705 1.08097 4.90901 0.65901C5.33097 0.237053 5.90326 0 6.5 0C7.09674 0 7.66903 0.237053 8.09099 0.65901C8.51295 1.08097 8.75 1.65326 8.75 2.25V2.5H12.5C12.6326 2.5 12.7598 2.55268 12.8536 2.64645C12.9473 2.74021 13 2.86739 13 3C13 3.13261 12.9473 3.25979 12.8536 3.35355C12.7598 3.44732 12.6326 3.5 12.5 3.5H11.746L10.8 11.784C10.7302 12.3941 10.4384 12.9572 9.98007 13.3659C9.52176 13.7746 8.92907 14.0003 8.315 14H4.685C4.07093 14.0003 3.47823 13.7746 3.01993 13.3659C2.56162 12.9572 2.26976 12.3941 2.2 11.784L1.254 3.5H0.5C0.367392 3.5 0.240215 3.44732 0.146447 3.35355C0.0526784 3.25979 0 3.13261 0 3C0 2.86739 0.0526784 2.74021 0.146447 2.64645C0.240215 2.55268 0.367392 2.5 0.5 2.5H4.25ZM5.5 5.75C5.5 5.61739 5.44732 5.49021 5.35355 5.39645C5.25979 5.30268 5.13261 5.25 5 5.25C4.86739 5.25 4.74021 5.30268 4.64645 5.39645C4.55268 5.49021 4.5 5.61739 4.5 5.75V10.75C4.5 10.8826 4.55268 11.0098 4.64645 11.1036C4.74021 11.1973 4.86739 11.25 5 11.25C5.13261 11.25 5.25979 11.1973 5.35355 11.1036C5.44732 11.0098 5.5 10.8826 5.5 10.75V5.75ZM8 5.25C7.86739 5.25 7.74021 5.30268 7.64645 5.39645C7.55268 5.49021 7.5 5.61739 7.5 5.75V10.75C7.5 10.8826 7.55268 11.0098 7.64645 11.1036C7.74021 11.1973 7.86739 11.25 8 11.25C8.13261 11.25 8.25979 11.1973 8.35355 11.1036C8.44732 11.0098 8.5 10.8826 8.5 10.75V5.75C8.5 5.61739 8.44732 5.49021 8.35355 5.39645C8.25979 5.30268 8.13261 5.25 8 5.25Z" fill="#C70F0F"/>
</svg>
