<svg width="15" height="15" viewBox="0 0 15 15" fill="none" xmlns="http://www.w3.org/2000/svg">
<path d="M13.5352 2.11719L12.6328 1.21484C12.332 0.914062 11.9492 0.75 11.5664 0.75C11.1562 0.75 10.7734 0.914062 10.4727 1.21484L4.56641 7.12109C4.34766 7.3125 4.21094 7.58594 4.15625 7.85938L3.5 10.8125C3.44531 11.0586 3.63672 11.25 3.85547 11.25C3.88281 11.25 3.88281 11.25 3.91016 11.25C3.91016 11.25 5.93359 10.8398 6.86328 10.6211C7.13672 10.5391 7.38281 10.4023 7.57422 10.2109L13.5078 4.27734C14.1367 3.67578 14.1367 2.71875 13.5352 2.11719ZM12.6055 3.34766L6.67188 9.28125C6.64453 9.30859 6.61719 9.33594 6.58984 9.33594C6.20703 9.41797 5.63281 9.55469 5.08594 9.66406L5.44141 8.16016C5.44141 8.10547 5.46875 8.07812 5.49609 8.05078L11.4023 2.14453C11.457 2.08984 11.5117 2.0625 11.5664 2.0625C11.5938 2.0625 11.6484 2.08984 11.7031 2.14453L12.6055 3.04688C12.6875 3.12891 12.6875 3.26562 12.6055 3.34766ZM11.5938 8.625C11.2109 8.625 10.9375 8.92578 10.9375 9.28125V12.7812C10.9375 13.1641 10.6367 13.4375 10.2812 13.4375H1.96875C1.58594 13.4375 1.3125 13.1641 1.3125 12.7812V4.46875C1.3125 4.11328 1.58594 3.8125 1.96875 3.8125H5.90625C6.26172 3.8125 6.5625 3.53906 6.5625 3.15625C6.5625 2.80078 6.26172 2.5 5.90625 2.5H1.94141C0.875 2.5 0 3.40234 0 4.46875V12.7812C0 13.875 0.875 14.75 1.94141 14.75H10.2266C11.293 14.75 12.168 13.875 12.168 12.7812L12.25 9.28125C12.25 8.92578 11.9492 8.625 11.5938 8.625Z" fill="#3541A5"/>
</svg>
