<svg width="33" height="40" viewBox="0 0 33 40" fill="none" xmlns="http://www.w3.org/2000/svg">
<path d="M27.5606 21.2508C27.5785 19.72 27.9897 18.2188 28.7557 16.8876C29.5217 15.5565 30.6175 14.439 31.9404 13.6398C31.0995 12.4581 29.9925 11.4848 28.7064 10.7964C27.4203 10.108 25.99 9.72318 24.5278 9.67213C21.3713 9.35633 18.3688 11.506 16.7695 11.506C15.1692 11.506 12.6985 9.71851 10.0807 9.76783C8.36261 9.81497 6.68645 10.3018 5.2164 11.1806C3.74634 12.0595 2.53282 13.3002 1.69474 14.7811C-1.87657 20.9015 0.783165 29.9685 4.26349 34.9346C5.96659 37.3625 7.9967 40.097 10.6624 39.9974C13.2313 39.8977 14.2008 38.3598 17.3024 38.3598C20.4048 38.3598 21.2774 39.9974 23.9911 39.9479C26.7529 39.8976 28.506 37.47 30.1953 35.0331C31.4043 33.2808 32.3491 31.3645 33 29.3441C31.3919 28.6663 30.02 27.5388 29.0534 26.1006C28.0869 24.6625 27.5679 22.9765 27.5606 21.2508ZM22.4604 6.38661C23.99 4.61599 24.7478 2.32008 24.5685 0C22.2592 0.221086 20.1232 1.30577 18.5983 3.03162C17.8375 3.8677 17.2551 4.84641 16.8857 5.90941C16.5163 6.97241 16.3676 8.09794 16.4483 9.21889C17.6036 9.23463 18.747 8.98728 19.7897 8.49608C20.8324 8.00487 21.7463 7.28302 22.4604 6.38661Z" fill="black"/>
</svg>
