<svg width="211" height="55" viewBox="0 0 211 55" fill="none" xmlns="http://www.w3.org/2000/svg">
<path d="M44.7799 14.5342C44.8499 13.9042 44.8099 13.4642 44.8599 13.1842C47.2899 13.3942 49.4399 11.5942 49.6499 9.16418C49.8599 6.73418 48.0599 4.58418 45.6299 4.37418C43.4399 4.18418 41.2999 5.79418 41.1299 7.76418C41.0899 8.27418 41.4599 8.72418 41.9699 8.76418C42.4799 8.80418 42.9299 8.43418 42.9699 7.92418C43.0499 6.99418 44.3399 6.11418 45.4699 6.21418C46.8899 6.33418 47.9399 7.59418 47.8099 9.00418C47.6899 10.4242 46.4299 11.4742 45.0199 11.3442C43.5999 11.2242 43.2499 12.7742 42.9499 14.3542L44.7799 14.5342Z" fill="#0B5394"/>
<path d="M21.9399 14.4742C21.8099 13.7842 21.6199 13.3442 21.5799 13.0442C23.9599 12.5042 25.4499 10.1242 24.9099 7.74417C24.3699 5.36417 21.9899 3.87417 19.6099 4.41417C17.4699 4.90417 15.9199 7.09417 16.3599 9.02417C16.4699 9.52417 16.9699 9.83417 17.4699 9.71417C17.9699 9.59417 18.2799 9.10417 18.1699 8.60417C17.9599 7.69417 18.9199 6.46417 20.0299 6.20417C21.4199 5.88417 22.7999 6.75417 23.1199 8.14417C23.4399 9.52417 22.5699 10.9142 21.1799 11.2342C19.8599 11.5342 19.9199 12.9742 20.0999 14.4842L21.7299 14.3442L21.9499 14.4642L21.9399 14.4742Z" fill="#0B5394"/>
<path d="M56.13 20.9442L53.1 31.6542L45.73 28.7842V52.0142H37.02L49.61 54.1142L53.24 32.2642L59.83 36.1742L64.64 25.9942L56.13 20.9442Z" fill="#0B5394"/>
<path d="M18.52 28.7942L11.16 31.6542L8.16 21.0842L0 25.7242L4.62 35.9942L11.28 32.2042L14.52 54.1142L28.69 52.0242H18.52V28.7942Z" fill="#0B5394"/>
<path d="M45.0901 51.4542V27.9242L52.6801 30.8742L55.9401 19.3642L45.0901 15.1542L43.1301 15.0842L41.5401 15.9742L35.6501 12.4042C34.9501 11.9842 34.0601 11.7142 33.1301 11.6042C33.1801 10.4742 32.9701 9.80417 32.9701 9.39417C35.5601 9.19417 37.4901 6.92417 37.2901 4.34417C37.0901 1.75417 34.8301 -0.185825 32.2401 0.0141746C29.9201 0.194175 27.9501 2.26417 28.1101 4.35417C28.1501 4.89417 28.6201 5.29417 29.1601 5.25417C29.7001 5.21417 30.1001 4.74417 30.0601 4.20417C29.9801 3.21417 31.1801 2.06417 32.3901 1.97417C33.9001 1.85417 35.2201 2.98417 35.3301 4.49417C35.4501 5.99417 34.3201 7.31417 32.8101 7.43417C31.1101 7.56417 31.2001 9.69417 31.1501 11.5942C30.2101 11.7042 29.3101 11.9742 28.6001 12.4042L22.9201 15.8542L21.5501 15.0842L19.1701 15.1542L8.32007 19.3642L11.5801 30.8742L19.1701 27.9242V51.4542H45.0801H45.0901ZM29.6301 14.0842C30.9101 13.3142 33.3501 13.3142 34.6301 14.0842L39.5701 17.0842L32.3401 21.1442L24.8901 16.9542L29.6301 14.0842Z" fill="#0B5394"/>
<path d="M67.9701 16.1442H79.3901L79.4201 16.9942C79.4201 18.1642 79.3301 19.2542 79.1401 20.2642H77.7901L77.4901 17.9642L72.0401 17.5942V24.0442L77.7701 23.6142V25.7942L72.0401 25.5442V30.8642L74.9701 31.2142L74.9401 32.3942H67.7401L67.5901 31.5942L69.7201 30.8142V17.4442L67.9401 17.3442L67.9701 16.1442ZM87.0901 30.9442L89.5201 31.2142L89.4901 32.3942H82.7901L82.6401 31.5942L84.7701 30.8142V17.5442L82.8401 17.3142L82.8701 16.1442H89.0701L89.2201 16.9442L87.0901 17.7142V30.9442ZM106.17 15.9942L106.19 16.8642C106.19 18.0842 106.1 19.2042 105.92 20.2142H104.57L104.24 17.7142L100.14 17.5642V30.8942L102.99 31.2142L102.97 32.3942H95.2401L95.0901 31.5942L97.8201 30.7442V17.5642L93.7201 17.7142L93.3901 20.2142H92.0401C91.8601 19.2042 91.7701 18.0842 91.7701 16.8642L91.7901 15.9942C93.8601 16.0642 96.2601 16.0942 98.9901 16.0942C101.76 16.0942 104.15 16.0642 106.17 15.9942ZM120.64 28.0942C120.64 29.4942 120.12 30.6442 119.07 31.5442C118.02 32.4442 116.7 32.8942 115.12 32.8942C114.22 32.8942 113.24 32.7342 112.19 32.4242C111.14 32.1142 110.35 31.6942 109.84 31.1642L109.82 30.2942C109.82 29.0642 109.91 27.9442 110.09 26.9442H111.44L111.79 29.9442C112.94 30.8142 114.34 31.2442 115.97 31.2442L116.82 31.1942C117.79 30.6742 118.27 29.8242 118.27 28.6442C118.27 27.6242 117.69 26.7842 116.52 26.1142L112.47 24.0142C110.78 23.0142 109.94 21.7342 109.94 20.1642C109.94 18.8342 110.49 17.7442 111.59 16.9042C112.69 16.0642 114.08 15.6442 115.77 15.6442C116.94 15.6442 118.31 15.9042 119.89 16.4142L119.92 17.2942C119.92 18.5042 119.83 19.6242 119.64 20.6442H118.29L118.04 18.3642C117.09 17.6342 115.95 17.2642 114.62 17.2642L113.47 17.3642C112.67 17.8542 112.27 18.6142 112.27 19.6442C112.27 20.5942 112.84 21.3842 113.99 22.0142L117.99 24.0442C119.76 25.0542 120.64 26.4042 120.64 28.0942Z" fill="black"/>
<path d="M143.72 31.0642L145.42 31.2142L145.39 32.3942H141.59L138.02 25.8942L135.04 25.9142V30.9142L137.72 31.2142L137.69 32.3942H130.74L130.59 31.5942L132.72 30.8142V17.4442L130.94 17.3442L130.97 16.1442L137.94 15.9442C139.71 15.9442 141.14 16.3942 142.23 17.3042C143.32 18.2142 143.87 19.3642 143.87 20.7642C143.87 21.7642 143.56 22.7142 142.94 23.6042C142.33 24.4942 141.45 25.1442 140.32 25.5442L143.72 31.0642ZM135.04 17.7942V24.2642C135.79 24.3842 136.5 24.4442 137.17 24.4442C138.7 24.4442 139.78 24.0842 140.39 23.3542C141.01 22.6242 141.32 21.7642 141.32 20.7642C141.32 19.1642 140.67 18.0442 139.37 17.4142L135.04 17.7942ZM152.74 30.9442L155.17 31.2142L155.14 32.3942H148.44L148.29 31.5942L150.42 30.8142V17.5442L148.49 17.3142L148.52 16.1442H154.72L154.87 16.9442L152.74 17.7142V30.9442ZM173.67 26.0942L171.77 26.3142V30.6142L166.89 32.8942L166.27 32.9142C163.8 32.9142 161.81 32.1442 160.3 30.5942C158.79 29.0442 158.04 27.0442 158.04 24.6142C158.04 23.0442 158.36 21.5842 159 20.2142C159.65 18.8442 160.62 17.7442 161.92 16.9042C163.22 16.0642 164.79 15.6442 166.64 15.6442C168.64 15.6442 170.31 16.1542 171.64 17.1642L171.67 17.7642C171.67 18.7142 171.52 19.7242 171.22 20.7942H169.74L169.54 18.5642C168.11 17.7842 166.58 17.3942 164.97 17.3942L163.79 17.4642C162.71 18.0642 161.91 18.9942 161.38 20.2442C160.85 21.4942 160.59 22.8842 160.59 24.4142C160.59 26.3342 161.11 27.9142 162.15 29.1642C163.2 30.4142 164.55 31.0442 166.22 31.0442C167.19 31.0442 168.26 30.8642 169.44 30.4942V26.7142C168.29 26.3842 167.38 26.0542 166.69 25.7442L166.84 24.8642H173.64L173.67 26.0942ZM191.27 30.9442L193.69 31.2142L193.67 32.3942H186.97L186.82 31.5942L188.94 30.8142V25.2142H180.87V30.9442L183.29 31.2142L183.27 32.3942H176.57L176.42 31.5942L178.54 30.8142V17.5442L176.62 17.3142L176.64 16.1442H182.84L182.99 16.9442L180.87 17.7142V23.4642H188.94V17.5442L187.02 17.3142L187.04 16.1442H193.24L193.39 16.9442L191.27 17.7142V30.9442ZM210.34 15.9942L210.37 16.8642C210.37 18.0842 210.28 19.2042 210.09 20.2142H208.74L208.42 17.7142L204.32 17.5642V30.8942L207.17 31.2142L207.14 32.3942H199.42L199.27 31.5942L201.99 30.7442V17.5642L197.89 17.7142L197.57 20.2142H196.22C196.03 19.2042 195.94 18.0842 195.94 16.8642L195.97 15.9942C198.04 16.0642 200.44 16.0942 203.17 16.0942C205.94 16.0942 208.33 16.0642 210.34 15.9942Z" fill="black"/>
<path d="M67.5299 47.6542C67.5399 47.1842 67.6199 46.6842 67.7499 46.1742C67.8799 45.6542 68.0599 45.1542 68.2899 44.6742C68.5199 44.1942 68.7799 43.7442 69.0899 43.3242C69.3999 42.8942 69.7499 42.5342 70.1199 42.2242C70.9099 41.5542 71.7499 41.2142 72.6199 41.2142C73.6899 41.2142 74.3799 41.6942 74.6999 42.6542C74.8199 42.9942 74.8699 43.4142 74.8599 43.9142C74.8499 44.4142 74.7699 44.9242 74.6299 45.4342C74.4899 45.9542 74.2999 46.4542 74.0699 46.9342C73.8299 47.4142 73.5499 47.8642 73.2399 48.2842C72.9199 48.7042 72.5799 49.0642 72.2099 49.3742C71.4199 50.0442 70.6199 50.3842 69.8299 50.3842C69.1199 50.3842 68.5499 50.1542 68.1299 49.6842C67.7099 49.2142 67.5099 48.5342 67.5299 47.6542ZM69.4399 45.4042C69.2399 45.8542 69.0799 46.3242 68.9599 46.7942C68.8299 47.2642 68.7699 47.6642 68.7599 47.9942C68.7499 48.3242 68.7599 48.5742 68.8199 48.7642C68.8699 48.9442 68.9399 49.0942 69.0299 49.2242C69.2199 49.4942 69.4599 49.6242 69.7499 49.6242C70.0399 49.6242 70.3399 49.5242 70.6399 49.3342C70.9299 49.1442 71.2199 48.8842 71.4999 48.5642C71.7799 48.2442 72.0499 47.8742 72.2999 47.4542C72.5499 47.0442 72.7699 46.6042 72.9599 46.1542C73.5199 44.8342 73.7199 43.7442 73.5699 42.8942C73.4699 42.3042 73.1499 42.0042 72.5999 42.0042C72.0999 42.0042 71.5399 42.3442 70.9299 43.0242C70.3499 43.6542 69.8499 44.4542 69.4399 45.4042ZM79.3499 45.3642C79.2299 45.3642 79.0599 45.4842 78.8299 45.7142C78.6099 45.9442 78.4199 46.1642 78.2499 46.3542L77.7599 46.9442L76.7999 48.1742C76.5699 48.6042 76.3899 48.9542 76.2599 49.2442L75.9499 49.9242C75.8599 50.0942 75.7899 50.2042 75.7299 50.2742C75.6699 50.3442 75.5899 50.3842 75.4899 50.3842C75.3799 50.3842 75.2799 50.3642 75.1899 50.3242C75.0899 50.2942 75.0099 50.2442 74.9399 50.1842C74.7899 50.0542 74.7199 49.9242 74.7199 49.7742C74.7199 49.7142 74.7599 49.5942 74.8399 49.4242L75.0699 48.9542C75.1399 48.8142 75.2199 48.6342 75.3099 48.4142L75.6399 47.6142C76.0999 46.4642 76.3299 45.7142 76.3299 45.3742C76.3299 45.1942 76.2699 45.0642 76.1599 44.9842L76.0399 44.8942C76.0399 44.8942 75.9799 44.8242 75.9799 44.7542C75.9799 44.6842 76.0099 44.6242 76.0599 44.5542C76.1099 44.4942 76.1799 44.4442 76.2699 44.3942C76.4399 44.3042 76.6199 44.2542 76.7999 44.2542C76.9699 44.2542 77.1099 44.2742 77.2099 44.3142C77.3099 44.3542 77.3899 44.4042 77.4599 44.4742C77.5999 44.6142 77.6699 44.7542 77.6699 44.9042C77.6699 45.0542 77.6499 45.2042 77.6199 45.3542C77.5799 45.5042 77.5299 45.6542 77.4799 45.8042C77.4199 45.9642 77.3599 46.1142 77.2999 46.2642C77.2399 46.4142 77.1799 46.5342 77.1299 46.6442L77.0099 46.9042C76.9799 46.9642 76.9799 46.9842 76.9899 46.9642C77.4199 46.3542 77.7099 45.9742 77.8399 45.8042L78.2499 45.3042C78.5599 44.9542 78.7899 44.7242 78.9599 44.6142C79.3099 44.3742 79.5799 44.2542 79.7799 44.2542C79.9799 44.2542 80.1499 44.2842 80.2899 44.3342C80.4199 44.3842 80.5399 44.4642 80.6399 44.5542C80.8599 44.7542 80.9699 45.0042 80.9699 45.3142C80.9699 45.6242 80.8999 45.9442 80.7599 46.2842C80.6199 46.6142 80.4999 46.8842 80.3899 47.0942C80.2799 47.3042 80.1799 47.5242 80.0899 47.7342C79.7999 48.3842 79.6499 48.8642 79.6499 49.1542C79.6499 49.2842 79.7599 49.3542 79.9699 49.3542C80.1399 49.3542 80.2899 49.3242 80.4199 49.2542C80.5499 49.1842 80.6399 49.1442 80.6799 49.1442C80.7599 49.1442 80.7999 49.1842 80.7999 49.2642C80.7999 49.6142 80.6199 49.9142 80.2699 50.1442C80.0299 50.3042 79.8099 50.3842 79.6099 50.3842C79.4099 50.3842 79.2499 50.3642 79.1199 50.3142C78.9899 50.2742 78.8699 50.2042 78.7699 50.1142C78.5399 49.9042 78.4199 49.6142 78.4199 49.2442C78.4199 48.7942 78.5599 48.2242 78.8499 47.5442C79.0599 47.0742 79.1999 46.7642 79.2899 46.5942L79.4899 46.1742C79.6099 45.9242 79.6699 45.7342 79.6699 45.5842C79.6699 45.4342 79.5599 45.3642 79.3499 45.3642ZM82.1399 50.0842C82.0499 49.9842 81.9699 49.8542 81.9099 49.6942C81.8499 49.5442 81.8199 49.3542 81.8199 49.1442C81.8199 48.9342 81.8699 48.6542 81.9599 48.3042C82.0499 47.9542 82.1799 47.5542 82.3299 47.1042L82.8199 45.6442C83.5199 43.6142 83.9199 42.0442 84.0299 40.9342C84.0599 40.6042 84.2199 40.4442 84.5099 40.4442C84.6899 40.4442 84.8399 40.4842 84.9599 40.5742C85.1899 40.7442 85.2999 40.9342 85.2899 41.1442C85.2799 41.3542 85.2399 41.6142 85.1699 41.9142C85.0999 42.2242 85.0199 42.5542 84.9199 42.9042C84.8099 43.2642 84.6899 43.6442 84.5499 44.0442L83.7399 46.4242C83.2799 47.7742 83.0499 48.6442 83.0499 49.0442C83.0499 49.2542 83.1299 49.3542 83.2999 49.3542C83.4699 49.3542 83.6199 49.3242 83.7499 49.2542C83.8899 49.1842 83.9799 49.1442 84.0099 49.1442C84.0999 49.1442 84.1399 49.1842 84.1399 49.2642C84.1399 49.6142 83.9599 49.9142 83.5999 50.1442C83.3699 50.3042 83.1499 50.3842 82.9499 50.3842C82.7499 50.3842 82.5899 50.3642 82.4699 50.3142C82.3499 50.2642 82.2399 50.1942 82.1399 50.0842ZM85.1999 49.7542C85.1499 49.6242 85.1299 49.4842 85.1299 49.3142C85.1299 49.1442 85.1599 48.9642 85.2099 48.7542C85.2699 48.5442 85.3399 48.3342 85.4299 48.1142C85.5199 47.8942 85.6199 47.6642 85.7199 47.4242L86.0399 46.7242C86.4499 45.8242 86.5999 45.2942 86.4899 45.1242C86.4399 45.0442 86.3599 44.9642 86.2299 44.8942C86.2299 44.8942 86.1599 44.8242 86.1599 44.7542C86.1599 44.6842 86.1899 44.6242 86.2399 44.5542C86.2999 44.4942 86.3699 44.4442 86.4599 44.3942C86.6499 44.3042 86.8499 44.2542 87.0399 44.2542C87.2299 44.2542 87.3699 44.2742 87.4699 44.3242C87.5699 44.3642 87.6499 44.4142 87.7199 44.4742C87.8499 44.6042 87.9099 44.7442 87.9099 44.9042C87.9099 45.0542 87.8799 45.2342 87.8299 45.4242C87.7799 45.6142 87.7199 45.8242 87.6299 46.0542C87.5499 46.2842 87.4599 46.5142 87.3699 46.7642C87.0999 47.3942 86.9099 47.8142 86.8199 48.0142L86.5999 48.4642C86.4799 48.7342 86.4199 48.9242 86.4199 49.0342C86.4199 49.1442 86.4399 49.2142 86.4699 49.2642C86.4699 49.2642 86.5799 49.3342 86.6699 49.3342C86.7599 49.3342 86.8599 49.2942 86.9699 49.2242C87.0799 49.1542 87.1999 49.0642 87.3299 48.9442C87.4599 48.8342 87.5899 48.6942 87.7299 48.5342C87.8699 48.3842 88.0099 48.2242 88.1399 48.0542C88.4899 47.6242 88.7399 47.2542 88.9099 46.9442C89.7599 45.3942 90.1999 44.5842 90.2499 44.5142C90.3799 44.3442 90.5099 44.2542 90.6399 44.2542C90.7699 44.2542 90.8899 44.2742 90.9899 44.3042C91.0799 44.3342 91.1699 44.3742 91.2399 44.4242C91.3899 44.5342 91.4399 44.6642 91.3799 44.8142C91.3199 44.9542 91.2499 45.1442 91.1599 45.3942C90.4199 47.5442 89.9399 48.8842 89.7199 49.4142C89.4999 49.9442 89.3099 50.3742 89.1399 50.6942C88.9699 51.0142 88.7799 51.3442 88.5599 51.6742C88.3399 52.0042 88.1099 52.2942 87.8599 52.5642C87.2899 53.1742 86.7499 53.5042 86.2499 53.5442C86.0599 53.5542 85.9099 53.5342 85.7999 53.4642C85.5999 53.3442 85.4999 53.2342 85.4999 53.1342C85.4999 53.0242 85.5899 52.9542 85.7699 52.9142C85.9499 52.8642 86.1299 52.7842 86.3199 52.6642C86.5099 52.5442 86.6899 52.4042 86.8699 52.2342C87.3799 51.7442 87.7799 51.2042 88.0699 50.6242C88.3099 50.1142 88.4999 49.6342 88.6499 49.1842L89.1099 47.7942C88.9999 47.9242 88.8699 48.0842 88.7399 48.2742L88.3099 48.8342C87.9399 49.3042 87.6399 49.6342 87.3999 49.8242C86.9399 50.1942 86.5299 50.3842 86.1599 50.3842C85.6799 50.3842 85.3599 50.1742 85.1999 49.7542ZM96.5899 48.6942V48.7842C96.5899 49.1542 96.7299 49.3342 97.0099 49.3342C97.5199 49.3342 98.1899 48.6842 99.0199 47.3942C99.2699 47.0142 99.5099 46.6142 99.7599 46.1842L100.47 44.8742C101.5 42.8942 102.09 41.7642 102.24 41.4842C102.32 41.3442 102.43 41.2742 102.58 41.2742C102.72 41.2742 102.84 41.2942 102.94 41.3342C103.04 41.3742 103.12 41.4242 103.19 41.4942C103.36 41.6542 103.4 41.8142 103.31 41.9642C103.04 42.4742 102.78 43.0442 102.55 43.6742L101.09 47.7542C100.93 48.1642 100.77 48.5642 100.6 48.9542C100.43 49.3442 100.25 49.7242 100.04 50.1042C99.8299 50.4742 99.5999 50.8342 99.3699 51.1842C99.1299 51.5342 98.8799 51.8542 98.6199 52.1442C98.3499 52.4342 98.0799 52.6942 97.8099 52.9142C97.2299 53.3742 96.6699 53.6042 96.1399 53.6042C96.0399 53.6042 95.9399 53.5842 95.8399 53.5342C95.7499 53.4842 95.6899 53.4242 95.6699 53.3342C95.6499 53.2442 95.6699 53.1842 95.7099 53.1542C95.7099 53.1542 95.8199 53.0942 95.8999 53.0642C96.9699 52.6642 97.9899 51.5942 98.9499 49.8442C99.2299 49.3242 99.4899 48.7842 99.7299 48.2342C99.9999 47.5042 100.18 47.0342 100.26 46.8142L99.6599 47.7142C98.4299 49.4942 97.3899 50.3842 96.5299 50.3842C95.9499 50.3842 95.5599 50.1342 95.3599 49.6242C95.3099 49.4642 95.2799 49.3242 95.2799 49.2142V48.9842C95.2799 48.5142 95.5499 47.6142 96.0999 46.2942L97.3199 43.4542C97.5499 42.8842 97.6699 42.5442 97.6699 42.4142C97.6699 42.2842 97.6499 42.1842 97.5999 42.1142C97.5499 42.0442 97.4999 41.9942 97.4399 41.9542L97.2899 41.8342C97.2899 41.8342 97.2199 41.7642 97.2199 41.6942C97.2199 41.6342 97.2499 41.5742 97.3099 41.5142C97.3699 41.4442 97.4499 41.3942 97.5499 41.3442C97.7599 41.2542 97.9599 41.2142 98.1599 41.2142C98.3499 41.2142 98.4999 41.2342 98.6099 41.2742C98.7199 41.3142 98.8099 41.3642 98.8799 41.4242C99.0099 41.5542 99.0799 41.7142 99.0799 41.8942C99.0799 42.0742 99.0499 42.2842 98.9799 42.5342C98.9099 42.7842 98.8199 43.0542 98.7099 43.3442C98.5999 43.6342 98.4799 43.9342 98.3299 44.2642L97.4399 46.2242C96.8699 47.4742 96.5899 48.2942 96.5899 48.6942ZM103 49.9242C102.83 49.7742 102.7 49.5742 102.61 49.3342C102.52 49.0942 102.47 48.8042 102.47 48.4742C102.47 48.1442 102.5 47.8142 102.59 47.4842C102.67 47.1442 102.79 46.8142 102.94 46.5042C103.09 46.1942 103.28 45.9042 103.5 45.6342C103.71 45.3642 103.95 45.1242 104.22 44.9142C104.79 44.4742 105.38 44.2542 105.99 44.2542C106.8 44.2542 107.34 44.6042 107.63 45.3142C107.83 45.8242 107.84 46.4442 107.66 47.1742C107.5 47.8442 107.2 48.4542 106.76 49.0142C106.33 49.5742 105.81 49.9742 105.22 50.2042C104.93 50.3242 104.64 50.3842 104.35 50.3842C104.06 50.3842 103.81 50.3442 103.58 50.2742C103.35 50.1942 103.16 50.0742 103 49.9242ZM104.12 47.0842C104 47.3742 103.91 47.6642 103.84 47.9742C103.77 48.2842 103.74 48.5642 103.74 48.8342C103.74 49.1042 103.79 49.3242 103.87 49.4742C103.95 49.6242 104.08 49.7042 104.26 49.7042C104.44 49.7042 104.62 49.6442 104.79 49.5242C104.96 49.3942 105.13 49.2342 105.3 49.0342C105.46 48.8342 105.61 48.6042 105.76 48.3342C105.9 48.0642 106.03 47.7842 106.14 47.4942C106.38 46.8642 106.49 46.3142 106.48 45.8242C106.48 45.3942 106.39 45.1142 106.22 45.0042C106.15 44.9542 106.05 44.9342 105.92 44.9342C105.79 44.9342 105.65 44.9942 105.49 45.1042C105.32 45.2142 105.16 45.3742 105 45.5742C104.83 45.7642 104.67 45.9942 104.52 46.2542C104.37 46.5142 104.23 46.7942 104.12 47.0842ZM114.1 49.1642C114.19 49.1642 114.23 49.2142 114.23 49.3042C114.23 49.6442 114.06 49.9242 113.73 50.1542C113.5 50.3042 113.24 50.3842 112.93 50.3842C112.68 50.3842 112.49 50.3242 112.36 50.2042C112.12 49.9942 112 49.7442 112 49.4342C112 49.0442 112.16 48.4542 112.48 47.6542C111.88 48.4642 111.46 49.0042 111.22 49.2742C110.98 49.5442 110.77 49.7542 110.59 49.9042C110.2 50.2242 109.84 50.3842 109.53 50.3842C109.04 50.3842 108.72 50.1742 108.56 49.7542C108.51 49.6242 108.49 49.4842 108.49 49.3142C108.49 49.1442 108.52 48.9642 108.57 48.7542C108.63 48.5442 108.7 48.3342 108.79 48.1142C108.88 47.8942 108.98 47.6642 109.09 47.4242L109.4 46.7242C109.81 45.8242 109.96 45.2942 109.85 45.1242C109.8 45.0442 109.72 44.9642 109.59 44.8942C109.59 44.8942 109.52 44.8242 109.52 44.7542C109.52 44.6842 109.55 44.6242 109.6 44.5542C109.66 44.4942 109.73 44.4442 109.82 44.3942C110.01 44.3042 110.21 44.2542 110.4 44.2542C110.59 44.2542 110.74 44.2742 110.84 44.3242C110.93 44.3642 111.01 44.4142 111.08 44.4742C111.21 44.6042 111.27 44.7442 111.27 44.9042C111.27 45.0542 111.25 45.2342 111.2 45.4242C111.15 45.6142 111.08 45.8242 111 46.0542C110.91 46.2842 110.82 46.5142 110.73 46.7642C110.46 47.3942 110.27 47.8142 110.18 48.0142L109.97 48.4642C109.84 48.7342 109.78 48.9242 109.78 49.0342C109.78 49.1442 109.8 49.2142 109.84 49.2642C109.84 49.2642 109.94 49.3342 110.03 49.3342C110.12 49.3342 110.22 49.2942 110.35 49.2042C110.47 49.1142 110.6 49.0042 110.74 48.8542C110.89 48.7142 111.04 48.5442 111.2 48.3542C111.35 48.1642 111.5 47.9742 111.65 47.7642C111.94 47.3742 112.16 47.0542 112.3 46.8042C113.13 45.3442 113.57 44.5842 113.62 44.5142C113.75 44.3442 113.88 44.2542 114.01 44.2542C114.14 44.2542 114.25 44.2742 114.35 44.3042C114.44 44.3342 114.53 44.3742 114.6 44.4242C114.77 44.5542 114.82 44.6742 114.76 44.7942C113.81 46.7842 113.29 48.0342 113.22 48.5442C113.2 48.7142 113.19 48.8342 113.19 48.9042C113.19 49.2042 113.28 49.3542 113.46 49.3542C113.63 49.3542 113.76 49.3242 113.87 49.2642C113.98 49.1942 114.06 49.1642 114.1 49.1642ZM115.29 50.1842C115.21 50.1242 115.15 50.0542 115.1 49.9842C115.05 49.9142 115.03 49.8442 115.02 49.7942C115.02 49.7942 115.03 49.6842 115.05 49.6042C115.08 49.5342 115.11 49.4342 115.16 49.3242C115.95 47.3642 116.35 46.0442 116.35 45.3742C116.34 45.1842 116.27 45.0542 116.16 44.9842L116.04 44.8942C116.04 44.8942 115.99 44.8242 115.99 44.7542C115.99 44.6842 116.01 44.6242 116.06 44.5542C116.11 44.4942 116.17 44.4442 116.26 44.3942C116.43 44.3042 116.6 44.2542 116.78 44.2542C116.95 44.2542 117.09 44.2742 117.19 44.3142C117.29 44.3542 117.38 44.4042 117.45 44.4742C117.6 44.6142 117.67 44.7642 117.67 44.9242C117.67 45.0742 117.66 45.2342 117.62 45.3942C117.58 45.5542 117.54 45.7142 117.49 45.8642C117.44 46.0142 117.39 46.1642 117.34 46.3042C117.29 46.4442 117.25 46.5442 117.24 46.6142C117.21 46.7442 117.19 46.8342 117.2 46.8742C117.29 46.7842 117.35 46.7042 117.37 46.6342L117.6 46.1942C118.11 45.2842 118.6 44.6742 119.09 44.3842C119.23 44.2942 119.4 44.2542 119.59 44.2542C119.79 44.2542 119.95 44.3242 120.07 44.4642C120.19 44.6042 120.25 44.7542 120.26 44.9242C120.26 45.0942 120.26 45.2342 120.23 45.3442C120.2 45.4542 120.15 45.5642 120.1 45.6542C119.97 45.8742 119.81 45.9842 119.63 45.9842C119.58 45.9842 119.53 45.9642 119.49 45.9342L119.36 45.8242C119.23 45.7142 119.1 45.6542 118.99 45.6542C118.87 45.6542 118.72 45.7342 118.55 45.8842C118.38 46.0442 118.21 46.2442 118.02 46.4942C117.41 47.3042 116.9 48.2242 116.51 49.2342L116.25 49.9142C116.18 50.0842 116.13 50.2042 116.08 50.2742C116.03 50.3442 115.95 50.3842 115.85 50.3842C115.75 50.3842 115.65 50.3642 115.55 50.3242C115.45 50.2942 115.36 50.2442 115.29 50.1842ZM124.9 48.0442L124.85 48.4942C124.85 48.9642 125.01 49.2942 125.32 49.4642C125.43 49.5242 125.57 49.5542 125.72 49.5542C125.87 49.5542 126 49.5242 126.13 49.4742C126.25 49.4242 126.35 49.3542 126.42 49.2642C126.59 49.0842 126.67 48.8842 126.67 48.6542C126.67 48.4242 126.62 48.2142 126.53 48.0242C126.44 47.8342 126.32 47.6542 126.18 47.4642L125.71 46.8942C125.33 46.4442 125.08 46.0242 124.95 45.6542C124.82 45.2842 124.75 44.9342 124.75 44.6242C124.75 44.3142 124.79 44.0142 124.87 43.7342C124.94 43.4542 125.05 43.1842 125.19 42.9342C125.32 42.6842 125.49 42.4542 125.68 42.2442C125.87 42.0342 126.09 41.8442 126.32 41.6942C126.81 41.3642 127.29 41.2042 127.77 41.2042C128.25 41.2042 128.63 41.2742 128.9 41.4042C129.17 41.5342 129.38 41.7042 129.55 41.9042C129.85 42.2942 130 42.7542 130 43.2942C130 43.8042 129.86 44.2742 129.58 44.7242C129.31 45.1342 129.02 45.3842 128.7 45.4942C128.63 45.5242 128.53 45.5442 128.41 45.5442C128.28 45.5442 128.18 45.5242 128.1 45.4942C128.01 45.4542 127.94 45.4042 127.88 45.3442C127.74 45.2042 127.67 45.0542 127.67 44.8942C127.67 44.7842 127.7 44.7142 127.77 44.6842C128.07 44.5242 128.33 44.2942 128.55 43.9842C128.78 43.6542 128.91 43.3242 128.92 42.9942C128.93 42.6642 128.85 42.4142 128.68 42.2542C128.51 42.1042 128.29 42.0242 128.01 42.0242C127.72 42.0242 127.47 42.0842 127.24 42.2142C127.01 42.3442 126.82 42.5142 126.66 42.7242C126.31 43.1842 126.13 43.7242 126.13 44.3542C126.13 44.7742 126.27 45.2142 126.56 45.6842C126.69 45.8842 126.82 46.0842 126.96 46.2742C127.1 46.4642 127.23 46.6642 127.36 46.8642C127.65 47.3342 127.79 47.7642 127.79 48.1342C127.79 48.5142 127.72 48.8342 127.59 49.0842C127.45 49.3442 127.27 49.5742 127.05 49.7642C126.57 50.1742 126.02 50.3842 125.41 50.3842C124.83 50.3842 124.38 50.2142 124.07 49.8642C123.82 49.5942 123.7 49.2942 123.7 48.9642C123.7 48.6142 123.8 48.3142 124 48.0742C124.15 47.8842 124.3 47.7742 124.44 47.7442C124.75 47.6642 124.9 47.7642 124.9 48.0442ZM132.7 42.8842C132.61 42.9742 132.52 43.0542 132.41 43.1042C132.3 43.1642 132.18 43.2042 132.06 43.2142C131.94 43.2242 131.83 43.2142 131.72 43.1542C131.61 43.1042 131.52 43.0342 131.44 42.9442C131.27 42.7442 131.19 42.5442 131.19 42.3442C131.19 42.1542 131.22 42.0042 131.28 41.9042C131.35 41.8042 131.43 41.7242 131.53 41.6542C131.72 41.5342 131.89 41.4742 132.06 41.4742C132.23 41.4742 132.35 41.4842 132.44 41.5142C132.53 41.5342 132.62 41.5742 132.7 41.6242C132.89 41.7542 132.99 41.9142 132.99 42.1042C132.99 42.2842 132.96 42.4342 132.91 42.5642C132.86 42.6842 132.79 42.7942 132.7 42.8842ZM131.5 49.2242C131.6 49.2242 131.65 49.2942 131.65 49.4242C131.65 49.6042 131.57 49.7842 131.41 49.9742C131.18 50.2442 130.86 50.3842 130.47 50.3842C130.02 50.3842 129.71 50.2042 129.54 49.8342C129.47 49.7042 129.44 49.5442 129.44 49.3642C129.44 49.1742 129.47 48.9742 129.54 48.7542C129.6 48.5242 129.68 48.2942 129.78 48.0442C129.87 47.7942 129.98 47.5342 130.09 47.2842L130.4 46.5542C130.63 46.0042 130.74 45.6342 130.74 45.4642C130.74 45.2842 130.72 45.1642 130.69 45.1142C130.65 45.0542 130.61 45.0142 130.57 44.9842L130.45 44.8942C130.45 44.8942 130.39 44.8242 130.39 44.7542C130.39 44.6842 130.42 44.6242 130.47 44.5542C130.52 44.4942 130.59 44.4442 130.68 44.3942C130.85 44.3042 131.06 44.2542 131.29 44.2542C131.86 44.2542 132.15 44.4042 132.15 44.7142C132.15 45.0642 132.06 45.4642 131.88 45.9142C131.69 46.3642 131.54 46.7342 131.41 47.0042L131.06 47.8142C130.8 48.4042 130.67 48.8342 130.67 49.0942C130.67 49.2642 130.76 49.3542 130.93 49.3542C131.1 49.3542 131.22 49.3342 131.31 49.2942C131.4 49.2442 131.46 49.2242 131.5 49.2242ZM133.89 49.3842C134.55 49.1642 135.16 49.0542 135.71 49.0542C136.08 49.0542 136.37 49.1542 136.57 49.3642C136.76 49.5542 136.85 49.8042 136.85 50.1242C136.85 50.1942 136.83 50.2542 136.78 50.3042C136.73 50.3542 136.67 50.3842 136.59 50.3842C136.51 50.3842 136.43 50.3642 136.34 50.3142C136.26 50.2742 136.16 50.2242 136.05 50.1742C135.31 49.8442 134.5 49.8742 133.61 50.2642C133.5 50.3142 133.4 50.3542 133.31 50.3742C133.23 50.3942 133.14 50.3742 133.04 50.3342C132.94 50.2842 132.84 50.2242 132.75 50.1442C132.53 49.9542 132.45 49.7542 132.52 49.5642C132.59 49.3742 132.69 49.1642 132.84 48.9342C132.99 48.7042 133.17 48.4742 133.36 48.2442C133.55 48.0142 133.76 47.7942 133.99 47.5842C134.59 47.0242 135.02 46.6342 135.29 46.4042C135.9 45.8942 136.27 45.5742 136.41 45.4442C136.54 45.3142 136.63 45.2142 136.68 45.1442C136.33 45.2942 135.88 45.4042 135.32 45.4642C135.17 45.4742 135.05 45.4842 134.96 45.4842C134.56 45.4842 134.27 45.4142 134.1 45.2742C133.93 45.1242 133.85 44.9142 133.85 44.6242C133.85 44.5142 133.87 44.4242 133.92 44.3542C133.97 44.2842 134.03 44.2542 134.1 44.2542C134.17 44.2542 134.26 44.2742 134.37 44.3242C134.48 44.3642 134.62 44.4042 134.78 44.4542C135.2 44.5842 135.57 44.6542 135.88 44.6542C136.2 44.6542 136.42 44.6442 136.54 44.6142C136.67 44.5842 136.78 44.5442 136.88 44.5142L137.15 44.4042C137.23 44.3742 137.31 44.3542 137.39 44.3542C137.48 44.3542 137.55 44.3842 137.61 44.4342C137.68 44.4842 137.74 44.5542 137.79 44.6242C137.91 44.7942 137.97 44.9542 137.97 45.1042C137.97 45.2542 137.89 45.4442 137.72 45.6642C137.55 45.8742 137.34 46.1042 137.09 46.3442C136.83 46.5842 136.54 46.8342 136.23 47.0842L135.31 47.8542C134.59 48.4642 134.12 48.9742 133.89 49.3842ZM133.82 49.5342C133.82 49.5342 133.84 49.5342 133.82 49.5242C133.82 49.5242 133.82 49.5242 133.82 49.5342ZM138.15 48.2742C138.17 47.9342 138.23 47.6042 138.32 47.2942C138.42 46.9842 138.55 46.6842 138.72 46.3942C138.88 46.1042 139.07 45.8242 139.29 45.5642C139.52 45.3042 139.76 45.0742 140.01 44.8842C140.57 44.4642 141.14 44.2542 141.71 44.2542C142.38 44.2542 142.82 44.5342 143.04 45.0842C143.12 45.2742 143.16 45.4942 143.15 45.7542C143.15 46.0042 143.1 46.2442 143.01 46.4542C142.92 46.6742 142.79 46.8742 142.62 47.0542C142.45 47.2242 142.25 47.3842 142.02 47.5242C141.79 47.6642 141.55 47.7842 141.28 47.8842C140.73 48.0742 140.13 48.1842 139.5 48.1942C139.48 48.2442 139.47 48.3242 139.47 48.4342C139.47 48.5442 139.47 48.6742 139.5 48.8042C139.53 48.9342 139.57 49.0542 139.64 49.1642C139.78 49.3942 139.98 49.5142 140.25 49.5142C140.7 49.5142 141.15 49.3842 141.58 49.1142C141.73 49.0242 141.85 48.9342 141.95 48.8342C142.04 48.7442 142.13 48.6942 142.2 48.6942C142.27 48.6942 142.33 48.7342 142.38 48.8242C142.43 48.9042 142.46 48.9942 142.46 49.1042C142.46 49.3142 142.4 49.4942 142.29 49.6442C141.8 50.1342 141.06 50.3842 140.09 50.3842C139.52 50.3842 139.06 50.2142 138.71 49.8642C138.32 49.4742 138.13 48.9442 138.15 48.2742ZM141.58 45.0342C141.17 45.0342 140.77 45.3142 140.39 45.8842C140.07 46.3642 139.81 46.9342 139.62 47.6042C140.27 47.5342 140.84 47.2842 141.32 46.8342C141.76 46.4042 141.98 46.0042 141.98 45.6142C141.98 45.2242 141.85 45.0342 141.58 45.0342ZM143.51 49.2942C143.51 49.1742 143.54 49.0642 143.59 48.9542C143.64 48.8542 143.71 48.7642 143.79 48.6942C143.95 48.5442 144.12 48.4642 144.3 48.4642C144.46 48.4642 144.54 48.5442 144.54 48.7042C144.54 49.1142 144.67 49.3942 144.94 49.5542C145.04 49.6142 145.14 49.6442 145.24 49.6442C145.35 49.6442 145.44 49.6342 145.51 49.6042C145.59 49.5842 145.66 49.5442 145.72 49.4942C145.86 49.3842 145.93 49.2442 145.93 49.0942C145.93 48.9342 145.89 48.7942 145.82 48.6642C145.75 48.5342 145.67 48.3942 145.56 48.2442L145.23 47.7842C144.76 47.1542 144.52 46.5842 144.52 46.0542C144.52 45.6142 144.71 45.2142 145.08 44.8642C145.5 44.4542 146.04 44.2542 146.7 44.2542C147.28 44.2542 147.73 44.3942 148.06 44.6842C148.33 44.9142 148.46 45.1842 148.46 45.4742C148.46 45.7842 148.34 46.0342 148.1 46.2142C147.89 46.3842 147.68 46.4442 147.47 46.3942C147.38 46.3742 147.3 46.3242 147.25 46.2542C147.2 46.1842 147.19 46.0942 147.22 45.9942C147.25 45.8942 147.27 45.7942 147.27 45.6842C147.27 45.5842 147.25 45.4842 147.21 45.3942C147.17 45.3042 147.12 45.2342 147.05 45.1642C146.92 45.0342 146.77 44.9742 146.62 44.9742C146.47 44.9742 146.35 44.9942 146.25 45.0242C146.16 45.0542 146.07 45.1042 145.99 45.1642C145.84 45.3042 145.77 45.4742 145.77 45.6842C145.77 45.8942 145.8 46.0642 145.87 46.2142C145.94 46.3642 146.03 46.5142 146.13 46.6642C146.24 46.8142 146.35 46.9642 146.47 47.1142C146.59 47.2642 146.7 47.4242 146.8 47.5942C147.05 47.9842 147.17 48.3342 147.17 48.6342C147.17 48.9342 147.11 49.1842 146.98 49.3842C146.86 49.5842 146.7 49.7542 146.5 49.9042C146.07 50.2142 145.6 50.3742 145.07 50.3742C144.56 50.3742 144.16 50.2542 143.87 50.0142C143.63 49.8042 143.51 49.5642 143.51 49.2942Z" fill="#0B5394"/>
</svg>
