<svg width="13" height="11" viewBox="0 0 13 11" fill="none" xmlns="http://www.w3.org/2000/svg">
<path d="M1.25 7.9375H6.0625V10.125C6.0625 10.6172 6.44531 11 6.91016 11C7.12891 11 7.34766 10.918 7.51172 10.7539L12.3242 6.37891C12.5156 6.21484 12.625 5.99609 12.625 5.75C12.625 5.53125 12.5156 5.3125 12.3516 5.14844L7.53906 0.773438C7.375 0.609375 7.15625 0.5 6.91016 0.5C6.44531 0.5 6.0625 0.910156 6.0625 1.375V3.5625H1.25C0.757812 3.5625 0.375 3.97266 0.375 4.4375V7.0625C0.375 7.55469 0.757812 7.9375 1.25 7.9375ZM1.25 4.4375H6.9375L6.96484 1.42969L11.7227 5.75L6.9375 10.125V7.0625H1.25V4.4375Z" fill="#3541A5"/>
</svg>
