<svg width="390" height="275" viewBox="0 0 390 275" fill="none" xmlns="http://www.w3.org/2000/svg">
<path fill-rule="evenodd" clip-rule="evenodd" d="M259.1 65.2518C257.307 64.3628 254.916 65.3939 255.913 67.744C256.982 70.2606 260.932 70.2917 263.163 70.2418C262.939 70.2301 262.22 67.9223 261.974 67.5736C261.248 66.5449 260.203 65.7993 259.1 65.2518ZM279.765 110.372C280.218 110.759 279.802 110.408 279.765 110.372V110.372ZM257.372 76.6345C256.323 77.4365 256.273 78.8525 257.13 79.8109C258.151 80.9519 260.015 80.9103 261.407 80.7992C262.036 80.7488 265.398 80.4798 264.601 79.93C264.662 79.9531 264.79 80.0093 264.927 80.0856C265.001 80.3548 265.078 80.6231 265.159 80.8902C265.139 80.9017 265.122 80.9141 265.101 80.9256C265.124 80.9156 265.14 80.9047 265.16 80.8946C265.968 83.5639 267.119 86.1056 268.625 88.4834C268.062 88.2615 267.478 88.0936 266.886 88.0188C265.132 87.7972 261.444 89.1592 263.405 91.4929C265.286 93.73 268.214 91.3299 270.348 90.9989C272.418 93.8871 274.701 96.6549 277.093 99.3303C276.947 99.3762 276.818 99.4718 276.744 99.6207C275.785 99.134 274.785 98.4378 273.896 98.2493C272.615 97.9777 269.987 97.8131 269.018 98.9597C267.827 100.37 269.104 101.515 270.511 101.785C272.552 102.178 275.224 101.181 277.188 100.507C277.413 100.547 277.658 100.481 277.805 100.302C277.848 100.287 277.891 100.274 277.934 100.26C280.356 102.922 282.871 105.497 285.371 108.015C285.344 108.013 285.318 108.012 285.29 108.01C284.638 107.583 283.939 107.232 283.18 107.048C281.427 106.621 279.363 106.619 277.94 107.887C276.522 109.15 276.02 111.359 277.486 112.778C280.422 115.617 284.748 109.144 286.229 108.873C288.769 111.405 291.455 113.771 294.184 116.089C293.874 115.995 293.556 115.925 293.228 115.894C290.552 115.638 284.272 118.917 287.556 122.143C290.417 124.954 293.729 119.543 296.035 117.651C298.606 119.811 301.191 121.957 303.703 124.186C302.333 123.823 301.009 123.769 299.54 124.213C298.02 124.673 295.567 125.82 296.528 127.871C297.505 129.957 300.451 129.008 301.985 128.346C302.821 127.984 304.499 126.765 305.972 126.252C309.981 130.035 313.454 134.203 316.083 139.112C317.724 142.177 318.97 145.451 319.846 148.817C320.406 150.965 321.508 154.574 321.288 157.37C322.34 151.773 320.437 145.051 318.388 140.048C316.504 135.448 313.684 131.41 310.381 127.775C311.21 125.283 318.186 121.689 314.016 119.373C311.801 118.149 309.532 120.181 309.048 122.332C308.716 123.81 309.222 125.668 309.76 127.102C308.721 125.994 307.641 124.922 306.528 123.885C304.989 122.452 303.414 121.061 301.824 119.687C304.444 117.226 306.924 110.192 303.411 109.041C298.223 107.347 300.721 116.942 301.083 118.741C301.186 118.747 301.266 118.716 301.325 118.649C301.295 118.814 301.262 118.99 301.221 119.168C298.177 116.552 295.088 113.987 292.101 111.309C292.371 111.11 292.798 110.351 293.135 109.946C293.893 109.035 294.619 108.082 295.15 107.016C295.988 105.331 296.797 102.643 294.575 101.652C292.158 100.572 291.01 103.612 290.993 105.426C290.982 106.68 291.324 107.871 291.502 109.101C291.557 109.484 291.343 111.213 291.866 110.469C291.841 110.743 291.837 110.942 291.85 111.082C291.313 110.599 290.781 110.111 290.253 109.619C290.277 109.557 290.295 109.489 290.299 109.41C290.328 108.87 289.783 108.661 289.402 108.82C288.704 108.157 288.013 107.486 287.335 106.802C285.896 105.352 284.437 103.86 282.988 102.337C283.303 102.067 283.178 101.693 283.472 101.407C283.765 101.121 284.343 100.963 284.689 100.697C285.557 100.029 286.276 99.0549 286.797 98.0966C287.657 96.513 288.767 93.1912 286.256 92.4365C283.668 91.6573 282.355 94.855 282.188 96.8541C282.156 97.2414 282.446 100.731 282.668 101.998C279.987 99.1678 277.35 96.231 274.961 93.243C275.686 93.2363 277.739 91.7529 278.154 91.3481C279.167 90.3608 280.778 88.1792 279.002 87.0248C277.423 86.0008 275.476 87.4839 274.801 88.9253C274.69 89.1626 274.299 91.3716 274.268 92.3628C273.279 91.0957 272.336 89.8212 271.459 88.5425C270.873 87.6924 270.327 86.8199 269.815 85.9288C269.938 85.859 270.054 85.7373 270.163 85.586C272.797 85.1392 276.155 81.0318 273.061 79.6028C271.588 78.9233 269.991 80.3259 269.27 81.4743C269.122 81.7093 268.882 82.8905 268.688 83.8222C267.216 80.8701 266.091 77.7449 265.234 74.5405C265.464 74.4836 265.658 74.3085 265.683 74.0074C266.962 73.2788 267.972 72.6721 268.864 71.2709C269.419 70.4007 270.418 68.4123 268.788 67.9293C266.668 67.3008 265.336 70.538 265.162 72.1325C265.142 72.3176 265.143 72.8559 265.15 73.3492C265.076 73.3391 265.002 73.3403 264.929 73.3531C264.442 71.369 264.053 69.3592 263.744 67.3461C264.901 66.9738 265.102 60.8985 264.331 60.0335C262.609 58.0965 261.394 60.8945 261.485 62.3733C261.594 64.117 262.385 65.7031 263.326 67.1108C263.427 67.2599 263.398 67.2527 263.424 67.045C263.439 67.1476 263.473 67.2234 263.524 67.2783C263.475 68.1961 263.381 69.1358 263.426 69.948C263.556 72.2739 263.828 74.6133 264.221 76.9092C264.317 77.4676 264.426 78.0215 264.549 78.5705C263.619 77.7784 262.365 77.0746 261.874 76.8545C260.601 76.2839 258.638 75.6677 257.372 76.6345ZM321.437 157.377C321.378 158.188 321.232 158.931 320.958 159.544C321.163 158.846 321.32 158.122 321.437 157.377Z" fill="#F2F2F2"/>
<path opacity="0.2" fill-rule="evenodd" clip-rule="evenodd" d="M147.727 62.3861C149.008 61.7511 150.716 62.4875 150.004 64.1662C149.241 65.9638 146.419 65.986 144.826 65.9503C144.985 65.942 145.499 64.2936 145.675 64.0445C146.193 63.3097 146.94 62.7772 147.727 62.3861ZM132.976 95.1393C132.524 95.526 132.939 95.1755 132.976 95.1393V95.1393ZM149.216 70.732C149.982 71.3115 150.018 72.3354 149.392 73.0287C148.646 73.8542 147.285 73.8248 146.269 73.7449C145.81 73.7088 143.356 73.5155 143.937 73.1176C143.893 73.1344 143.799 73.175 143.699 73.2303C143.645 73.425 143.589 73.619 143.53 73.8121C143.544 73.8205 143.556 73.8294 143.572 73.8377C143.555 73.8305 143.543 73.8227 143.529 73.8153C142.938 75.7458 142.097 77.5841 140.996 79.304C141.407 79.1434 141.834 79.0218 142.266 78.9675C143.546 78.8066 146.239 79.7901 144.806 81.4783C143.432 83.0966 141.295 81.3622 139.737 81.1237C138.224 83.2128 136.557 85.2151 134.809 87.1506C134.916 87.1837 135.01 87.2528 135.064 87.3604C135.765 87.0081 136.495 86.5043 137.144 86.3677C138.079 86.1709 139.998 86.0508 140.705 86.8796C141.575 87.8987 140.642 88.7273 139.614 88.9234C138.123 89.2077 136.173 88.4879 134.739 88.0017C134.575 88.0304 134.396 87.983 134.289 87.8532C134.258 87.843 134.226 87.8329 134.195 87.8231C132.425 89.7491 130.588 91.6116 128.762 93.4333C128.781 93.4322 128.801 93.4311 128.821 93.43C129.297 93.1206 129.808 92.8667 130.362 92.7336C131.642 92.424 133.149 92.4217 134.188 93.3384C135.223 94.2512 135.588 95.8483 134.517 96.8744C132.372 98.9283 129.217 94.2493 128.135 94.0544C126.28 95.8863 124.317 97.5979 122.324 99.275C122.551 99.2067 122.783 99.1565 123.023 99.1338C124.976 98.9477 129.56 101.316 127.162 103.65C125.071 105.684 122.655 101.773 120.972 100.405C119.094 101.968 117.206 103.521 115.371 105.134C116.371 104.87 117.338 104.831 118.411 105.151C119.52 105.483 121.311 106.312 120.609 107.796C119.894 109.304 117.744 108.619 116.624 108.141C116.013 107.88 114.789 106.999 113.714 106.628C110.785 109.365 108.248 112.38 106.327 115.931C105.127 118.148 104.216 120.516 103.575 122.95C103.166 124.504 102.359 127.113 102.519 129.135C101.753 125.088 103.145 120.227 104.643 116.609C106.021 113.282 108.081 110.361 110.494 107.731C109.89 105.929 104.797 103.333 107.843 101.657C109.461 100.771 111.116 102.239 111.469 103.795C111.711 104.864 111.341 106.207 110.948 107.245C111.707 106.443 112.496 105.667 113.309 104.917C114.432 103.88 115.583 102.873 116.745 101.879C114.832 100.101 113.024 95.0154 115.59 94.1822C119.379 92.9553 117.551 99.8946 117.286 101.195C117.211 101.2 117.153 101.177 117.11 101.129C117.131 101.248 117.156 101.375 117.185 101.504C119.409 99.6112 121.665 97.7557 123.847 95.8179C123.65 95.6742 123.338 95.1251 123.093 94.8328C122.539 94.1739 122.009 93.4857 121.622 92.7148C121.011 91.4966 120.422 89.5533 122.044 88.8357C123.809 88.0539 124.646 90.2518 124.658 91.5632C124.666 92.4701 124.416 93.3318 124.285 94.2209C124.245 94.4981 124.4 95.7478 124.019 95.2104C124.037 95.4086 124.039 95.5522 124.03 95.654C124.422 95.3043 124.811 94.9509 125.197 94.5949C125.179 94.55 125.166 94.501 125.163 94.4442C125.143 94.0533 125.54 93.9025 125.819 94.0169C126.328 93.5374 126.833 93.0519 127.329 92.5568C128.379 91.5078 129.445 90.4288 130.504 89.3269C130.274 89.1319 130.366 88.8615 130.151 88.6544C129.937 88.4478 129.515 88.3336 129.263 88.1417C128.629 87.6587 128.104 86.9548 127.724 86.262C127.097 85.1173 126.288 82.7157 128.121 82.169C130.011 81.6047 130.969 83.9164 131.09 85.3619C131.113 85.642 130.9 88.1655 130.738 89.0819C132.696 87.0341 134.623 84.9095 136.368 82.748C135.839 82.7435 134.34 81.6716 134.037 81.379C133.298 80.6655 132.123 79.0886 133.42 78.2532C134.573 77.5122 135.994 78.5839 136.487 79.6258C136.567 79.7974 136.852 81.3946 136.874 82.1113C137.597 81.1947 138.286 80.2728 138.927 79.3478C139.355 78.7329 139.754 78.1018 140.128 77.4573C140.038 77.4068 139.954 77.3189 139.874 77.2095C137.951 76.8874 135.501 73.9187 137.76 72.8842C138.836 72.3922 140.002 73.4059 140.528 74.2361C140.636 74.4059 140.81 75.2599 140.952 75.9336C142.028 73.7984 142.85 71.5381 143.477 69.2207C143.309 69.1797 143.168 69.0531 143.149 68.8354C142.216 68.309 141.479 67.8707 140.828 66.8579C140.423 66.2288 139.695 64.7914 140.885 64.4415C142.433 63.9863 143.404 66.3266 143.53 67.4795C143.545 67.6133 143.544 68.0025 143.539 68.3593C143.593 68.352 143.647 68.3528 143.7 68.3621C144.057 66.9271 144.341 65.4737 144.568 64.018C143.723 63.7492 143.579 59.3562 144.142 58.7304C145.4 57.3292 146.286 59.352 146.219 60.4213C146.139 61.6822 145.561 62.8294 144.873 63.8477C144.799 63.9555 144.82 63.9502 144.801 63.8001C144.791 63.8743 144.766 63.9291 144.728 63.9688C144.764 64.6325 144.832 65.3119 144.799 65.8992C144.703 67.5811 144.504 69.2729 144.216 70.9332C144.146 71.337 144.065 71.7375 143.976 72.1346C144.655 71.5615 145.571 71.0521 145.929 70.8928C146.86 70.4797 148.293 70.0334 149.216 70.732ZM102.367 128.975C102.412 129.516 102.546 130.009 102.808 130.413C102.615 129.951 102.471 129.47 102.367 128.975Z" fill="#C1DEE2"/>
<g opacity="0.7">
<path fill-rule="evenodd" clip-rule="evenodd" d="M287.833 166.081C292.815 165.822 298.975 168.729 299.507 174.141C299.893 178.074 299.773 181.995 300.371 185.921C300.848 189.06 301.859 192.072 303.237 194.931C304.562 197.679 307.31 200.019 308.025 202.956C308.481 204.827 308.226 207.459 307.597 209.289C306.833 211.515 307.239 211.339 308.762 213.206C311.746 216.865 314.432 220.618 316.332 224.988C319.069 231.283 320.863 238.641 319.847 245.531C319.718 246.406 319.565 249.546 318.36 249.766C317.013 250.011 317.643 248.215 317.715 247.635C318.173 243.934 318.58 240.698 318.027 236.939C315.895 222.435 305.485 212.878 298.707 200.568C298.334 199.933 297.548 198.421 297.001 197.424C296.137 195.849 295.269 192.853 294.1 191.686C291.899 189.486 293.923 193.908 294.352 194.752C294.894 195.82 295.491 196.955 296.046 197.89C298.59 202.227 301.428 206.962 304.055 211.432C292.695 214.019 284.695 200.369 281.647 191.394C279.135 184 276.13 166.713 287.833 166.081Z" fill="#69A1AC"/>
<path fill-rule="evenodd" clip-rule="evenodd" d="M354.598 152.35C346.271 153.01 340.925 158.503 338.436 166.185C337.095 170.325 336.941 174.578 336.196 178.832C335.075 185.233 332.662 190.084 327.948 194.644C326.487 196.056 325.411 197.506 324.646 199.058C323.128 200.607 321.806 202.36 320.835 204.503C319.594 207.239 319.243 210.523 320.675 213.252C321.06 213.985 322.021 215.458 323.017 216.127C319.289 224.063 317.239 232.754 317.47 241.435C317.61 246.675 317.866 251.917 318.164 257.15C318.245 258.556 318.703 260.876 319.39 258.519C320.02 256.364 319.23 252.98 319.157 250.728C318.802 239.757 318.498 229.782 323.016 219.532C323.49 218.458 323.992 217.392 324.515 216.335C324.546 216.318 324.575 216.296 324.604 216.275C324.623 216.291 324.642 216.307 324.662 216.322C324.695 216.263 324.741 216.192 324.794 216.113C324.944 215.958 325.075 215.762 325.2 215.544C325.6 214.989 326.054 214.337 326.056 213.98C326.056 213.977 326.055 213.973 326.055 213.97C328.852 209.406 332.055 205.094 335.328 200.866C335.303 200.897 338.877 196.033 338.324 198.723C338.058 200.019 335.429 202.488 334.367 203.861C332.019 206.915 329.261 210.786 326.969 214.528C326.661 214.705 326.225 215.575 325.91 216.223C325.736 216.551 325.573 216.882 325.414 217.171C333.535 219.852 339.852 214.45 344.159 208.167C344.164 208.16 344.169 208.152 344.174 208.145C345.485 206.408 346.828 204.684 348.505 203.312C351.304 201.022 354.301 200.618 357.601 199.491C366.6 196.417 370.426 184.76 371.641 176.11C373.012 166.352 366.306 151.388 354.598 152.35Z" fill="#89C5CC"/>
<path fill-rule="evenodd" clip-rule="evenodd" d="M338.148 125.022C329.602 133.914 325.473 146.246 322.203 157.839C318.552 170.788 316.14 183.936 316.047 197.399C315.987 206.244 315.746 215.144 316.262 223.979C316.446 227.117 316.759 230.26 317.256 233.364C317.297 233.619 318.41 240.549 319.475 238.934C320.081 238.016 318.334 231.745 318.202 230.7C317.46 224.818 317.287 218.891 317.324 212.966C317.383 203.21 317.095 193.504 318.085 183.783C318.232 182.332 318.349 180.808 318.694 179.388C319.06 177.879 318.593 178.538 319.786 177.94C320.945 177.359 322.377 177.442 323.58 176.713C328.349 173.822 330.789 166.396 332.688 161.524C334.86 155.952 336.181 150.01 337.235 144.147C338.009 139.839 338.563 135.557 338.876 131.193C338.975 129.818 338.98 128.38 339.251 127.027C339.324 126.663 339.689 126.017 339.676 125.694C339.648 125.011 339.235 124.609 339.201 124.034C338.843 124.356 338.492 124.686 338.148 125.022Z" fill="#89C5CC"/>
<path fill-rule="evenodd" clip-rule="evenodd" d="M291.547 243.482C291.547 258.186 303.472 270.106 318.182 270.106C332.893 270.106 344.818 258.186 344.818 243.482" fill="#89C5CC"/>
<path fill-rule="evenodd" clip-rule="evenodd" d="M320.319 243.567H318.912C319.01 241.802 319.139 240.04 319.434 238.295C320.563 231.62 324.093 221.816 331.836 220.732C332.121 220.692 333.172 220.685 334.445 220.76C335.048 220.423 335.724 220.219 336.436 220.172C343.028 219.686 350.389 225.002 353.569 230.534C356.133 234.994 355.701 240.851 354.117 245.59C353.057 248.762 350.743 253.285 346.884 253.329C342.057 253.384 341.824 247.42 341.73 243.933C341.606 239.298 341.02 235.259 337.366 232.1C336.514 231.364 335.583 230.716 334.723 229.99C333.376 228.854 331.887 227.691 331.714 225.811C331.474 223.218 332.939 222.751 335.175 223.233C335.556 223.315 339.395 225.037 338.827 223.676C338.653 223.26 338.019 222.931 337.219 222.684C335.149 222.459 332.68 222.198 331.97 222.353C324.309 224.033 321.326 234.64 320.534 241.379C320.449 242.106 320.38 242.836 320.319 243.567V243.567Z" fill="#69A1AC"/>
</g>
<g opacity="0.5">
<path fill-rule="evenodd" clip-rule="evenodd" d="M83.0271 117.456C84.5603 115.271 87.4057 109.721 89.5638 108.94C90.9537 108.437 90.5485 113.64 90.5656 114.632C90.6325 118.47 90.2587 122.284 89.797 126.089C88.9654 132.953 86.2459 139.066 82.5159 144.908C80.5965 147.914 78.3453 150.956 75.2272 152.832C73.7919 153.696 72.0649 153.84 70.6475 154.584C68.9967 155.451 69.8957 154.75 69.1518 156.47C68.1186 158.857 67.7882 161.937 67.3102 164.484C65.1153 176.178 59.8017 237.992 60.7229 249.886C60.8047 250.94 59.334 251.192 59.2606 249.905C58.8704 243.081 62.2471 195.823 63.9507 180.369C65.6543 164.914 67.3782 151.261 69.1069 145.914C71.2039 139.427 74.9914 131.626 78.1441 125.577C79.6086 122.767 81.2048 120.053 83.0271 117.456Z" fill="#69A1AC"/>
<path fill-rule="evenodd" clip-rule="evenodd" d="M94.4081 193.254C98.3979 190.326 102.717 195.852 99.1062 198.78C97.1103 200.399 95.0237 199.823 93.849 198.474C93.0865 199.404 92.3727 200.375 91.6869 201.196C89.5974 203.696 87.6226 206.256 85.7352 208.876C81.8144 214.318 78.4543 220.068 74.9412 225.713C71.4741 231.284 68.0348 236.884 64.8923 242.596C62.2302 247.436 58.6819 253.13 57.7705 258.435C59.1534 247.183 64.4008 236.367 70.6495 226.447C76.8474 216.609 83.9602 205.864 93.5568 198.1C92.5801 196.664 92.553 194.615 94.4081 193.254Z" fill="#C1DEE2"/>
<path fill-rule="evenodd" clip-rule="evenodd" d="M18.6981 165.811C20.9308 166.248 24.579 171.296 26.4194 173.22C28.6066 175.506 30.5909 177.942 32.4614 180.495C36.4881 185.989 40.0893 191.831 43.1516 197.923C48.1438 207.855 52.1433 218.049 55.0459 228.864C56.8226 235.484 57.973 242.346 58.6548 249.159C58.7836 250.444 60.1314 260.351 58.1893 260.618C56.4426 260.858 56.982 253.095 56.8978 252.039C55.9452 240.126 53.0917 228.535 49.1224 217.306C48.2579 214.86 47.4547 211.864 46.072 209.663C45.0763 208.077 46.0649 208.63 44.3151 208.03C42.8126 207.514 41.1007 207.64 39.5622 207.009C36.2198 205.639 33.5435 202.979 31.1975 200.304C26.6385 195.105 23.0256 189.48 21.1424 182.817C20.0978 179.123 19.1378 175.408 18.605 171.599C18.4672 170.615 17.26 165.53 18.6981 165.811Z" fill="#69A1AC"/>
<path fill-rule="evenodd" clip-rule="evenodd" d="M27.5089 81.8141C35.919 96.3929 42.8301 112.407 47.2926 128.628C49.9964 138.455 51.8872 148.54 53.7659 158.552C56.6747 174.054 59.4261 189.555 60.2087 205.332C60.9961 221.201 62.5531 239.504 57.3547 254.788C59.9513 239.271 57.4791 222.753 57.0414 207.139C56.8322 199.685 56.2261 192.305 55.4309 184.894C54.6593 177.706 53.3986 170.552 52.2247 163.42C51.6529 159.946 51.0523 156.478 50.4408 153.012C50.2583 151.978 50.1812 148.909 49.5249 148.203C48.8643 147.492 45.4942 147.202 44.4361 146.68C42.3055 145.629 40.3014 144.136 38.5277 142.559C35.1275 139.535 32.1694 135.585 29.8347 131.69C24.4329 122.679 22.2732 111.681 22.3823 101.245C22.4033 99.2186 25.6634 77.3989 24.3541 77.0984C24.433 77.0061 24.5075 76.9108 24.5778 76.8117C25.5691 78.4707 26.5418 80.1409 27.5089 81.8141Z" fill="#89C5CC"/>
<path fill-rule="evenodd" clip-rule="evenodd" d="M118.282 134.394C118.412 134.207 119.256 132.906 118.831 132.989C119.697 132.82 117.64 134.424 119.797 133.44C118.773 134.407 119.364 135.663 119.378 136.965C119.4 139.078 119.046 141.174 118.648 143.242C118.019 146.51 117.082 149.688 115.721 152.729C112.756 159.354 107.721 165.732 101.743 169.874C98.7923 171.919 95.9002 172.616 92.5346 173.557C90.4087 174.152 90.2401 175.251 89.1117 177.313C86.7625 181.608 84.455 185.887 82.3832 190.327C79.9092 195.628 77.5077 200.936 75.2423 206.33C67.6106 224.502 61.3991 243.328 58.137 262.812C58.0571 251.33 60.7144 239.505 64.0662 228.562C66.5078 220.588 69.6863 212.902 73.0764 205.294C73.898 203.451 75.1429 201.08 75.4917 199.045C75.736 197.619 74.9892 196.248 74.6472 194.746C73.3142 188.897 73.4096 182.344 74.5802 176.464C75.8709 169.98 79.6036 166.97 85.9179 166.052C88.2272 165.716 91.1623 165.839 93.2798 164.855C95.5868 163.783 96.5385 160.26 97.8503 157.999C101.374 151.924 105.56 146.098 110.367 140.98C111.699 139.563 113.13 138.255 114.649 137.043C115.606 136.278 117.629 135.336 118.282 134.394Z" fill="#89C5CC"/>
<path fill-rule="evenodd" clip-rule="evenodd" d="M47.4779 250.412H69.8868C70.8944 250.412 71.7111 251.228 71.7111 252.235C71.7111 252.324 71.7046 252.413 71.6916 252.501L69.9596 264.241C69.4316 267.819 66.3594 270.471 62.7404 270.471H54.6243C51.0053 270.471 47.9331 267.819 47.4051 264.241L45.6731 252.501C45.5261 251.505 46.215 250.578 47.2117 250.431C47.2998 250.418 47.3888 250.412 47.4779 250.412Z" fill="#C1DEE2"/>
</g>
<path fill-rule="evenodd" clip-rule="evenodd" d="M80.3008 256.413C80.3008 264.177 80.9137 270.471 89.1407 270.471C97.3676 270.471 97.9806 264.177 97.9806 256.413" fill="#F2F2F2"/>
<path fill-rule="evenodd" clip-rule="evenodd" d="M91.588 251.569C91.2865 252.091 91.0176 252.622 90.7801 253.162C90.7717 252.05 90.8332 250.931 91.001 249.796C91.288 247.853 91.7262 245.919 92.1381 243.989C92.434 242.601 92.4153 240.109 93.5386 239.004C93.8466 238.765 93.9208 239.234 93.9208 239.437C93.9246 239.48 93.9199 238.607 93.6209 238.759C91.8438 239.676 91.268 242.561 90.699 244.005C89.8689 246.114 89.1626 248.269 88.8718 250.462C88.7983 251.016 88.7583 251.57 88.7491 252.123C88.6887 251.975 88.632 251.826 88.5692 251.679C87.5435 249.274 86.1593 246.928 84.4329 244.764C84.008 244.232 78.6648 238.978 78.2465 239.782C78.2878 239.899 78.3742 239.996 78.5059 240.073C78.5137 240.082 78.5139 240.077 78.5094 240.064C78.8232 240.57 79.7154 241.353 79.9933 241.797C80.6927 242.914 81.2363 244.1 81.7887 245.263C82.9558 247.721 84.0385 250.203 85.088 252.691C85.3324 253.271 85.5871 253.847 85.847 254.421C83.1682 250.559 79.5946 247.053 74.6753 245.046C76.3555 245.9 77.457 247.508 78.5917 248.739C79.9602 250.223 81.4016 251.668 82.7727 253.151C84.3899 254.9 86.2928 256.742 87.8483 258.678C89.355 261.84 90.8192 265.005 91.723 268.329C91.3527 267.181 91.694 265.594 91.6306 264.389C91.5803 263.429 91.4681 262.478 91.3144 261.528C91.5044 261.956 91.6682 262.385 91.7424 262.784C91.6746 262.115 91.5966 261.451 91.5128 260.79C91.728 260.171 91.9392 259.593 92.082 259.117C92.8134 256.677 93.6843 254.279 94.8704 251.941C95.9678 249.778 97.2267 247.644 98.5985 245.574C99.2384 244.609 99.8871 243.647 100.532 242.684C100.954 242.054 101.355 241.044 101.943 240.44C98.1456 243.91 93.9971 247.406 91.588 251.569Z" fill="#F2F2F2"/>
<path fill-rule="evenodd" clip-rule="evenodd" d="M365.312 93.1605C364.224 89.5313 361.668 86.6907 359.015 84.088C353.85 79.0212 351.073 75.8884 349.232 68.4766C348.15 64.1176 347.048 59.4983 343.614 56.3358C341.114 54.0327 336.812 52.0978 333.468 53.7469C328.325 56.8156 326.944 63.1129 327.462 68.7518C328.105 75.7408 331.371 80.0502 337.646 82.6244C341.181 84.0743 343.531 85.9872 345.45 89.3206C346.986 91.9861 347.881 95.3238 349.81 97.7402C352.694 101.352 356.303 102.958 360.751 102.358C356.585 94.695 351.716 86.96 345.844 80.5081C345.295 79.8595 342.053 77.3768 342.707 76.2713C343.427 75.0541 346.755 79.6264 346.732 79.5988C348.438 81.5567 350.017 83.6373 351.568 85.7379C351.564 85.7399 351.559 85.741 351.555 85.7432C353.151 87.8987 354.735 90.0859 356.289 92.3005C356.917 93.2373 357.528 94.1861 358.114 95.1586C358.973 96.5857 360.336 100.636 361.742 101.514C362.043 101.701 362.321 101.806 362.581 101.849C363.54 103.419 364.474 105.002 365.361 106.603C367.679 110.784 369.669 115.2 370.582 119.921C370.848 121.299 370.66 126.453 371.601 127.448C373.321 129.268 372.817 125.764 372.714 124.706C371.86 115.948 368.714 108.487 364.147 101.124C365.55 99.2928 365.753 94.631 365.312 93.1605Z" fill="#F2F2F2"/>
<path fill-rule="evenodd" clip-rule="evenodd" d="M306.386 97.3921C308.199 95.2559 312.56 94.8935 315.226 95.0365C318.526 95.2134 321.915 96.0163 325.055 96.9872C330.226 98.5863 335.251 101.505 339.806 104.329C340.355 104.669 347.117 108.734 346.518 109.448C345.925 110.154 339.287 105.326 337.807 104.494C334.65 102.717 331.755 100.617 328.275 99.4437C324.672 98.2289 320.861 97.7479 317.072 97.781C316.586 97.7854 315 97.4465 314.966 98.1656C314.932 98.8689 317.557 98.5019 318.019 98.5061C319.931 98.5237 321.854 98.7035 323.739 99.0347C327.269 99.655 330.589 100.905 333.613 102.821C332.769 104.782 330.746 105.687 328.624 105.196C326.791 104.772 325.003 103.725 323.207 103.423C321.97 103.215 320.732 103.339 319.533 103.687C316.37 104.606 314.545 106.488 311.067 105.179C308.341 104.152 303.781 100.464 306.386 97.3921Z" fill="#F2F2F2"/>
<path fill-rule="evenodd" clip-rule="evenodd" d="M308.437 77.1765H309.295C309.235 76.088 309.157 75.0012 308.973 73.9249C308.283 69.8905 306.126 63.965 301.396 63.3101C301.221 63.2857 300.579 63.2816 299.802 63.3267C299.433 63.1231 299.02 63 298.585 62.9716C294.558 62.678 290.06 65.8909 288.118 69.2344C286.552 71.9301 286.815 75.4699 287.783 78.3338C288.43 80.2512 289.844 82.9849 292.202 83.0115C295.151 83.0449 295.293 79.44 295.351 77.3327C295.426 74.531 295.784 72.0903 298.017 70.1806C298.537 69.7357 299.106 69.3443 299.632 68.9055C300.455 68.2189 301.364 67.5158 301.47 66.3797C301.616 64.8124 300.722 64.5304 299.356 64.8216C299.123 64.8711 296.777 65.9119 297.124 65.0893C297.231 64.838 297.618 64.6388 298.107 64.4896C299.372 64.3536 300.88 64.1958 301.314 64.2901C305.994 65.3054 307.816 71.716 308.3 75.789C308.355 76.2502 308.399 76.713 308.437 77.1765H308.437Z" fill="#F2F2F2"/>
<line x1="42" y1="269.5" x2="359" y2="269.5" stroke="#EDF2F4"/>
<path d="M279.925 0.856509C279.918 0.860025 279.914 0.863527 279.907 0.867044C222.703 30.3464 152.94 33.5347 93.287 9.39555C93.1743 9.35009 93.0842 9.2617 93.0366 9.14981C92.989 9.03792 92.9878 8.91172 93.0333 8.79895C93.0787 8.68618 93.1671 8.59609 93.279 8.5485C93.3909 8.50091 93.5171 8.49971 93.6299 8.54517C153.039 32.5852 222.516 29.4093 279.486 0.0471375C279.592 -0.00516606 279.715 -0.0143279 279.828 0.0215792C279.941 0.0574862 280.036 0.135689 280.092 0.239818C280.149 0.343946 280.163 0.46594 280.132 0.580321C280.101 0.694703 280.027 0.792617 279.925 0.853576V0.856509Z" fill="#F4E5D9"/>
<path d="M104.209 13.0708C104.208 23.9246 105.946 34.7083 109.359 45.0117C113.75 36.0811 118.139 27.15 122.824 17.6879C122.101 18.6265 121.163 19.3774 120.089 19.8772C119.015 20.377 117.836 20.6111 116.652 20.5596C114.279 20.4279 111.995 19.604 110.084 18.1896C108.144 16.8416 106.489 15.1344 104.209 13.0708Z" fill="#F4E5D9"/>
<path d="M135.9 20.9547C137.516 32.1608 141.065 43.0013 146.391 52.9928C150.821 43.5782 155.251 34.1635 159.772 23.9823C156.626 26.7222 152.095 27.4512 147.985 26.748C143.876 26.0447 140.1 24.0679 135.9 20.9547Z" fill="#F4E5D9"/>
<path d="M174.991 24.9505C180.476 36.776 187.478 47.8365 195.82 57.8525C198.308 46.8237 199.436 35.532 199.182 24.229C196.103 27.347 191.918 29.1241 187.537 29.1743C183.209 29.2012 178.898 27.4337 174.991 24.9505Z" fill="#F4E5D9"/>
<path d="M220.087 21.5056C224.899 31.0363 230.932 39.9001 238.032 47.8735C240.067 37.5348 240.546 26.9501 239.452 16.47C236.744 18.7317 233.741 20.7384 230.357 21.7236C226.989 22.6853 223.41 22.6093 220.087 21.5056V21.5056Z" fill="#F4E5D9"/>
<path d="M254.396 11.421C260.73 20.828 268.304 29.3382 276.912 36.7217C277.991 25.4949 277.377 14.1058 274.167 2.99741C272.498 6.50471 269.613 9.28681 266.047 10.8267C262.339 12.3254 258.236 12.5347 254.396 11.421V11.421Z" fill="#F4E5D9"/>
<path d="M174.321 128.408C178.821 135.318 184.259 141.912 187.724 149.396C191.189 156.879 192.838 165.655 189.961 173.382C189.628 174.276 189.111 175.257 188.179 175.465C187.219 175.679 186.315 174.957 185.64 174.241C180.483 168.779 178.658 161.044 177.275 153.658C175.708 145.3 174.151 136.782 174.321 128.408Z" fill="#FAAB42"/>
<path d="M175.088 132.383C177.796 136.4 179.608 140.953 180.402 145.731C181.196 150.51 180.953 155.404 179.691 160.08C175.412 151.519 173.809 141.868 175.088 132.383V132.383Z" fill="#EE9B36"/>
<path d="M305.09 181.586C305.022 181.586 304.954 181.569 304.895 181.535C304.835 181.501 304.786 181.453 304.75 181.394C304.715 181.336 304.695 181.269 304.693 181.201C304.691 181.133 304.707 181.065 304.738 181.004C314.302 162.764 322.02 143.614 327.778 123.84C327.79 123.788 327.813 123.738 327.845 123.695C327.877 123.651 327.918 123.615 327.965 123.588C328.011 123.561 328.063 123.543 328.116 123.537C328.17 123.53 328.224 123.534 328.276 123.55C328.328 123.565 328.376 123.59 328.418 123.624C328.459 123.659 328.493 123.701 328.518 123.749C328.543 123.797 328.557 123.85 328.561 123.903C328.565 123.957 328.558 124.011 328.54 124.062C322.767 143.887 315.029 163.086 305.44 181.373C305.407 181.437 305.356 181.491 305.295 181.529C305.233 181.566 305.162 181.586 305.09 181.586Z" fill="black"/>
<path d="M245.991 269.168H191.44C189.647 252.541 188.392 225.382 188.545 208.703C194.295 206.955 200.29 206.15 206.297 206.317C206.725 206.329 207.147 206.341 207.575 206.364C208.002 206.388 208.424 206.405 208.846 206.434C209.245 206.458 209.649 206.493 210.048 206.528C210.352 206.552 210.657 206.581 210.962 206.616C211.185 206.634 211.402 206.657 211.624 206.686C211.929 206.716 212.228 206.751 212.533 206.792C212.779 206.821 213.025 206.856 213.271 206.892C213.599 206.938 213.927 206.985 214.256 207.038C214.994 207.149 215.733 207.278 216.471 207.425C216.893 207.507 217.309 207.589 217.731 207.683C219.032 207.958 220.327 208.281 221.617 208.65C221.857 208.714 222.097 208.785 222.332 208.855C222.366 208.861 222.399 208.871 222.431 208.884C222.59 208.925 222.742 208.972 222.894 209.025C224.084 209.382 225.266 209.781 226.44 210.22C226.827 210.367 227.214 210.514 227.601 210.666C227.999 210.818 228.398 210.982 228.802 211.152C229.195 211.316 229.593 211.486 229.986 211.662C230.32 211.809 230.648 211.955 230.97 212.108C231.715 212.448 232.453 212.811 233.186 213.186C233.403 213.297 233.625 213.409 233.848 213.532C233.965 213.59 234.077 213.649 234.194 213.713C234.452 213.848 234.71 213.989 234.967 214.135C236.608 215.044 238.206 216.028 239.762 217.089C239.978 217.236 240.195 217.388 240.412 217.541C240.676 217.728 240.945 217.916 241.203 218.103C241.555 218.361 241.901 218.619 242.246 218.883C242.54 219.105 242.833 219.328 243.12 219.562C243.512 219.867 243.899 220.184 244.28 220.5C244.268 220.5 244.263 220.518 244.257 220.553C244.244 220.601 244.236 220.65 244.233 220.699C244.226 220.738 244.222 220.777 244.222 220.817C244.222 220.846 244.221 220.876 244.216 220.905C244.211 220.94 244.209 220.975 244.21 221.01C244.028 225.663 245.611 260.81 245.991 269.168Z" fill="#BA4D47"/>
<path d="M244.279 220.501C238.34 215.583 231.525 211.829 224.194 209.438C215.085 207.351 205.667 206.987 196.424 208.363C193.904 208.745 191.013 209.594 188.543 209.557C188.543 209.881 188.543 210.206 188.543 210.531C195.819 217.278 204.523 222.58 214.084 225.195C223.962 227.891 234.766 227.598 244.197 223.626C244.161 221.707 244.18 220.519 244.279 220.501Z" fill="#9B3737"/>
<path d="M241.404 218.267C240.898 217.896 240.392 217.528 239.875 217.172C239.597 216.981 239.313 216.8 239.032 216.613C238.541 216.289 238.048 215.969 237.548 215.658C237.255 215.476 236.962 215.303 236.669 215.127C236.164 214.825 235.655 214.528 235.141 214.241C234.851 214.08 234.56 213.92 234.266 213.763C233.731 213.477 233.192 213.198 232.65 212.925C232.372 212.786 232.094 212.648 231.815 212.515C231.235 212.236 230.651 211.967 230.063 211.707C229.813 211.596 229.564 211.483 229.313 211.376C228.663 211.097 228.007 210.834 227.348 210.577C227.153 210.501 226.959 210.421 226.762 210.346C225.972 210.049 225.177 209.768 224.378 209.502C224.313 209.48 224.249 209.455 224.184 209.433C218.321 208.102 212.321 207.472 206.309 207.558C206.358 211.315 206.496 216.684 206.863 222.654C209.207 223.67 211.62 224.52 214.084 225.198C223.957 227.893 234.755 227.6 244.183 223.634C244.18 223.155 244.179 222.728 244.183 222.349C244.152 221.748 244.177 221.145 244.257 220.548C244.264 220.521 244.272 220.505 244.281 220.504C243.575 219.915 242.855 219.344 242.121 218.791C241.884 218.609 241.642 218.441 241.404 218.267Z" fill="#A9413D"/>
<path d="M214.273 269.168H207.393C198.883 253.039 197.998 229.784 205.16 213.18C205.611 213.854 206.056 214.54 206.502 215.237C206.572 215.343 206.643 215.454 206.713 215.565C207.012 232.163 210.147 252.043 214.197 268.845C214.22 268.951 214.25 269.062 214.273 269.168Z" fill="#9B3737"/>
<path d="M244.279 220.501C241.946 218.559 239.469 216.799 236.867 215.236C235.062 216.21 233.249 217.283 231.143 217.586C231.809 221.648 233.371 225.511 235.717 228.894C238.062 232.277 241.131 235.095 244.701 237.144C244.321 228.797 244.015 220.55 244.279 220.501Z" fill="#721F1F"/>
<path d="M194.839 209.319C194.795 208.619 194.676 207.926 194.482 207.252C192.472 207.626 189.998 207.047 188.05 207.648C188.008 212.252 188.563 217.912 188.708 222.507C190.718 220.966 192.325 218.962 193.393 216.666C194.46 214.369 194.957 211.848 194.839 209.319V209.319Z" fill="#721F1F"/>
<path d="M155.982 223.091C155.092 232.128 156.217 259.333 156.393 269.168H130.617C129.433 256.731 128.355 231.471 128.156 216.298V216.058C128.156 215.806 128.15 215.566 128.144 215.325C128.138 215.085 128.138 214.845 128.138 214.604C128.132 214.065 128.132 213.526 128.132 212.993C128.132 212.459 128.126 211.914 128.126 211.375C131.948 208.902 137.07 207.202 141.887 206.311C155.463 203.833 169.471 205.514 182.074 211.135C182.074 211.158 182.074 211.27 182.08 211.463C182.092 211.715 182.104 212.114 182.127 212.641C182.467 221.655 184.489 268.078 184.536 269.168H159.282C158.409 259.433 156.82 232.047 155.982 223.091Z" fill="#3541A5"/>
<path d="M141.889 206.313C137.068 207.205 131.947 208.9 128.125 211.373C128.125 213.014 128.133 214.655 128.148 216.296C134.139 219.173 143.516 222.015 155.72 221.043C168.626 220.015 177.176 215.982 182.111 212.745C182.084 211.776 182.069 211.192 182.074 211.138C169.472 205.515 155.464 203.833 141.889 206.313V206.313Z" fill="#CE7B20"/>
<path d="M306.127 179.488C301.791 181.041 297.655 183.103 293.803 185.63C293.623 188.155 293.685 190.691 293.988 193.203C298.488 194.382 303.186 194.59 307.772 193.814C308.871 192.863 309.723 191.66 310.254 190.307C310.785 188.954 310.979 187.493 310.82 186.048C310.478 183.175 308.615 180.524 306.127 179.488Z" fill="#E8B7A3"/>
<path d="M293.988 193.205C295.276 193.537 296.582 193.791 297.9 193.967C299.215 192.479 299.948 190.566 299.962 188.58C299.975 186.594 299.27 184.67 297.975 183.164C296.569 183.93 295.171 184.735 293.803 185.632C293.623 188.157 293.685 190.693 293.988 193.205Z" fill="#E4AA91"/>
<path d="M231.132 102.596C230.34 102.867 229.497 102.953 228.667 102.845C227.837 102.738 227.043 102.44 226.346 101.976C225.665 101.558 225.164 100.901 224.943 100.133C224.658 98.8828 225.518 97.5976 226.639 96.9734C227.805 96.4306 229.074 96.1436 230.361 96.1318C229.731 94.7172 229.613 93.1276 230.027 91.6355C230.441 90.1434 231.361 88.8418 232.629 87.9537C233.898 87.0656 235.436 86.6465 236.979 86.768C238.523 86.8896 239.976 87.5444 241.09 88.6201C245.035 87.4556 249.218 87.3583 253.213 88.3382C257.215 89.3386 260.778 91.6276 263.351 94.8524C267.682 100.432 268.122 108.152 266.969 115.123C265.816 122.094 263.272 128.788 262.027 136.291C264.223 135.935 266.469 135.58 268.665 135.944C270.861 136.307 273.041 137.515 273.984 139.532C274.921 141.536 274.46 143.977 273.319 145.872C272.177 147.767 270.436 149.218 268.689 150.579C272.017 148.449 276.948 150.073 278.824 153.552C280.699 157.031 279.677 161.646 276.886 164.443C274.095 167.239 269.868 168.311 265.692 167.842C246.591 163.336 227.816 156.63 211.347 145.955C209.564 144.8 207.732 143.511 206.811 141.596C205.429 138.729 206.451 135.339 207.489 132.331C207.877 130.975 208.478 129.689 209.269 128.522C209.67 127.941 210.202 127.463 210.821 127.124C211.44 126.786 212.13 126.598 212.835 126.574C214.241 126.615 215.629 127.797 215.568 129.204C218.561 124.416 223.164 120.853 228.55 119.157C228.979 114.368 229.876 109.632 231.226 105.017C231.517 104.028 231.825 102.958 231.132 102.596Z" fill="#2D3039"/>
<path d="M261.944 151.354C266.078 162.372 270.212 173.39 274.345 184.408L294.247 184.958C294.247 184.958 295.09 193.679 295.126 193.617C288.913 197.032 282.558 200.499 275.573 201.692C268.588 202.885 260.734 201.403 255.958 196.17C253.242 193.193 251.758 189.313 250.875 185.855C250.965 179.487 251.065 173.058 252.532 166.859C254 160.66 256.968 154.623 261.944 151.354Z" fill="#3541A5"/>
<path d="M257.191 171.64C254.574 176.193 252.475 181.025 250.933 186.045C251.821 189.452 253.296 193.244 255.963 196.168C257.721 198.061 259.885 199.532 262.292 200.471C262.376 200.288 262.463 200.104 262.543 199.92C264.961 194.128 265.933 187.834 265.374 181.582C264.816 175.33 262.743 169.308 259.336 164.036C260.113 167.359 258.369 169.595 257.191 171.64Z" fill="#3541A5"/>
<path d="M227.685 119.4C225.01 123.565 223.296 128.273 222.666 133.183C222.446 134.912 222.416 136.84 223.514 138.196C224.444 139.344 225.963 139.802 227.386 140.2C232.523 141.636 237.661 143.072 242.799 144.507C244.177 144.893 245.662 145.274 247.007 144.786C248.551 144.226 249.48 142.676 250.219 141.211C252.433 136.807 254.07 132.136 255.091 127.314C255.518 125.299 255.803 123.072 254.771 121.289C253.442 118.987 250.483 118.312 247.855 117.945C243.624 117.352 239.365 116.977 235.095 116.822C231.989 116.708 229.136 117.146 227.685 119.4Z" fill="#1A1D23"/>
<path d="M196.901 132.247C196.036 127.096 195.955 121.815 195.418 117.097C199.345 115.518 203.375 114.758 207.452 115.882C206.537 118.513 206.035 121.655 205.12 124.287C206.747 121.158 208.578 117.825 211.763 116.309C209.062 121.115 206.362 125.921 203.663 130.726C203.322 131.452 202.821 132.09 202.198 132.594C200.658 133.655 198.57 132.825 196.901 132.247Z" fill="#F1C1A9"/>
<path d="M196.493 129.325C196.61 130.3 196.737 131.275 196.903 132.247C197.748 132.571 198.618 132.827 199.503 133.014C200.404 132.962 201.299 132.826 202.175 132.608C202.184 132.604 202.194 132.599 202.203 132.593C202.827 132.09 203.328 131.451 203.668 130.726L205.76 127.001C204.139 126.732 202.479 126.799 200.885 127.199C199.291 127.598 197.796 128.322 196.493 129.325V129.325Z" fill="#E4AA91"/>
<path d="M146.28 118.833C134.659 121.039 124.079 128.272 118.237 138.009C117.673 162.703 124.473 186.166 124.473 215.916C144.65 216.887 165.524 214.693 185.567 212.227C184.108 184.946 180.961 154.856 174.321 128.408C166.512 122.055 156.052 116.98 146.28 118.833Z" fill="#FAAB42"/>
<path d="M153.665 132.538C156.445 132.069 159.1 131.037 161.467 129.506C163.834 127.975 165.863 125.976 167.431 123.633C160.874 119.816 153.397 117.484 146.28 118.833C141.85 119.686 137.582 121.234 133.636 123.421C137.865 129.888 145.991 133.693 153.665 132.538Z" fill="#EE9B36"/>
<path d="M179.646 154.515C166.184 155.098 152.72 155.682 139.256 156.268C136.112 156.405 132.762 156.609 130.218 158.468C128.146 159.982 126.924 162.377 125.923 164.739C123.933 169.438 122.514 174.358 121.695 179.394C121.834 180.477 121.965 181.571 122.1 182.663C122.471 182.832 122.884 182.884 123.285 182.81C127.325 182.273 131.182 180.793 134.543 178.488C137.905 176.183 140.676 173.12 142.633 169.545C146.491 171.133 150.663 171.815 154.826 171.536C158.989 171.257 163.032 170.025 166.643 167.936C166.408 170.761 166.96 173.595 168.238 176.125C169.515 178.655 171.469 180.782 173.881 182.27C176.776 183.953 180.147 184.633 183.468 184.204C182.497 174.292 181.251 164.308 179.646 154.515Z" fill="#EE9B36"/>
<path d="M235.755 124.605C235.276 126.632 234.795 128.655 234.433 130.415C224.759 129.694 215.078 131.706 206.492 136.221C197.402 159.026 190.068 182.491 184.555 206.413C203.58 215.897 224.523 220.9 245.78 221.041C245.78 221.041 262.401 154.861 262.958 155.154C263.047 150.193 260.412 145.492 256.875 142.012C253.338 138.532 248.938 136.078 244.596 133.67C244.596 133.67 247.247 119.581 247.399 119.634C245.944 118.867 244.31 118.506 242.668 118.588C241.025 118.67 239.435 119.191 238.064 120.099C236.697 121.03 236.202 122.718 235.755 124.605Z" fill="#3541A5"/>
<path d="M256.874 142.01C253.336 138.529 248.938 136.078 244.597 133.67C244.597 133.67 246.238 125.196 246.707 122.736C243.354 121.707 239.01 123.213 235.116 127.323C234.866 128.402 234.631 129.45 234.431 130.415C229.024 129.982 223.582 130.434 218.32 131.755C219.267 136.267 221.442 140.43 224.607 143.783C227.771 147.135 231.801 149.548 236.251 150.754C244.26 152.791 253.207 150.318 259.19 144.654C258.484 143.717 257.71 142.833 256.874 142.01V142.01Z" fill="#3541A5"/>
<path d="M205.248 214.72C210.776 216.446 216.406 217.827 222.106 218.855C231.991 192.631 240.286 165.835 246.946 138.613C247.264 137.522 247.425 136.392 247.423 135.257C246.485 134.72 245.541 134.193 244.597 133.67C244.597 133.67 244.789 132.646 245.074 131.157C244.004 130.387 242.805 129.815 241.533 129.467C239.342 128.855 237.064 128.613 234.794 128.752C234.666 129.325 234.543 129.884 234.435 130.415C232.533 130.26 230.624 130.217 228.717 130.288C221.21 158.519 213.387 186.663 205.248 214.72Z" fill="#8D99AE"/>
<path d="M210.721 216.292C217.625 190.053 233.44 139.702 233.8 138.614C233.974 138.056 233.973 137.459 233.797 136.901C233.622 136.343 233.28 135.853 232.818 135.495C231.639 134.616 230.116 130.136 228.866 130.91C228.153 131.351 227.365 136.631 226.835 137.282C226.816 137.351 226.798 137.422 226.777 137.491C225.058 143.915 223.32 150.336 221.565 156.753C221.29 157.763 221.009 158.773 220.731 159.783C219.278 165.082 217.815 170.38 216.342 175.676C215.264 179.547 214.177 183.417 213.081 187.286C212.378 189.782 211.679 192.28 210.971 194.774C209.083 201.429 207.175 208.078 205.248 214.72C207.06 215.285 208.888 215.8 210.721 216.292Z" fill="#EDF2F4"/>
<path d="M247.222 137.374C245.327 136.172 242.834 136.111 241.965 137.902C229.747 163.028 224.32 190.795 219.267 218.3C220.213 218.491 221.157 218.687 222.106 218.857C224.575 212.302 226.946 205.712 229.219 199.086C230.344 195.808 231.444 192.521 232.518 189.226C232.577 189.045 232.635 188.865 232.694 188.684C233.707 185.568 234.699 182.446 235.671 179.318C235.822 178.831 235.964 178.341 236.115 177.856C236.989 175.016 237.846 172.172 238.687 169.324C238.961 168.386 239.223 167.448 239.494 166.511C240.197 164.084 240.895 161.658 241.572 159.225C242.022 157.595 242.451 155.96 242.892 154.328C243.369 152.551 243.86 150.776 244.324 148.994C245.223 145.542 246.097 142.083 246.946 138.618C247.032 138.266 247.113 137.909 247.189 137.549C247.2 137.488 247.21 137.43 247.222 137.374Z" fill="#EDF2F4"/>
<path d="M194.561 175.096C194.005 178.202 190.53 180.261 187.406 179.803C184.282 179.346 181.721 176.822 180.581 173.878C179.441 170.934 179.546 167.638 180.18 164.542C181.586 157.704 185.487 151.526 190.538 146.704C195.589 141.883 201.75 138.348 208.482 135.601C203.211 148.522 197.03 161.319 194.561 175.096Z" fill="#3541A5"/>
<path d="M187.777 120.811C185.575 120.805 183.383 120.51 181.258 119.932C180.279 119.666 179.102 119.222 178.68 118.135C178.289 117.124 178.73 115.892 179.858 114.839C181.112 113.704 182.667 112.954 184.336 112.682C186.006 112.409 187.718 112.624 189.268 113.302C189.838 113.535 190.343 113.901 190.743 114.369C190.965 114.634 191.113 114.953 191.173 115.294C191.234 115.634 191.205 115.984 191.089 116.31C190.909 116.648 190.658 116.942 190.353 117.174C190.049 117.405 189.698 117.568 189.325 117.652C186.979 118.407 184.453 118.393 182.116 117.61C181.187 117.298 180.685 116.743 180.74 116.086C180.791 115.471 181.319 115.015 182.224 114.802C183.977 114.398 185.799 114.403 187.549 114.817C188.11 114.951 188.44 115.214 188.525 115.599C188.55 115.707 188.552 115.818 188.532 115.927C188.512 116.035 188.469 116.138 188.408 116.23C188.165 116.538 187.817 116.747 187.431 116.816C186.27 117.05 185.068 116.956 183.957 116.545C183.859 116.508 183.779 116.433 183.735 116.337C183.692 116.241 183.688 116.132 183.725 116.033C183.762 115.935 183.837 115.855 183.933 115.811C184.029 115.767 184.138 115.764 184.237 115.801C185.207 116.159 186.257 116.24 187.27 116.035C187.449 116.008 187.614 115.923 187.739 115.793C187.747 115.768 187.716 115.67 187.362 115.585C185.732 115.199 184.035 115.194 182.402 115.571C182.206 115.617 181.558 115.797 181.529 116.148C181.503 116.45 181.964 116.715 182.367 116.851C184.541 117.581 186.891 117.595 189.074 116.891C189.793 116.657 190.198 116.376 190.348 116.007C190.41 115.81 190.42 115.601 190.378 115.399C190.337 115.196 190.244 115.008 190.11 114.851C189.791 114.483 189.387 114.198 188.934 114.02C187.528 113.405 185.973 113.209 184.459 113.457C182.944 113.704 181.533 114.384 180.396 115.415C179.714 116.051 179.098 117.023 179.416 117.844C179.709 118.598 180.661 118.943 181.459 119.16C185.595 120.312 189.97 120.292 194.096 119.101C194.146 119.086 194.198 119.081 194.25 119.087C194.302 119.092 194.352 119.108 194.398 119.133C194.444 119.158 194.485 119.191 194.518 119.232C194.55 119.272 194.575 119.319 194.59 119.369C194.605 119.419 194.61 119.471 194.604 119.523C194.599 119.575 194.583 119.626 194.558 119.671C194.533 119.717 194.5 119.758 194.459 119.791C194.419 119.824 194.372 119.848 194.322 119.863C192.198 120.494 189.993 120.813 187.777 120.811V120.811Z" fill="#872357"/>
<path d="M118.818 137.412C112.586 146.822 109.742 158.072 110.754 169.313C111.106 173.006 111.952 176.81 114.303 179.674C116.655 182.539 120.845 184.158 124.208 182.599L118.818 137.412Z" fill="#FAAB42"/>
<path d="M123.618 160.025C123.563 160.024 123.51 160.013 123.46 159.991C123.41 159.97 123.366 159.938 123.329 159.899C123.291 159.859 123.263 159.812 123.244 159.761C123.226 159.71 123.218 159.656 123.221 159.602L124.397 140.609C124.398 140.556 124.409 140.503 124.431 140.455C124.453 140.407 124.485 140.364 124.525 140.329C124.565 140.294 124.611 140.268 124.662 140.252C124.712 140.236 124.766 140.231 124.818 140.237C124.871 140.24 124.922 140.254 124.968 140.277C125.015 140.3 125.057 140.332 125.092 140.371C125.126 140.41 125.153 140.455 125.17 140.505C125.186 140.554 125.193 140.606 125.19 140.659L124.059 158.922C124.146 158.978 124.208 159.066 124.232 159.167C124.255 159.268 124.238 159.375 124.184 159.463L123.956 159.834C123.921 159.892 123.871 159.94 123.812 159.974C123.753 160.007 123.686 160.025 123.618 160.025Z" fill="black"/>
<path d="M181.929 159.455C181.97 159.449 182.009 159.436 182.046 159.417C182.125 159.377 182.189 159.311 182.227 159.231C182.264 159.15 182.273 159.059 182.253 158.973L177.946 140.437C177.937 140.385 177.917 140.335 177.887 140.291C177.857 140.247 177.819 140.21 177.773 140.182C177.728 140.154 177.678 140.135 177.625 140.128C177.573 140.121 177.519 140.125 177.468 140.14C177.366 140.164 177.278 140.228 177.223 140.318C177.168 140.407 177.151 140.515 177.175 140.617L181.317 158.44C181.24 158.51 181.194 158.607 181.187 158.711C181.181 158.815 181.216 158.917 181.284 158.996L181.568 159.323C181.613 159.374 181.669 159.412 181.732 159.435C181.795 159.458 181.863 159.465 181.929 159.455V159.455Z" fill="black"/>
<path d="M171.047 159.832C169.919 163.535 168.779 167.308 168.805 171.18C168.831 175.052 170.202 179.105 173.269 181.467C175.565 183.158 178.428 183.893 181.256 183.518C183.304 183.348 185.221 182.44 186.65 180.963C188.392 178.992 188.727 176.157 188.623 173.527C188.365 167.109 185.99 160.989 183.303 155.3C178.527 155.531 173.848 157.437 171.047 159.832Z" fill="#FAAB42"/>
<path d="M183.749 151.864C182.056 150.554 179.847 150.168 177.733 149.846C161.142 147.32 144.124 146.265 127.632 149.373C126.864 149.475 126.119 149.713 125.435 150.077C125.095 150.263 124.807 150.533 124.6 150.861C124.393 151.189 124.272 151.565 124.25 151.952C124.263 153.094 125.364 153.886 126.37 154.43C132.958 157.982 140.517 159.236 147.947 160.157C153.232 160.814 158.56 161.329 163.879 161.029C169.199 160.729 174.53 159.575 179.223 157.058C181.371 155.905 183.547 154.2 183.749 151.864Z" fill="#9B9936"/>
<path d="M133.055 141.823C132.045 145.869 131.584 150.033 131.685 154.202C145.606 156.536 159.771 157.045 173.823 155.718C174.436 151.128 174.611 146.489 174.346 141.866C169.416 138.215 163.562 136.018 157.447 135.521C151.35 135.041 145.218 135.77 139.403 137.665C136.909 138.437 133.736 139.278 133.055 141.823Z" fill="#F8D3B6"/>
<path d="M162.429 129.719C162.425 129.901 162.459 130.083 162.53 130.251C162.566 130.335 162.625 130.406 162.701 130.457C162.777 130.508 162.865 130.536 162.956 130.538C163.223 130.52 163.374 130.229 163.448 129.97C163.733 128.967 163.667 127.897 163.263 126.936C163.191 126.72 163.053 126.533 162.868 126.401C162.679 126.283 162.389 128.736 162.429 129.719Z" fill="#F7D7B0"/>
<path d="M158.966 127.814C158.94 127.925 158.941 128.04 158.968 128.15C158.996 128.261 159.049 128.363 159.123 128.449C159.196 128.501 159.282 128.532 159.372 128.536C159.462 128.541 159.551 128.52 159.629 128.475C159.785 128.384 159.912 128.251 159.996 128.092C160.206 127.732 160.312 127.32 160.304 126.903C160.295 126.487 160.172 126.08 159.948 125.728C159.899 125.636 159.831 125.555 159.749 125.491C159.667 125.427 159.572 125.381 159.47 125.356C159.265 125.328 159.036 127.001 158.966 127.814Z" fill="#F7D7B0"/>
<path d="M154.213 127.267C154.174 128.001 154.453 129.41 154.784 129.35C155.76 129.174 155.705 126.086 154.987 124.598C154.941 124.474 154.855 124.368 154.742 124.298C154.623 124.241 154.252 126.53 154.213 127.267Z" fill="#F7D7B0"/>
<path d="M149.967 129.259C149.971 129.501 150.008 129.787 150.225 129.904C150.526 130.055 150.846 129.722 150.974 129.409C151.403 128.354 151.384 126.048 150.271 126.28C149.966 126.341 149.955 128.406 149.967 129.259Z" fill="#F7D7B0"/>
<path d="M144.121 129.005C144.094 129.109 144.094 129.218 144.12 129.322C144.145 129.427 144.196 129.523 144.268 129.603C144.356 129.658 144.46 129.681 144.563 129.667C144.666 129.652 144.761 129.603 144.83 129.526C144.966 129.368 145.052 129.173 145.078 128.966C145.209 128.279 145.145 127.568 144.891 126.915C144.872 126.843 144.839 126.776 144.792 126.718C144.745 126.66 144.687 126.613 144.621 126.579C144.481 126.533 144.202 128.272 144.121 129.005Z" fill="#F7D7B0"/>
<path d="M305.227 178.146C306.382 178.233 307.495 178.617 308.458 179.261C309.422 179.905 310.202 180.787 310.725 181.821C310.814 181.918 310.868 182.042 310.88 182.173C310.893 182.305 310.862 182.436 310.793 182.549C310.724 182.661 310.62 182.748 310.498 182.796C310.375 182.845 310.24 182.852 310.113 182.817C308.356 182.781 306.673 182.105 305.38 180.915C305.088 180.692 304.838 180.42 304.641 180.111C304.543 179.956 304.481 179.781 304.458 179.6C304.435 179.418 304.451 179.234 304.506 179.059C304.727 178.467 305.437 178.252 305.227 178.146Z" fill="#F1C1A9"/>
<path d="M317.82 82.1141C322.088 63.4724 336.533 50.8765 350.083 53.978C363.633 57.0795 371.158 74.7062 366.889 93.3485C362.62 111.991 348.176 124.589 334.626 121.488C321.077 118.387 313.552 100.757 317.82 82.1141Z" fill="#872357"/>
<path d="M351.888 71.0673C356.356 63.0469 343.39 55.7538 335.626 53.978C335.544 53.9593 335.46 53.9481 335.376 53.93C334.253 54.4615 333.288 55.2761 332.575 56.2936C331.216 58.302 331.176 61.0208 332.106 63.2626C333.122 65.4837 334.771 67.3551 336.847 68.6415C341.209 71.5379 349.347 75.6292 351.888 71.0673Z" fill="#BF438A"/>
<path d="M322.555 125.237C332.87 109.133 350.723 102.157 362.429 109.655C374.134 117.154 375.259 136.286 364.943 152.391C354.627 168.496 336.775 175.47 325.07 167.972C313.365 160.474 312.24 141.342 322.555 125.237Z" fill="#3541A5"/>
<path d="M301.09 186.203C301.067 186.203 301.045 186.202 301.023 186.198C300.972 186.189 300.923 186.171 300.878 186.143C300.834 186.115 300.796 186.079 300.765 186.037C300.735 185.994 300.714 185.946 300.702 185.895C300.69 185.844 300.689 185.792 300.697 185.74C304.515 163.161 309.876 140.869 316.742 119.023C316.756 118.972 316.781 118.924 316.814 118.883C316.848 118.841 316.889 118.807 316.936 118.782C316.982 118.757 317.034 118.741 317.086 118.736C317.139 118.731 317.192 118.737 317.243 118.753C317.294 118.769 317.341 118.795 317.381 118.829C317.421 118.863 317.455 118.906 317.478 118.953C317.502 119 317.517 119.052 317.52 119.105C317.524 119.158 317.517 119.211 317.5 119.261C310.645 141.073 305.294 163.329 301.484 185.872C301.468 185.965 301.42 186.05 301.348 186.11C301.275 186.171 301.184 186.204 301.09 186.203V186.203Z" fill="black"/>
<path d="M299.556 245.394C299.477 245.394 299.399 245.371 299.334 245.326C299.268 245.282 299.217 245.22 299.187 245.146C297.054 239.872 298.234 234.167 299.372 228.648C300.212 224.586 301.078 220.384 300.649 216.346C300.466 214.899 300.202 213.464 299.858 212.047C299.46 210.442 299.175 208.811 299.005 207.166C298.524 201.08 301.053 194.661 306.738 187.543C308.08 185.861 309.519 184.208 310.912 182.608C314.111 178.934 317.417 175.132 319.723 170.79C319.772 170.697 319.856 170.627 319.957 170.596C320.058 170.565 320.167 170.576 320.261 170.625C320.354 170.674 320.424 170.759 320.455 170.86C320.486 170.961 320.475 171.07 320.426 171.163C318.082 175.585 314.741 179.421 311.512 183.131C310.126 184.723 308.692 186.37 307.36 188.039C301.809 194.991 299.335 201.226 299.8 207.103C299.967 208.711 300.246 210.305 300.635 211.874C300.987 213.32 301.256 214.785 301.441 216.262C301.884 220.426 301.005 224.687 300.152 228.808C298.985 234.46 297.883 239.799 299.926 244.848C299.965 244.946 299.964 245.055 299.923 245.152C299.882 245.249 299.804 245.326 299.706 245.365C299.658 245.385 299.607 245.394 299.556 245.394V245.394Z" fill="black"/>
<path d="M306.71 247.448C306.658 247.448 306.607 247.438 306.56 247.418C306.462 247.378 306.384 247.301 306.344 247.204C306.303 247.107 306.302 246.998 306.342 246.9C309.885 238.208 306.789 228.256 303.609 219.61C300.499 211.155 297.306 202.476 296.965 195.095C292.059 206.495 290.871 219.153 293.572 231.267C293.595 231.37 293.577 231.478 293.52 231.567C293.464 231.656 293.375 231.72 293.272 231.743C293.169 231.766 293.061 231.748 292.972 231.691C292.882 231.635 292.819 231.546 292.796 231.443C289.925 218.561 291.395 205.092 296.977 193.133C297.015 193.051 297.081 192.984 297.163 192.944C297.245 192.904 297.338 192.894 297.427 192.914C297.515 192.935 297.594 192.985 297.65 193.057C297.706 193.129 297.736 193.218 297.734 193.309C297.575 200.906 301.013 210.252 304.338 219.289C307.586 228.122 310.726 238.246 307.078 247.201C307.048 247.274 306.997 247.337 306.931 247.381C306.866 247.425 306.789 247.448 306.71 247.448Z" fill="black"/>
<path opacity="0.05" d="M349.67 119.614C347.624 118.179 345.516 116.713 343.089 116.119C340.661 115.524 337.81 115.983 336.203 117.898C334.738 119.643 334.633 122.244 335.473 124.36C336.314 126.476 337.961 128.169 339.741 129.586C341.536 131.013 343.572 132.242 345.836 132.602C348.1 132.962 350.626 132.309 352.063 130.525C353.488 128.752 353.602 126.2 352.919 124.032C352.329 122.253 351.191 120.707 349.67 119.614Z" fill="white"/>
<path d="M121.703 161.612L123.469 156.44C119.183 157.189 112.891 159.839 110.568 163.575C110.515 165.49 110.577 167.406 110.754 169.313C111.106 173.006 111.952 176.81 114.303 179.674C114.425 179.822 114.552 179.964 114.682 180.104C117.283 174.068 119.622 167.919 121.703 161.612Z" fill="#EE9B36"/>
<path d="M269.318 143.36C270.748 144.215 272.441 144.522 274.081 144.224C274.653 142.706 274.618 141.025 273.985 139.532C273.042 137.515 270.862 136.308 268.667 135.944C268.422 135.903 268.176 135.875 267.931 135.85C267.433 136.397 267.069 137.052 266.866 137.763C266.663 138.474 266.627 139.222 266.761 139.949C266.896 140.676 267.196 141.362 267.64 141.954C268.083 142.546 268.658 143.027 269.318 143.36V143.36Z" fill="#484C56"/>
<path d="M276.976 151.372C276.376 151.818 275.816 152.316 275.303 152.86C274.016 154.155 273.295 155.908 273.299 157.734C273.389 158.641 273.665 159.52 274.11 160.315C274.556 161.11 275.161 161.805 275.888 162.355C276.446 162.808 277.061 163.187 277.716 163.484C279.858 160.671 280.5 156.658 278.825 153.552C278.362 152.708 277.733 151.967 276.976 151.372V151.372Z" fill="#484C56"/>
<path d="M263.357 77.4619C265.197 78.6369 267.214 79.5077 269.331 80.0406C269.407 79.3291 269.466 78.6165 269.519 77.9032C268.152 77.2837 266.749 76.7 265.256 76.1749C264.616 76.5965 263.983 77.0255 263.357 77.4619Z" fill="#BA4D47"/>
<path d="M174.351 142.008C174.351 141.96 174.351 141.913 174.347 141.866C169.417 138.215 163.563 136.017 157.448 135.521C151.35 135.041 145.218 135.77 139.403 137.665C136.964 138.423 133.889 139.257 133.119 141.677C142.249 145.28 152.082 146.745 161.865 145.96C166.222 145.602 170.754 144.683 174.351 142.008Z" fill="#E5B28F"/>
<path d="M184.091 157.009C183.84 156.455 183.587 155.904 183.332 155.356C178.53 155.971 173.995 158.505 170.654 161.135C170.463 161.77 170.279 162.409 170.102 163.052C171.329 164.016 172.794 164.63 174.341 164.83C175.888 165.03 177.461 164.81 178.893 164.191C180.326 163.572 181.565 162.578 182.479 161.314C183.394 160.05 183.951 158.563 184.091 157.009V157.009Z" fill="#ED9C3B"/>
<path d="M183.514 149.793C184.785 152.454 183.909 155.81 181.882 157.951C179.855 160.092 176.887 161.142 173.951 161.409C171.015 161.676 168.066 161.233 165.151 160.791C164.9 160.12 165.761 159.593 166.456 159.411C169.909 158.501 173.532 158.252 176.904 157.072C180.276 155.892 183.528 153.48 183.514 149.793Z" fill="#F1C1A9"/>
<path d="M194.93 130.29C187.614 141.037 180.26 151.85 174.862 163.677C173.176 167.375 171.655 171.336 171.991 175.385C172.326 179.434 175.038 183.558 179.048 184.239C182.389 184.809 185.757 182.865 187.839 180.191C189.921 177.518 190.966 174.202 191.973 170.965C195.937 158.218 199.901 145.472 203.866 132.726L194.93 130.29Z" fill="#3541A5"/>
<path d="M248.591 135.937C247.271 135.16 245.934 134.413 244.598 133.67C244.598 133.67 247.248 119.581 247.4 119.634C245.945 118.867 244.311 118.506 242.669 118.588C241.026 118.67 239.436 119.191 238.065 120.099C236.697 121.03 236.202 122.718 235.755 124.605C235.276 126.632 234.795 128.655 234.433 130.415C232.143 130.227 229.843 130.203 227.549 130.342C227.819 132.184 228.462 133.951 229.44 135.534C230.417 137.118 231.708 138.485 233.234 139.551C237.037 142.058 242.478 142.068 245.984 139.162C247.045 138.257 247.928 137.164 248.591 135.937V135.937Z" fill="#F1C1A9"/>
<path d="M236.224 127.771C239.136 128.144 242.085 127.151 244.572 125.589C245.202 125.19 245.812 124.76 246.398 124.3C246.908 121.716 247.341 119.611 247.4 119.633C245.945 118.866 244.311 118.505 242.669 118.587C241.026 118.669 239.436 119.19 238.064 120.097C236.697 121.029 236.201 122.717 235.755 124.604C235.524 125.578 235.295 126.551 235.077 127.494C235.449 127.625 235.833 127.718 236.224 127.771V127.771Z" fill="#E4AA91"/>
<path d="M192.781 168.362C189.815 167.713 187.094 166.234 184.936 164.098C182.081 161.1 180.453 157.141 180.373 153.002C178.394 156.484 176.526 160.028 174.864 163.677C173.178 167.375 171.657 171.336 171.993 175.385C172.328 179.434 175.04 183.558 179.05 184.239C182.391 184.809 185.759 182.865 187.841 180.191C189.923 177.518 190.968 174.202 191.975 170.965C192.243 170.098 192.512 169.23 192.781 168.362Z" fill="#3541A5"/>
<path d="M123.255 157.867C119.823 160.164 116.495 162.825 114.43 166.401C112.366 169.977 111.784 174.645 113.871 178.207C114.645 179.498 115.72 180.583 117.003 181.369C118.287 182.154 119.742 182.618 121.244 182.72C125.652 182.978 129.732 179.959 132.02 176.184C134.308 172.41 135.155 167.956 135.959 163.615L123.255 157.867Z" fill="#FAAB42"/>
<path d="M123.309 152.141C123.226 151.627 123.037 151.136 122.752 150.7C122.606 150.485 122.397 150.321 122.154 150.228C121.912 150.135 121.646 150.119 121.394 150.181C120.735 150.409 120.551 151.251 120.566 151.95C120.644 155.349 122.949 158.387 125.796 160.247C128.644 162.108 132.003 162.991 135.311 163.949C138.196 163.469 140.887 162.183 143.073 160.239C143.18 160.164 143.272 160.07 143.342 159.96C143.412 159.85 143.46 159.728 143.483 159.6C143.507 159.064 142.793 158.872 142.257 158.85C135.41 158.571 128.806 156.233 123.309 152.141Z" fill="#F1C1A9"/>
<path d="M145.868 117.455C143.602 118.172 141.649 119.642 140.334 121.622C142.051 123.698 144.144 125.431 146.504 126.729C146.709 126.876 146.963 126.937 147.212 126.898C147.439 126.795 147.618 126.609 147.713 126.379C148.46 125.057 149.208 123.733 149.956 122.409C150.718 124.107 151.599 125.749 152.593 127.323C153.962 125.052 155.597 122.952 157.463 121.067C156.856 118.971 154.709 117.62 152.554 117.294C150.399 116.967 148.21 117.461 145.868 117.455Z" fill="#FFE2C4"/>
<path d="M144.532 113.67C144.629 115.961 144.725 118.251 144.821 120.54L149.975 123.646L153.992 120.768L153.324 113.87L144.532 113.67Z" fill="#F1C1A9"/>
<path d="M153.508 115.763L153.324 113.869L144.533 113.67C144.557 114.244 144.58 114.818 144.605 115.39C145.794 116.516 147.351 117.174 148.987 117.243C150.624 117.311 152.23 116.786 153.509 115.763H153.508Z" fill="#E4AA91"/>
<path d="M170.448 147.607H170.439C169.074 147.625 167.764 148.147 166.761 149.072C166.664 148.95 166.558 148.835 166.444 148.729C166.067 148.373 165.614 148.106 165.119 147.949C164.625 147.792 164.101 147.748 163.587 147.822C162.546 148.023 161.624 148.619 161.013 149.486C160.569 148.971 160.021 148.554 159.407 148.263C158.792 147.971 158.123 147.81 157.443 147.792C156.139 147.802 154.89 148.32 153.96 149.235C153.585 148.584 153.06 148.031 152.428 147.625C151.795 147.219 151.075 146.97 150.326 146.9C149.578 146.83 148.824 146.94 148.127 147.222C147.43 147.503 146.811 147.948 146.322 148.518C146.152 148.235 145.958 147.966 145.742 147.716C145.414 147.272 144.983 146.915 144.486 146.675C143.989 146.436 143.441 146.32 142.89 146.34C142.339 146.359 141.8 146.512 141.321 146.786C140.842 147.06 140.437 147.446 140.141 147.912C140.012 148.088 139.893 148.271 139.786 148.461C139.323 147.894 138.75 147.426 138.103 147.086C137.455 146.745 136.745 146.538 136.016 146.478C135.286 146.418 134.552 146.506 133.857 146.735C133.162 146.965 132.521 147.333 131.971 147.816C131.859 148.887 131.781 149.966 131.737 151.054C131.963 150.959 132.143 150.779 132.239 150.553C132.527 149.871 133.018 149.295 133.645 148.901C134.273 148.508 135.005 148.317 135.745 148.354C136.484 148.391 137.194 148.655 137.778 149.109C138.363 149.564 138.793 150.187 139.012 150.894C139.071 151.085 139.19 151.253 139.35 151.372C139.511 151.492 139.705 151.557 139.905 151.559C140.106 151.563 140.303 151.502 140.466 151.385C140.629 151.269 140.75 151.102 140.812 150.911C140.996 150.246 141.282 149.613 141.661 149.036C141.801 148.821 141.986 148.638 142.202 148.499C142.419 148.361 142.662 148.269 142.916 148.232C143.188 148.242 143.455 148.312 143.696 148.437C143.938 148.562 144.149 148.739 144.314 148.955C144.762 149.539 145.121 150.186 145.379 150.875C145.458 151.05 145.587 151.198 145.751 151.299C145.914 151.4 146.104 151.449 146.295 151.442C146.488 151.431 146.673 151.363 146.825 151.245C146.977 151.126 147.089 150.964 147.147 150.781C147.347 150.14 147.766 149.589 148.331 149.226C148.896 148.862 149.57 148.708 150.236 148.791C150.903 148.873 151.519 149.187 151.978 149.677C152.437 150.168 152.709 150.803 152.747 151.474C152.76 151.694 152.849 151.903 153 152.064C153.15 152.226 153.353 152.329 153.571 152.357C153.79 152.385 154.012 152.335 154.198 152.217C154.384 152.098 154.523 151.918 154.591 151.708C154.792 151.126 155.167 150.62 155.665 150.257C156.163 149.894 156.76 149.692 157.376 149.678H157.414C158.036 149.702 158.636 149.917 159.131 150.295C159.626 150.673 159.992 151.194 160.179 151.788C160.236 151.985 160.355 152.158 160.519 152.281C160.682 152.405 160.882 152.471 161.087 152.471H161.107C161.316 152.466 161.517 152.393 161.679 152.263C161.841 152.132 161.956 151.951 162.005 151.749C162.218 150.87 162.901 149.848 163.9 149.681C164.127 149.654 164.356 149.677 164.572 149.75C164.788 149.823 164.986 149.943 165.149 150.102C165.266 150.2 165.359 150.324 165.421 150.463C165.484 150.603 165.513 150.755 165.509 150.907C165.486 151.127 165.54 151.348 165.663 151.532C165.787 151.715 165.97 151.85 166.182 151.912C166.394 151.975 166.621 151.961 166.824 151.873C167.027 151.785 167.193 151.629 167.293 151.432C167.594 150.855 168.046 150.371 168.601 150.031C169.155 149.69 169.791 149.506 170.442 149.498H170.446C171.096 149.506 171.732 149.69 172.286 150.029C172.84 150.369 173.293 150.851 173.596 151.426C173.659 151.55 173.75 151.658 173.86 151.743C173.971 151.827 174.099 151.886 174.235 151.915C174.302 151.056 174.354 150.193 174.39 149.328C173.88 148.793 173.269 148.365 172.593 148.07C171.916 147.774 171.187 147.617 170.448 147.607V147.607Z" fill="#C22735"/>
<path d="M153.413 143.615C153.639 143.459 153.901 143.363 154.174 143.333C154.447 143.303 154.724 143.342 154.979 143.445C155.485 143.657 155.939 143.979 156.307 144.388C156.318 143.876 156.518 143.387 156.868 143.013C157.218 142.64 157.694 142.408 158.204 142.364C158.714 142.319 159.222 142.464 159.632 142.771C160.042 143.078 160.324 143.525 160.424 144.027C160.769 143.564 161.2 143.172 161.693 142.873C161.942 142.727 162.22 142.64 162.508 142.619C162.795 142.598 163.083 142.644 163.35 142.753C163.613 142.872 163.824 143.081 163.946 143.342C164.068 143.604 164.092 143.9 164.013 144.178C164.436 143.948 164.901 143.806 165.381 143.761C165.62 143.743 165.86 143.798 166.068 143.917C166.277 144.035 166.446 144.214 166.553 144.429C162.004 144.9 157.422 144.944 152.865 144.559C152.989 144.529 152.979 143.95 153.413 143.615Z" fill="#C22735"/>
<path d="M159.687 142.293C159.657 141.647 159.848 141.011 160.229 140.488C160.609 139.966 161.157 139.589 161.78 139.42C162.404 139.251 163.067 139.3 163.659 139.559C164.251 139.818 164.737 140.271 165.037 140.843C165.166 140.467 165.431 140.152 165.781 139.962C166.131 139.772 166.539 139.72 166.925 139.817C167.311 139.914 167.647 140.152 167.865 140.484C168.084 140.817 168.17 141.219 168.106 141.612C168.395 141.306 168.75 141.071 169.145 140.925C169.539 140.78 169.963 140.728 170.381 140.773C170.795 140.838 171.17 141.058 171.429 141.388C171.688 141.719 171.811 142.136 171.773 142.554C167.744 142.777 163.703 142.69 159.687 142.293Z" fill="#C22735"/>
<path d="M144.613 141.665C144.56 141.665 144.507 141.659 144.455 141.649C144.281 141.614 144.125 141.522 144.01 141.388C143.894 141.253 143.827 141.084 143.819 140.908C143.669 137.73 143.628 134.495 143.697 131.291C143.706 131.082 143.795 130.884 143.947 130.739C144.098 130.595 144.299 130.514 144.509 130.514C144.613 130.516 144.716 130.539 144.812 130.581C144.907 130.623 144.993 130.683 145.066 130.759C145.138 130.834 145.194 130.923 145.232 131.02C145.27 131.117 145.288 131.221 145.286 131.325C145.222 134.28 145.253 137.261 145.378 140.198C145.456 140.313 145.503 140.447 145.513 140.586C145.523 140.724 145.497 140.864 145.437 140.989L145.329 141.214C145.264 141.349 145.162 141.463 145.036 141.543C144.909 141.623 144.762 141.665 144.613 141.665V141.665Z" fill="#FFF7F0"/>
<path d="M150.325 141.611C150.281 141.611 150.237 141.607 150.193 141.6C150.013 141.57 149.848 141.479 149.728 141.341C149.607 141.204 149.538 141.029 149.531 140.847C149.414 137.759 149.454 134.667 149.653 131.583C149.658 131.477 149.683 131.374 149.729 131.279C149.774 131.183 149.838 131.098 149.917 131.028C149.995 130.957 150.087 130.903 150.187 130.869C150.287 130.834 150.392 130.82 150.498 130.827C150.603 130.833 150.706 130.861 150.8 130.908C150.895 130.955 150.979 131.02 151.048 131.1C151.117 131.18 151.169 131.273 151.202 131.373C151.235 131.474 151.247 131.579 151.239 131.685C151.066 134.359 151.014 137.065 151.084 139.747C151.192 139.856 151.267 139.994 151.298 140.145C151.329 140.296 151.316 140.453 151.26 140.596L151.062 141.105C151.004 141.253 150.903 141.381 150.771 141.471C150.64 141.561 150.485 141.61 150.325 141.611V141.611Z" fill="#FFF7F0"/>
<path d="M155.567 142.818H155.524C155.34 142.808 155.166 142.734 155.03 142.61C154.894 142.485 154.806 142.318 154.779 142.135C154.225 138.217 153.983 134.261 154.057 130.304C154.061 130.094 154.148 129.893 154.3 129.747C154.452 129.601 154.656 129.521 154.866 129.525C155.077 129.529 155.278 129.616 155.424 129.768C155.57 129.92 155.65 130.124 155.646 130.334C155.578 133.968 155.782 137.602 156.256 141.205C156.337 141.301 156.393 141.415 156.421 141.537C156.448 141.659 156.447 141.787 156.416 141.908L156.337 142.219C156.293 142.39 156.194 142.542 156.054 142.65C155.915 142.759 155.743 142.818 155.567 142.818V142.818Z" fill="#FFF7F0"/>
<path d="M159.28 142.026C159.232 142.027 159.184 142.022 159.136 142.013C158.957 141.98 158.794 141.887 158.675 141.748C158.556 141.609 158.489 141.434 158.485 141.251C158.405 137.617 158.458 133.954 158.644 130.365C158.655 130.154 158.749 129.957 158.906 129.816C159.062 129.674 159.269 129.601 159.479 129.612C159.69 129.623 159.887 129.717 160.028 129.874C160.169 130.031 160.243 130.237 160.232 130.447C160.062 133.707 160.003 137.027 160.056 140.332C160.148 140.444 160.208 140.579 160.228 140.722C160.249 140.866 160.23 141.013 160.173 141.146L160.015 141.531C159.955 141.677 159.854 141.802 159.723 141.89C159.592 141.979 159.438 142.026 159.28 142.026V142.026Z" fill="#FFF7F0"/>
<path d="M163.367 139.887C163.175 139.887 162.99 139.817 162.846 139.691C162.701 139.565 162.607 139.39 162.581 139.2C162.249 136.79 162.116 134.357 162.183 131.926C162.193 131.716 162.283 131.519 162.435 131.375C162.588 131.231 162.79 131.151 163 131.154C163.104 131.157 163.207 131.18 163.302 131.223C163.397 131.265 163.483 131.326 163.555 131.402C163.627 131.478 163.683 131.567 163.72 131.665C163.757 131.762 163.775 131.866 163.772 131.971C163.708 134.315 163.836 136.661 164.155 138.985C164.169 139.088 164.163 139.193 164.137 139.294C164.11 139.395 164.064 139.49 164.001 139.573C163.938 139.656 163.859 139.726 163.769 139.778C163.679 139.831 163.58 139.865 163.476 139.879C163.44 139.885 163.404 139.887 163.367 139.887V139.887Z" fill="#FFF7F0"/>
<path d="M141.278 142.267C141.278 141.803 141.447 141.355 141.754 141.006C142.06 140.657 142.483 140.432 142.943 140.372C143.403 140.312 143.869 140.422 144.254 140.68C144.64 140.939 144.918 141.329 145.037 141.777C145.235 141.436 145.519 141.151 145.86 140.951C146.201 140.752 146.588 140.644 146.983 140.639C147.378 140.634 147.768 140.731 148.114 140.921C148.461 141.111 148.752 141.388 148.959 141.725C149.203 141.158 149.632 140.691 150.176 140.401C150.721 140.111 151.348 140.015 151.954 140.13C152.56 140.245 153.109 140.563 153.51 141.032C153.911 141.501 154.14 142.092 154.16 142.709C154.386 142.406 154.667 142.148 154.987 141.947C155.149 141.85 155.334 141.798 155.523 141.798C155.712 141.798 155.897 141.85 156.058 141.947C156.134 142 156.198 142.069 156.245 142.149C156.291 142.229 156.32 142.318 156.329 142.411C156.337 142.503 156.326 142.596 156.295 142.683C156.264 142.771 156.214 142.85 156.149 142.917C155.95 143.039 155.715 143.09 155.484 143.061C150.737 143.065 145.995 142.8 141.278 142.267V142.267Z" fill="#C22735"/>
<path d="M298.406 76.4802C302.675 57.839 317.118 45.2397 330.668 48.3435C344.218 51.4474 351.742 69.0723 347.473 87.7146C343.203 106.357 328.761 118.952 315.213 115.852C301.664 112.753 294.139 95.1225 298.406 76.4802Z" fill="#FAAB42"/>
<path d="M304.111 62.5077C304.354 63.0468 304.668 63.5515 305.043 64.0086C306.694 66.0012 309.384 66.8047 311.959 67.082C315.939 67.5074 319.962 66.9132 323.875 66.0645C327.977 65.1749 332.323 63.807 334.831 60.4383C336.941 57.6034 337.152 53.8121 335.975 50.4633C334.326 49.4887 332.537 48.7732 330.671 48.3417C320.896 46.1047 310.661 52.0358 304.111 62.5077Z" fill="#FFCC8F"/>
<path d="M311.584 185.518C308.712 183.472 301.835 181.609 301.514 183.48C301.316 184.633 305.165 185.782 307.282 186.069C305.31 185.569 303.229 185.232 301.245 185.69C300.882 185.773 300.45 185.979 300.457 186.351C300.462 186.709 300.867 186.902 301.208 187.014L306.754 188.839C304.843 188.676 302.92 188.703 301.014 188.918C300.579 188.968 300.002 189.228 300.131 189.647C300.199 189.871 300.445 189.978 300.663 190.057C302.172 190.616 303.682 191.173 305.192 191.729C303.515 191.961 300.113 191.98 300.269 192.902C300.529 194.409 306.524 194.436 309.647 193.781C310.09 193.687 310.598 193.51 310.72 193.077C310.753 192.893 310.727 192.703 310.645 192.535C310.564 192.366 310.431 192.228 310.266 192.14C309.932 191.969 309.565 191.872 309.191 191.856C309.716 191.937 310.252 191.9 310.761 191.747C311.014 191.665 311.232 191.503 311.385 191.286C311.538 191.069 311.616 190.809 311.608 190.544C311.529 189.916 310.85 189.571 310.26 189.338C310.414 189.416 310.583 189.46 310.756 189.466C310.928 189.472 311.1 189.441 311.259 189.374C311.418 189.308 311.561 189.208 311.678 189.081C311.795 188.954 311.883 188.803 311.936 188.639C311.989 188.475 312.006 188.301 311.985 188.129C311.965 187.958 311.908 187.793 311.817 187.646C311.727 187.499 311.606 187.373 311.462 187.278C311.319 187.182 311.156 187.118 310.986 187.091C311.176 187.128 311.374 187.099 311.546 187.01C311.718 186.92 311.854 186.775 311.933 186.598C312.004 186.405 312.008 186.193 311.945 185.997C311.882 185.802 311.755 185.633 311.584 185.518V185.518Z" fill="#F1C1A9"/>
<path d="M135.931 102.025C134.942 100.963 134.083 99.7871 133.373 98.5218C132.659 97.2445 132.423 95.7551 132.707 94.3197C132.861 93.6091 133.218 92.9585 133.734 92.4465C134.251 91.9345 134.904 91.583 135.616 91.4345C135.083 90.3419 134.854 89.126 134.954 87.9144C135.053 86.7029 135.478 85.5406 136.182 84.5499C136.934 83.5215 137.991 82.7564 139.203 82.3632C140.415 81.97 141.72 81.9688 142.933 82.3597C143.46 80.0992 145.465 78.4412 147.622 77.5932C150.029 76.6479 152.879 76.55 155.116 77.8511C157.352 79.1522 158.712 82.035 157.819 84.462C159.53 83.938 161.581 83.4756 162.953 84.6249C164.209 85.6798 164.245 87.6303 163.751 89.1962C163.258 90.7622 162.345 92.1852 162.03 93.7975C163.017 93.0549 164.586 93.5801 165.182 94.6608C165.445 95.2218 165.557 95.8418 165.508 96.4596C165.458 97.0773 165.248 97.6713 164.898 98.1831C164.182 99.2111 163.248 100.069 162.162 100.694C155.392 101.816 148.586 102.69 141.746 103.318C139.733 103.501 137.413 103.751 135.931 102.025Z" fill="#2D3039"/>
<path d="M137.741 98.0928C137.93 100.835 138.412 103.549 139.177 106.189C139.952 108.841 141.45 111.225 143.504 113.073C144.489 114.007 145.681 114.696 146.982 115.083C148.284 115.471 149.658 115.546 150.994 115.303C152.33 115.06 153.59 114.505 154.671 113.684C155.752 112.862 156.625 111.798 157.218 110.576C158.444 108.225 159.043 105.598 158.956 102.948C158.853 100.238 158.54 97.5398 158.018 94.8782C154.959 94.3208 152.144 92.841 149.95 90.6374C150.489 91.5263 150.829 92.5214 150.947 93.5542C150.995 94.0713 150.879 94.5904 150.615 95.0375C150.351 95.4846 149.952 95.8366 149.476 96.0433C148.639 96.2114 147.769 96.0553 147.043 95.6067C144.83 94.5288 142.818 93.0786 141.096 91.3195C141.083 94.1028 139.988 96.8685 137.741 98.0928Z" fill="#F1C1A9"/>
<path d="M158.14 99.8557C158.67 99.3333 159.266 98.8815 159.912 98.5112C160.568 98.1424 161.34 98.0376 162.07 98.2182C162.431 98.3166 162.751 98.5247 162.988 98.8136C163.224 99.1025 163.365 99.4579 163.39 99.8305C163.341 100.43 163.071 100.989 162.632 101.399C161.943 102.145 161.088 102.718 160.137 103.073C159.451 103.329 158.591 103.436 158.058 102.93C157.866 102.7 157.727 102.43 157.651 102.14C157.575 101.85 157.564 101.547 157.619 101.252C157.677 100.533 157.981 99.6834 158.14 99.8557Z" fill="#F1C1A9"/>
<path d="M139.716 102.245C139.02 101.637 138.227 101.149 137.372 100.8C136.941 100.63 136.476 100.569 136.016 100.621C135.556 100.673 135.116 100.838 134.734 101.1C134.367 101.414 134.107 101.835 133.99 102.305C133.873 102.774 133.906 103.268 134.083 103.718C134.275 104.162 134.578 104.549 134.963 104.842C135.348 105.134 135.803 105.322 136.282 105.387C136.763 105.443 137.25 105.4 137.714 105.262C138.177 105.123 138.608 104.891 138.978 104.579C139.368 104.287 139.656 103.878 139.799 103.411C139.914 103.025 139.884 102.611 139.716 102.245V102.245Z" fill="#F1C1A9"/>
<path d="M139.983 82.1722C144.508 84.8463 149.834 85.8315 155.016 84.9531C156.001 84.7859 156.966 84.5197 157.897 84.1584C158.577 81.7971 157.26 79.0988 155.117 77.8511C152.881 76.55 150.031 76.6479 147.623 77.5932C145.464 78.4412 143.458 80.0992 142.934 82.3597C141.979 82.0665 140.968 82.0023 139.983 82.1722V82.1722Z" fill="#484C56"/>
<path d="M136.661 83.9878C136.49 84.1647 136.33 84.3524 136.182 84.5498C135.478 85.5406 135.054 86.7029 134.954 87.9144C134.854 89.1259 135.083 90.3419 135.616 91.4344C134.904 91.5829 134.251 91.9344 133.735 92.4464C133.218 92.9585 132.861 93.6091 132.707 94.3196C132.629 94.6439 132.586 94.9755 132.579 95.3089C134.187 95.4211 135.78 94.9291 137.044 93.9293C138.114 93.0097 138.86 91.7717 139.174 90.3969C139.489 89.022 139.354 87.5826 138.79 86.2899C138.36 85.305 137.609 84.4941 136.661 83.9878V83.9878Z" fill="#484C56"/>
<path d="M140.647 94.2616C142.88 95.6493 145.47 96.3543 148.098 96.29C148.479 96.2949 148.858 96.2252 149.212 96.0849C148.457 96.1503 147.701 95.9834 147.043 95.6067C144.83 94.5288 142.818 93.0787 141.096 91.3195C141.093 92.3171 140.942 93.3087 140.647 94.2616V94.2616Z" fill="#E4AA91"/>
<path d="M157.65 94.7967C154.733 94.1914 152.057 92.7448 149.953 90.6356C150.434 91.4594 150.76 92.3638 150.917 93.3046C151.881 94.0033 152.923 94.5867 154.023 95.0429C155.226 95.5317 156.822 95.7479 157.65 94.7967Z" fill="#E4AA91"/>
<path d="M138.291 103.611C138.247 103.605 138.207 103.587 138.174 103.558C137.81 103.245 137.383 103.015 136.922 102.884C136.461 102.754 135.977 102.725 135.503 102.8C135.448 102.807 135.393 102.793 135.349 102.76C135.304 102.727 135.274 102.678 135.265 102.624C135.255 102.57 135.268 102.514 135.299 102.468C135.33 102.423 135.377 102.391 135.431 102.379C135.967 102.29 136.516 102.321 137.039 102.47C137.562 102.618 138.045 102.88 138.455 103.237C138.489 103.267 138.512 103.307 138.522 103.352C138.532 103.396 138.527 103.442 138.509 103.484C138.491 103.526 138.46 103.56 138.42 103.583C138.381 103.606 138.336 103.615 138.29 103.611H138.291Z" fill="#C68771"/>
<path d="M158.905 101.405C158.948 101.4 158.989 101.382 159.022 101.353C159.385 101.04 159.813 100.81 160.274 100.679C160.735 100.548 161.219 100.519 161.693 100.594C161.72 100.599 161.749 100.599 161.776 100.592C161.804 100.586 161.83 100.575 161.853 100.558C161.876 100.542 161.895 100.521 161.91 100.497C161.925 100.473 161.934 100.446 161.939 100.418C161.943 100.391 161.943 100.362 161.936 100.335C161.93 100.307 161.918 100.282 161.902 100.259C161.886 100.236 161.865 100.216 161.841 100.202C161.817 100.187 161.791 100.177 161.763 100.172C161.227 100.083 160.678 100.114 160.155 100.262C159.632 100.411 159.148 100.673 158.739 101.03C158.705 101.06 158.681 101.1 158.671 101.145C158.661 101.189 158.666 101.236 158.684 101.277C158.703 101.319 158.734 101.354 158.773 101.376C158.813 101.399 158.858 101.409 158.903 101.404L158.905 101.405Z" fill="#C68771"/>
<path d="M249.367 87.7328C249.413 90.3484 250.187 92.8995 251.601 95.1004C253.014 97.3013 255.013 99.0652 257.373 100.194C260.224 101.461 263.418 101.735 266.444 100.971C265.565 97.8767 263.875 95.0736 261.548 92.8524C259.222 90.6312 256.343 89.0726 253.212 88.3382C251.951 88.0193 250.665 87.8167 249.367 87.7328V87.7328Z" fill="#1A1D23"/>
<path d="M250.664 116.843C250.588 116.843 250.513 116.82 250.449 116.778C250.385 116.736 250.334 116.677 250.303 116.607C250.272 116.537 250.262 116.459 250.274 116.384C250.287 116.308 250.32 116.238 250.371 116.181C255.917 109.986 259.96 102.596 262.186 94.5857C262.196 94.5318 262.218 94.4805 262.249 94.4352C262.28 94.3899 262.32 94.3515 262.366 94.3225C262.413 94.2935 262.465 94.2744 262.519 94.2666C262.574 94.2588 262.629 94.2623 262.682 94.277C262.735 94.2917 262.784 94.3173 262.827 94.352C262.869 94.3867 262.904 94.4299 262.929 94.4788C262.954 94.5277 262.969 94.5813 262.972 94.6361C262.975 94.6909 262.967 94.7458 262.948 94.7973C260.69 102.926 256.587 110.425 250.96 116.711C250.923 116.753 250.877 116.786 250.826 116.809C250.775 116.831 250.72 116.843 250.664 116.843V116.843Z" fill="black"/>
<path d="M250.152 88.8657C254.898 83.818 260.247 79.3733 266.078 75.6316C266.981 75.0508 268.23 74.5046 269.037 75.212C269.609 75.7142 269.618 76.5857 269.565 77.3447C269.121 84.0599 267.672 90.6705 265.267 96.9558C259.494 95.9408 254.198 93.106 250.152 88.8657V88.8657Z" fill="#FAAB42"/>
<path d="M255.861 93.4154C258.751 95.1679 261.94 96.3684 265.268 96.9558C267.414 91.3444 268.799 85.4713 269.387 79.4926C265.995 85.1009 261.369 89.8624 255.861 93.4154V93.4154Z" fill="#E59331"/>
<path d="M243.397 88.4009C243.551 88.2779 243.705 88.1442 243.85 88.0042C242.919 88.1577 241.998 88.3635 241.09 88.6207C239.957 87.5808 238.508 86.9502 236.975 86.8295C235.442 86.7089 233.912 87.1051 232.63 87.9549C231.611 88.692 230.826 89.7074 230.369 90.8794C232.583 91.513 234.915 91.6189 237.178 91.1885C239.44 90.7581 241.57 89.8033 243.397 88.4009V88.4009Z" fill="#484C56"/>
<path d="M268.871 83.4504C266.003 81.9403 262.953 80.807 259.795 80.0787C259.32 80.4491 258.854 80.8295 258.388 81.2104C261.442 83.321 264.866 84.838 268.481 85.6821C268.622 84.9417 268.752 84.1978 268.871 83.4504Z" fill="#BA4D47"/>
<path d="M267.687 89.263C263.817 87.0981 259.825 85.1578 255.731 83.4515C255.362 83.7786 255 84.1167 254.637 84.4514C258.568 87.035 262.925 88.9045 267.507 89.9739C267.57 89.7377 267.629 89.4986 267.687 89.263Z" fill="#BA4D47"/>
<path d="M249.285 116.931C249.877 116.48 250.591 116.215 251.334 116.171C252.078 116.127 252.818 116.306 253.459 116.684C254.077 117.097 254.508 117.736 254.662 118.463C254.816 119.19 254.681 119.948 254.285 120.577C253.698 121.269 252.876 121.72 251.977 121.844C250.76 122.126 249.482 121.942 248.394 121.329C247.861 121.014 247.432 120.548 247.162 119.989C246.893 119.431 246.795 118.806 246.88 118.191C247.116 116.978 248.442 116.025 249.285 116.931Z" fill="#F1C1A9"/>
<path d="M251.033 115.902C248.369 118.474 245.559 120.966 242.265 122.661C238.97 124.356 235.12 125.201 231.521 124.328C227.922 123.454 224.694 120.635 223.965 117.006C223.326 113.834 224.589 110.593 226.16 107.765C229.296 102.243 233.561 97.4445 238.677 93.6826C237.869 95.9205 237.549 98.3056 237.739 100.677C237.93 103.049 238.626 105.353 239.781 107.433C242.111 111.564 246.318 114.59 251.033 115.902Z" fill="#F1C1A9"/>
<path d="M228.865 105.473C226.831 105.376 224.795 105.618 222.841 106.189C223.832 107.178 225.009 107.963 226.304 108.496C226.532 108.614 226.79 108.66 227.045 108.63C227.468 108.542 227.701 108.095 227.874 107.698C228.169 107.026 228.464 106.353 228.865 105.473Z" fill="#F1C1A9"/>
<path d="M252.306 119.544C252.255 119.537 252.207 119.516 252.169 119.481C251.743 119.115 251.242 118.846 250.701 118.692C250.161 118.539 249.593 118.505 249.038 118.592C249.006 118.598 248.973 118.598 248.941 118.591C248.908 118.584 248.878 118.57 248.851 118.551C248.824 118.532 248.801 118.508 248.784 118.48C248.766 118.452 248.755 118.421 248.75 118.388C248.739 118.323 248.754 118.256 248.792 118.202C248.83 118.148 248.888 118.112 248.953 118.1C249.582 117.996 250.226 118.032 250.838 118.206C251.451 118.38 252.018 118.687 252.498 119.106C252.548 119.149 252.578 119.211 252.582 119.277C252.586 119.343 252.564 119.408 252.521 119.457C252.495 119.488 252.461 119.512 252.424 119.527C252.386 119.542 252.346 119.547 252.306 119.544V119.544Z" fill="#C68771"/>
<path d="M227.23 115.736C216.048 116.665 204.88 117.757 193.727 119.011L193.601 120.346L227.124 116.616L227.23 115.736Z" fill="#FAAB42"/>
<path d="M195.205 115.467C195.405 117.629 195.83 119.767 196.031 121.929C196.08 122.431 196.263 123.067 196.821 123.127C197.491 123.198 197.777 122.394 197.812 121.792C197.929 119.7 198.007 117.605 198.046 115.507C198.145 117.593 198.391 119.669 198.783 121.72C198.793 121.921 198.852 122.117 198.955 122.29C199.058 122.463 199.202 122.608 199.375 122.712C199.582 122.779 199.805 122.777 200.011 122.708C200.217 122.638 200.395 122.504 200.519 122.325C200.726 121.979 200.838 121.584 200.843 121.18C201.053 119.05 201.264 116.921 201.475 114.792C201.254 116.952 201.257 119.128 201.483 121.288C201.525 121.686 201.686 122.187 202.131 122.219C202.533 122.248 202.794 121.858 202.945 121.524C203.901 119.419 204.57 117.195 204.934 114.912C204.299 116.824 203.931 118.814 203.841 120.826C203.823 121.265 204.033 121.878 204.513 121.789C204.613 121.758 204.706 121.708 204.787 121.641C204.867 121.574 204.933 121.491 204.982 121.398C206.126 119.719 206.962 117.85 207.449 115.877C207.7 114.849 207.809 113.658 207.051 112.851C206.226 111.972 204.743 111.934 203.465 112.056C200.348 112.362 194.613 114.491 195.205 115.467Z" fill="#F4CEBD"/>
<path d="M315.98 120.512C315.965 121.055 316.08 121.595 316.316 122.085C316.44 122.327 316.636 122.523 316.879 122.646C317.121 122.769 317.396 122.812 317.664 122.769C318.093 122.602 318.439 122.273 318.628 121.854C319.741 119.933 320.22 117.708 319.994 115.499C319.95 114.717 319.702 113.961 319.274 113.305C319.055 112.982 318.75 112.726 318.394 112.566C318.038 112.405 317.645 112.347 317.257 112.397C316.497 112.547 315.886 118.09 315.98 120.512Z" fill="#FAAB42"/>
<path d="M323.047 163.627C321.385 165.424 319.941 167.41 318.745 169.546C318.319 170.308 317.96 171.352 318.578 171.965C319.105 172.492 319.998 172.306 320.679 172.003C322.467 171.205 323.959 169.866 324.946 168.175C325.478 167.253 325.856 166.12 325.468 165.127C325.228 164.689 324.879 164.321 324.455 164.058C324.031 163.795 323.546 163.647 323.047 163.627Z" fill="#3541A5"/>
</svg>
