<svg width="12" height="7" viewBox="0 0 12 7" fill="none" xmlns="http://www.w3.org/2000/svg">
<path d="M0.264138 0.267679C0.433317 0.0962844 0.662742 0 0.901961 0C1.14118 0 1.37061 0.0962844 1.53978 0.267679L6.00545 4.7932L10.4711 0.267679C10.6413 0.101142 10.8691 0.00899045 11.1057 0.0110735C11.3422 0.0131565 11.5685 0.109307 11.7358 0.278816C11.903 0.448325 11.9979 0.677629 12 0.917342C12.002 1.15705 11.9111 1.388 11.7468 1.56042L6.64327 6.73232C6.47409 6.90372 6.24467 7 6.00545 7C5.76623 7 5.5368 6.90372 5.36762 6.73232L0.264138 1.56042C0.0950107 1.38898 0 1.15648 0 0.914052C0 0.671626 0.0950107 0.439126 0.264138 0.267679Z" fill="#BDC6D1"/>
</svg>
