<svg width="275" height="275" viewBox="0 0 275 275" fill="none" xmlns="http://www.w3.org/2000/svg">
<circle cx="137.5" cy="137.5" r="137.5" fill="#C70F0F"/>
<path d="M121.31 80.0129V83.0632H151.814V80.0129C151.814 75.9679 150.207 72.0886 147.346 69.2283C144.486 66.3681 140.607 64.7612 136.562 64.7612C132.517 64.7612 128.637 66.3681 125.777 69.2283C122.917 72.0886 121.31 75.9679 121.31 80.0129ZM109.109 83.0632V80.0129C109.109 72.7319 112.001 65.7491 117.15 60.6006C122.298 55.4522 129.281 52.5598 136.562 52.5598C143.843 52.5598 150.826 55.4522 155.974 60.6006C161.123 65.7491 164.015 72.7319 164.015 80.0129V83.0632H209.77C211.388 83.0632 212.94 83.706 214.084 84.8501C215.228 85.9942 215.871 87.5459 215.871 89.1639C215.871 90.7819 215.228 92.3336 214.084 93.4777C212.94 94.6218 211.388 95.2646 209.77 95.2646H200.57L189.028 196.341C188.177 203.785 184.615 210.655 179.023 215.642C173.431 220.628 166.2 223.382 158.707 223.379H114.416C106.924 223.382 99.6921 220.628 94.1002 215.642C88.5082 210.655 84.9471 203.785 84.0959 196.341L72.5534 95.2646H63.3536C61.7356 95.2646 60.1839 94.6218 59.0398 93.4777C57.8957 92.3336 57.2529 90.7819 57.2529 89.1639C57.2529 87.5459 57.8957 85.9942 59.0398 84.8501C60.1839 83.706 61.7356 83.0632 63.3536 83.0632H109.109ZM124.36 122.718C124.36 121.1 123.718 119.548 122.574 118.404C121.429 117.26 119.878 116.617 118.26 116.617C116.642 116.617 115.09 117.26 113.946 118.404C112.802 119.548 112.159 121.1 112.159 122.718V183.724C112.159 185.342 112.802 186.894 113.946 188.038C115.09 189.182 116.642 189.825 118.26 189.825C119.878 189.825 121.429 189.182 122.574 188.038C123.718 186.894 124.36 185.342 124.36 183.724V122.718ZM154.864 116.617C153.246 116.617 151.694 117.26 150.55 118.404C149.406 119.548 148.763 121.1 148.763 122.718V183.724C148.763 185.342 149.406 186.894 150.55 188.038C151.694 189.182 153.246 189.825 154.864 189.825C156.482 189.825 158.034 189.182 159.178 188.038C160.322 186.894 160.965 185.342 160.965 183.724V122.718C160.965 121.1 160.322 119.548 159.178 118.404C158.034 117.26 156.482 116.617 154.864 116.617Z" fill="white"/>
</svg>
