<svg width="20" height="20" viewBox="0 0 20 20" fill="none" xmlns="http://www.w3.org/2000/svg">
<path d="M9 19H12M1 11V8M4 1H1.6C1.44087 1 1.28826 1.06321 1.17574 1.17574C1.06321 1.28826 1 1.44087 1 1.6V4M12 1H8M19 8V12M16 1H18.4C18.5591 1 18.7117 1.06321 18.8243 1.17574C18.9368 1.28826 19 1.44087 19 1.6V4M16 19H18.4C18.5591 19 18.7117 18.9368 18.8243 18.8243C18.9368 18.7117 19 18.5591 19 18.4V16M9 8H12V11M9 11.6V19H1.6C1.44087 19 1.28826 18.9368 1.17574 18.8243C1.06321 18.7117 1 18.5591 1 18.4V11H8.4C8.55913 11 8.71174 11.0632 8.82426 11.1757C8.93679 11.2883 9 11.4409 9 11.6V11.6Z" stroke="white" stroke-width="1.5" stroke-linecap="round" stroke-linejoin="round"/>
</svg>
