<svg width="107" height="107" viewBox="0 0 107 107" fill="none" xmlns="http://www.w3.org/2000/svg">
<path d="M89.566 5.87751C88.9775 6.51961 88.0143 6.62663 87.3187 6.03803C86.6766 5.44944 86.5696 4.48628 87.1582 3.79067C87.7468 3.14857 88.7099 3.04155 89.4055 3.63015C90.1011 4.21874 90.1546 5.2354 89.566 5.87751Z" fill="#8A8AAE"/>
<path d="M93.6325 9.46259C93.0439 10.1047 92.0807 10.2117 91.3851 9.62312C90.743 9.03452 90.636 8.07137 91.2246 7.37575C91.8132 6.73365 92.7763 6.62663 93.4719 7.21523C94.1675 7.80382 94.221 8.76698 93.6325 9.46259Z" fill="#8A8AAE"/>
<path d="M97.7526 12.9941C97.164 13.6362 96.2008 13.7433 95.5052 13.1547C94.8631 12.5661 94.7561 11.6029 95.3447 10.9073C95.9333 10.2652 96.8964 10.1582 97.592 10.7468C98.2341 11.3354 98.2877 12.352 97.7526 12.9941Z" fill="#8A8AAE"/>
<path d="M101.82 16.5792C101.231 17.2213 100.268 17.3283 99.5726 16.7398C98.9305 16.1512 98.8235 15.188 99.4121 14.4924C100.001 13.8503 100.964 13.7433 101.659 14.3319C102.302 14.9205 102.355 15.8836 101.82 16.5792Z" fill="#8A8AAE"/>
<path d="M86.4625 9.46259C85.8739 10.1047 84.9108 10.2117 84.2152 9.62312C83.5731 9.03452 83.4661 8.07137 84.0546 7.37575C84.6432 6.73365 85.6064 6.62663 86.302 7.21523C86.9976 7.80382 87.0511 8.76698 86.4625 9.46259Z" fill="#8A8AAE"/>
<path d="M90.5289 12.9941C89.9403 13.6362 88.9772 13.7433 88.2816 13.1547C87.6395 12.5661 87.5325 11.6029 88.1211 10.9073C88.7096 10.2652 89.6728 10.1582 90.3684 10.7468C91.064 11.3354 91.1175 12.352 90.5289 12.9941Z" fill="#8A8AAE"/>
<path d="M94.5953 16.5792C94.0067 17.2213 93.0436 17.3283 92.348 16.7398C91.7059 16.1512 91.5989 15.188 92.1875 14.4924C92.7761 13.8503 93.7392 13.7433 94.4348 14.3319C95.1304 14.9205 95.1839 15.8836 94.5953 16.5792Z" fill="#8A8AAE"/>
<path d="M98.6627 20.1108C98.0741 20.7529 97.111 20.8599 96.4154 20.2713C95.7733 19.6827 95.6662 18.7196 96.2548 18.0239C96.8434 17.3818 97.8066 17.2748 98.5022 17.8634C99.1978 18.452 99.2513 19.4687 98.6627 20.1108Z" fill="#8A8AAE"/>
<path d="M83.36 12.9941C82.7714 13.6362 81.8082 13.7433 81.1126 13.1547C80.4705 12.5661 80.3635 11.6029 80.9521 10.9073C81.5407 10.2652 82.5039 10.1582 83.1995 10.7468C83.8416 11.3354 83.9486 12.352 83.36 12.9941Z" fill="#8A8AAE"/>
<path d="M87.4264 16.5792C86.8378 17.2213 85.8747 17.3283 85.179 16.7398C84.5369 16.1512 84.4299 15.188 85.0185 14.4924C85.6071 13.8503 86.5703 13.7433 87.2659 14.3319C87.9615 14.9205 88.015 15.8836 87.4264 16.5792Z" fill="#8A8AAE"/>
<path d="M91.4928 20.1108C90.9042 20.7529 89.9411 20.8599 89.2454 20.2713C88.6033 19.6827 88.4963 18.7196 89.0849 18.0239C89.6735 17.3818 90.6367 17.2748 91.3323 17.8634C92.0279 18.452 92.0814 19.4687 91.4928 20.1108Z" fill="#8A8AAE"/>
<path d="M95.5592 23.6959C94.9706 24.338 94.0075 24.445 93.3118 23.8564C92.6697 23.2678 92.5627 22.3046 93.1513 21.609C93.7399 20.9669 94.7031 20.8599 95.3987 21.4485C96.0943 22.0371 96.1478 23.0003 95.5592 23.6959Z" fill="#8A8AAE"/>
<path d="M12.2988 79.8799C9.35585 73.6194 6.19884 45.6879 5.02165 34.2371C4.86113 32.4713 6.89445 31.4547 8.23217 32.6318C16.8471 40.5511 37.8759 60.1353 40.8724 66.3958C44.618 74.2615 41.247 83.679 33.3812 87.4246C25.4084 91.1167 16.0444 87.7457 12.2988 79.8799Z" fill="#8A8AAE"/>
<path d="M32.7398 87.6922C32.6863 87.6922 32.6328 87.6922 32.5793 87.6387L6.36005 32.2037C6.30655 32.1502 6.36005 32.0432 6.41356 32.0432C6.46707 31.9897 6.57409 32.0432 6.57409 32.0967L32.7933 87.5316C32.8468 87.5851 32.8468 87.6386 32.7398 87.6922Z" fill="white"/>
<path d="M26.4252 74.422H26.3717C26.3182 74.422 26.2646 74.315 26.2646 74.2615L32.2576 55.9616C32.2576 55.9081 32.3646 55.8546 32.4181 55.8546C32.4716 55.8546 32.5252 55.9616 32.5252 56.0151L26.5322 74.315C26.5322 74.3685 26.4787 74.422 26.4252 74.422Z" fill="white"/>
<path d="M24.9799 71.265C24.9264 71.265 24.9264 71.265 24.9799 71.265C24.8728 71.265 24.8193 71.158 24.8193 71.1045L29.6351 53.2326C29.6351 53.1791 29.7421 53.1256 29.7956 53.1256C29.8491 53.1256 29.9027 53.2326 29.9027 53.2861L25.0869 71.158C25.0334 71.2115 24.9799 71.265 24.9799 71.265Z" fill="white"/>
<path d="M23.0009 67.1984H22.9474L8.12548 60.2958C8.07197 60.2423 8.01846 60.1888 8.07197 60.1352C8.12548 60.0817 8.17899 60.0282 8.23249 60.0817L23.0544 66.9843C23.1079 67.0378 23.1614 67.0914 23.1079 67.1449C23.1079 67.1449 23.0544 67.1984 23.0009 67.1984Z" fill="white"/>
<path d="M15.723 51.7879H15.6695C15.616 51.7879 15.5625 51.6809 15.5625 51.6274L18.773 42.5844C18.773 42.5309 18.88 42.4774 18.9335 42.4774C18.9871 42.4774 19.0406 42.5844 19.0406 42.6379L15.83 51.6809C15.83 51.7344 15.7765 51.7879 15.723 51.7879Z" fill="white"/>
<path d="M12.1923 44.2432H12.1388L5.82479 42.1563C5.77128 42.1563 5.71777 42.0493 5.71777 41.9958C5.71777 41.9423 5.82479 41.8888 5.8783 41.8888L12.1923 43.9756C12.2458 43.9756 12.2993 44.0826 12.2993 44.1362C12.2458 44.2432 12.2458 44.2432 12.1923 44.2432Z" fill="white"/>
<path d="M12.8335 45.6344C12.8335 45.6344 12.78 45.6344 12.8335 45.6344L6.09139 44.4037C6.03788 44.4037 5.98438 44.2967 5.98438 44.2432C5.98438 44.1897 6.09139 44.1362 6.1449 44.1362L12.8335 45.3669C12.887 45.3669 12.9405 45.4739 12.9405 45.5274C12.9405 45.5809 12.887 45.6344 12.8335 45.6344Z" fill="white"/>
<path d="M30.4381 82.8229H30.3846L11.068 76.2949C11.0144 76.2949 10.9609 76.1879 10.9609 76.1344C10.9609 76.0809 11.068 76.0273 11.1215 76.0273L30.4381 82.5554C30.4916 82.5554 30.5451 82.6624 30.5451 82.7159C30.4916 82.7694 30.4916 82.8229 30.4381 82.8229Z" fill="white"/>
<path d="M3.36423 11.71C3.7923 12.2451 3.7388 12.9942 3.20371 13.4223C2.66862 13.8503 1.9195 13.7968 1.49143 13.2618C1.06337 12.7267 1.11687 11.9775 1.65196 11.5495C2.13354 11.1214 2.93617 11.2284 3.36423 11.71Z" fill="#8A8AAE"/>
<path d="M6.57517 9.03453C7.00324 9.56962 6.94973 10.3187 6.41465 10.7468C5.87956 11.1749 5.13044 11.1214 4.70237 10.5863C4.2743 10.0512 4.32781 9.30207 4.8629 8.874C5.34447 8.44594 6.1471 8.55295 6.57517 9.03453Z" fill="#8A8AAE"/>
<path d="M9.78513 6.35918C10.2132 6.89426 10.1597 7.64338 9.62461 8.07145C9.08952 8.49952 8.3404 8.44601 7.91233 7.91093C7.48426 7.37584 7.53777 6.62672 8.07286 6.19865C8.60794 5.77058 9.35706 5.8776 9.78513 6.35918Z" fill="#8A8AAE"/>
<path d="M12.9961 3.6837C13.4241 4.21879 13.3706 4.96791 12.8355 5.39597C12.3005 5.82404 11.5513 5.77053 11.1233 5.23545C10.6952 4.70036 10.7487 3.95124 11.2838 3.52317C11.8189 3.0951 12.568 3.20212 12.9961 3.6837Z" fill="#8A8AAE"/>
<path d="M5.66404 14.5459C6.09211 15.081 6.0386 15.8301 5.50351 16.2582C4.96843 16.6862 4.21931 16.6327 3.79124 16.0976C3.36317 15.5625 3.41668 14.8134 3.95176 14.3854C4.48685 13.9573 5.23597 14.0108 5.66404 14.5459Z" fill="#8A8AAE"/>
<path d="M8.92771 11.8704C9.35578 12.4055 9.30227 13.1546 8.76719 13.5827C8.2321 14.0107 7.48298 13.9572 7.05491 13.4222C6.62684 12.8871 6.68035 12.1379 7.21544 11.7099C7.69701 11.2818 8.49964 11.3353 8.92771 11.8704Z" fill="#8A8AAE"/>
<path d="M12.1386 9.19505C12.5667 9.73014 12.5132 10.4793 11.9781 10.9073C11.443 11.3354 10.6939 11.2819 10.2658 10.7468C9.83778 10.2117 9.89129 9.46259 10.4264 9.03452C10.908 8.60646 11.7106 8.65996 12.1386 9.19505Z" fill="#8A8AAE"/>
<path d="M15.3486 6.51957C15.7767 7.05466 15.7232 7.80378 15.1881 8.23185C14.653 8.65992 13.9039 8.60641 13.4758 8.07132C13.0477 7.53624 13.1012 6.78712 13.6363 6.35905C14.1179 5.93098 14.9205 5.98449 15.3486 6.51957Z" fill="#8A8AAE"/>
<path d="M8.01853 17.3284C8.4466 17.8635 8.39309 18.6126 7.85801 19.0407C7.32292 19.4688 6.5738 19.4152 6.14573 18.8802C5.71766 18.3451 5.77117 17.596 6.30626 17.1679C6.84134 16.7398 7.59046 16.8468 8.01853 17.3284Z" fill="#8A8AAE"/>
<path d="M11.2295 14.7065C11.6575 15.2416 11.604 15.9907 11.0689 16.4187C10.5339 16.8468 9.78474 16.7933 9.35667 16.2582C8.9286 15.7231 8.98211 14.974 9.51719 14.5459C10.0523 14.0644 10.8014 14.1714 11.2295 14.7065Z" fill="#8A8AAE"/>
<path d="M14.4394 12.0311C14.8675 12.5661 14.814 13.3153 14.2789 13.7433C13.7438 14.1714 12.9947 14.1179 12.5666 13.5828C12.1386 13.0477 12.1921 12.2986 12.7272 11.8705C13.2622 11.389 14.0114 11.496 14.4394 12.0311Z" fill="#8A8AAE"/>
<path d="M17.7031 9.35557C18.1312 9.89066 18.0777 10.6398 17.5426 11.0678C17.0075 11.4959 16.2584 11.4424 15.8303 10.9073C15.4022 10.3722 15.4557 9.62312 15.9908 9.19505C16.4724 8.76698 17.275 8.82049 17.7031 9.35557Z" fill="#8A8AAE"/>
<path d="M56.4968 91.4912C33.9697 91.4912 15.6162 73.1378 15.6162 50.6107C15.6162 28.0835 33.9697 9.7301 56.4968 9.7301C79.0239 9.7301 97.3773 28.0835 97.3773 50.6107C97.3773 73.1378 79.0774 91.4912 56.4968 91.4912ZM56.4968 10.2652C34.2372 10.2652 16.1513 28.3511 16.1513 50.6107C16.1513 72.8702 34.2372 90.9562 56.4968 90.9562C78.7564 90.9562 96.8423 72.8702 96.8423 50.6107C96.8423 28.3511 78.7564 10.2652 56.4968 10.2652Z" fill="#8A8AAE"/>
<path d="M80.25 80.25C95.0236 65.4764 95.0236 41.5236 80.25 26.75C65.4764 11.9764 41.5236 11.9764 26.75 26.75C11.9764 41.5236 11.9764 65.4764 26.75 80.25C41.5236 95.0236 65.4764 95.0236 80.25 80.25Z" fill="white"/>
<path d="M45.4204 30.2774C45.4204 30.8125 44.9924 31.2406 44.4573 31.2406C43.9222 31.2406 43.4941 30.8125 43.4941 30.2774C43.4941 29.7423 43.9222 29.3143 44.4573 29.3143C44.9924 29.3143 45.4204 29.7958 45.4204 30.2774Z" fill="#C9EFFB"/>
<path d="M48.6841 30.2774C48.6841 30.8125 48.2561 31.2406 47.721 31.2406C47.1859 31.2406 46.7578 30.8125 46.7578 30.2774C46.7578 29.7423 47.1859 29.3143 47.721 29.3143C48.2561 29.3143 48.6841 29.7958 48.6841 30.2774Z" fill="#C9EFFB"/>
<path d="M51.9478 30.2774C51.9478 30.8125 51.5197 31.2406 50.9846 31.2406C50.4496 31.2406 50.0215 30.8125 50.0215 30.2774C50.0215 29.7423 50.4496 29.3143 50.9846 29.3143C51.5197 29.3143 51.9478 29.7958 51.9478 30.2774Z" fill="#C9EFFB"/>
<path d="M55.2124 30.2774C55.2124 30.8125 54.7844 31.2406 54.2493 31.2406C53.7142 31.2406 53.2861 30.8125 53.2861 30.2774C53.2861 29.7423 53.7142 29.3143 54.2493 29.3143C54.7844 29.3143 55.2124 29.7958 55.2124 30.2774Z" fill="#C9EFFB"/>
<path d="M58.4771 30.2774C58.4771 30.8125 58.049 31.2406 57.5139 31.2406C56.9789 31.2406 56.5508 30.8125 56.5508 30.2774C56.5508 29.7423 56.9789 29.3143 57.5139 29.3143C58.049 29.3143 58.4771 29.7958 58.4771 30.2774Z" fill="#C9EFFB"/>
<path d="M45.4204 32.8458C45.4204 33.3809 44.9924 33.809 44.4573 33.809C43.9222 33.809 43.4941 33.3809 43.4941 32.8458C43.4941 32.3108 43.9222 31.8827 44.4573 31.8827C44.9924 31.8827 45.4204 32.3108 45.4204 32.8458Z" fill="#C9EFFB"/>
<path d="M48.6841 32.8458C48.6841 33.3809 48.2561 33.809 47.721 33.809C47.1859 33.809 46.7578 33.3809 46.7578 32.8458C46.7578 32.3108 47.1859 31.8827 47.721 31.8827C48.2561 31.8827 48.6841 32.3108 48.6841 32.8458Z" fill="#C9EFFB"/>
<path d="M51.9478 32.8458C51.9478 33.3809 51.5197 33.809 50.9846 33.809C50.4496 33.809 50.0215 33.3809 50.0215 32.8458C50.0215 32.3108 50.4496 31.8827 50.9846 31.8827C51.5197 31.8827 51.9478 32.3108 51.9478 32.8458Z" fill="#C9EFFB"/>
<path d="M55.2124 32.8458C55.2124 33.3809 54.7844 33.809 54.2493 33.809C53.7142 33.809 53.2861 33.3809 53.2861 32.8458C53.2861 32.3108 53.7142 31.8827 54.2493 31.8827C54.7844 31.8827 55.2124 32.3108 55.2124 32.8458Z" fill="#C9EFFB"/>
<path d="M58.4771 32.8458C58.4771 33.3809 58.049 33.809 57.5139 33.809C56.9789 33.809 56.5508 33.3809 56.5508 32.8458C56.5508 32.3108 56.9789 31.8827 57.5139 31.8827C58.049 31.8827 58.4771 32.3108 58.4771 32.8458Z" fill="#C9EFFB"/>
<path d="M45.4204 35.4143C45.4204 35.9493 44.9924 36.3774 44.4573 36.3774C43.9222 36.3774 43.4941 35.9493 43.4941 35.4143C43.4941 34.8792 43.9222 34.4511 44.4573 34.4511C44.9924 34.4511 45.4204 34.8792 45.4204 35.4143Z" fill="#C9EFFB"/>
<path d="M47.721 36.3774C48.2529 36.3774 48.6841 35.9462 48.6841 35.4143C48.6841 34.8823 48.2529 34.4511 47.721 34.4511C47.189 34.4511 46.7578 34.8823 46.7578 35.4143C46.7578 35.9462 47.189 36.3774 47.721 36.3774Z" fill="#C9EFFB"/>
<path d="M51.9478 35.4143C51.9478 35.9493 51.5197 36.3774 50.9846 36.3774C50.4496 36.3774 50.0215 35.9493 50.0215 35.4143C50.0215 34.8792 50.4496 34.4511 50.9846 34.4511C51.5197 34.4511 51.9478 34.8792 51.9478 35.4143Z" fill="#C9EFFB"/>
<path d="M55.2124 35.4143C55.2124 35.9493 54.7844 36.3774 54.2493 36.3774C53.7142 36.3774 53.2861 35.9493 53.2861 35.4143C53.2861 34.8792 53.7142 34.4511 54.2493 34.4511C54.7844 34.4511 55.2124 34.8792 55.2124 35.4143Z" fill="#C9EFFB"/>
<path d="M58.4771 35.4143C58.4771 35.9493 58.049 36.3774 57.5139 36.3774C56.9789 36.3774 56.5508 35.9493 56.5508 35.4143C56.5508 34.8792 56.9789 34.4511 57.5139 34.4511C58.049 34.4511 58.4771 34.8792 58.4771 35.4143Z" fill="#C9EFFB"/>
<path d="M34.3971 66.7703C34.3971 66.7703 31.1866 81.8062 29.6348 92.4009C29.6348 92.4544 29.6348 92.5079 29.6348 92.5614C29.4743 93.6851 29.3138 94.7018 29.2068 95.7184H27.3875C27.334 94.5948 27.2269 93.5781 27.1734 92.6684C27.1734 92.5614 27.1734 92.4544 27.1199 92.2939C26.5313 85.7123 25.5682 83.1974 25.1401 77.258C25.2471 74.315 28.5111 68.6966 28.5111 68.6966C24.0164 66.1817 17.0068 54.7308 16.6857 50.9317C16.5787 49.3265 17.9164 47.3467 18.6656 46.33C18.9866 45.9019 19.2542 45.6344 19.2542 45.6344C19.2542 45.6344 21.2875 45.4204 22.9462 45.5809C23.7489 45.6879 24.4445 45.8484 24.819 46.1695C25.1936 46.544 25.6217 47.0791 26.0497 47.7747C29.6348 53.2861 34.3971 66.7703 34.3971 66.7703Z" fill="#822B4F"/>
<path d="M41.941 32.8994C41.941 32.9529 41.8875 33.0064 41.834 33.0064L40.4963 33.1134L40.5498 33.488C40.6033 33.702 40.6033 33.9161 40.4963 34.1301C40.2287 34.8257 39.5331 34.9862 39.4796 34.9862C32.256 37.5547 30.0621 39.695 27.8683 39.7485C27.3332 39.7485 26.6911 39.2669 26.6911 39.2669C26.6911 39.2669 25.3534 37.2871 23.8016 34.7187C23.427 34.0766 23.0525 33.4345 22.6779 32.7389C21.5542 30.7591 20.4841 28.5652 19.8955 26.7994C19.4674 25.4617 20.6446 22.6793 20.6446 22.6793C20.6446 22.6793 24.1227 24.4986 24.7648 25.8898C24.9788 26.3714 25.1928 26.9064 25.4069 27.495C25.5674 27.9766 25.7814 28.4582 25.9419 28.9398C26.049 29.2608 26.156 29.5819 26.263 29.8494C26.37 30.1705 26.477 30.4915 26.5841 30.8126C27.2797 32.8994 27.9218 34.9327 28.3498 36.431C33.3796 34.8257 33.4332 35.4678 39.2656 33.8626C39.2656 33.8626 39.6402 32.8994 40.5498 32.5248C41.0849 32.6319 41.834 32.7924 41.834 32.7924C41.8875 32.7389 41.941 32.8459 41.941 32.8994Z" fill="url(#paint0_linear_414_1459)"/>
<path d="M40.4433 33.0064L42.9582 32.7388C43.0117 32.7388 43.0117 32.7388 43.0117 32.7923C43.0117 32.8458 43.0117 32.8458 42.9582 32.8458L41.4599 33.2739L43.3327 32.8994C43.3862 32.8994 43.3862 32.8994 43.4397 32.9529C43.4397 33.0064 43.4397 33.0599 43.3862 33.0599L41.674 33.702L43.2792 33.3809C43.3327 33.3809 43.3327 33.3809 43.3862 33.4344C43.3862 33.488 43.3862 33.488 43.3327 33.5415L41.781 34.0765L43.1187 33.7555C43.1722 33.7555 43.2257 33.809 43.2257 33.8625C43.2257 33.916 43.2257 33.916 43.1722 33.916L41.674 34.6116C41.2459 34.8257 40.8178 34.9327 40.3362 34.9327L39.6406 34.9862L40.4433 33.0064Z" fill="white"/>
<path d="M39.6404 34.9862C39.5869 34.9327 39.5869 34.9327 39.5869 34.9327L40.3895 33.0064C40.3895 33.0064 40.3895 32.9528 40.4431 32.9528L42.958 32.6853C43.0115 32.6853 43.0115 32.6853 43.065 32.7388C43.065 32.7388 43.1185 32.7923 43.1185 32.8458C43.1185 32.8993 43.065 32.9528 43.0115 32.9528L42.5834 33.0599L43.386 32.8993C43.4395 32.8993 43.493 32.8993 43.5466 32.9528C43.5466 33.0064 43.5466 33.0064 43.5466 33.0599C43.5466 33.1134 43.493 33.1134 43.493 33.1134L42.5299 33.4344L43.279 33.2739C43.3325 33.2739 43.386 33.2739 43.4395 33.3809C43.4395 33.4344 43.4395 33.4879 43.386 33.5414L42.8509 33.702L43.065 33.6485C43.1185 33.6485 43.172 33.6485 43.172 33.702C43.2255 33.7555 43.2255 33.7555 43.2255 33.809C43.2255 33.8625 43.172 33.916 43.172 33.916L41.6738 34.6116C41.2457 34.8256 40.8176 34.9327 40.336 34.9327L39.6404 34.9862ZM40.4966 33.0599L39.7474 34.8792L40.336 34.8256C40.7641 34.8256 41.2457 34.6651 41.6202 34.5046L43.1185 33.809C43.1185 33.809 43.1185 33.809 43.065 33.809L41.7273 34.13C41.7273 34.13 41.6738 34.13 41.6738 34.0765C41.6738 34.0765 41.6737 34.023 41.7273 34.023L43.279 33.4879L41.6738 33.809C41.6738 33.809 41.6202 33.809 41.6202 33.7555C41.6202 33.7555 41.6202 33.702 41.6738 33.702L43.4395 33.1134C43.4395 33.1134 43.4395 33.1134 43.386 33.1134L41.5132 33.4879C41.5132 33.4879 41.4597 33.4879 41.4597 33.4344C41.4597 33.4344 41.4597 33.3809 41.5132 33.3809L43.0115 32.9528L40.4966 33.0599Z" fill="black"/>
<path d="M33.5408 39.3739L33.1128 39.3204L31.9891 39.2669C31.9891 39.1064 31.8821 38.9993 31.775 38.8923C31.7215 38.8388 31.668 38.7853 31.561 38.7318C31.5075 38.7318 31.4005 38.6783 31.347 38.6783C31.0794 38.6783 30.8119 38.8388 30.7049 39.1064C30.7049 39.1599 30.7049 39.1599 30.6514 39.2134C30.6514 39.2669 30.6514 39.2669 30.6514 39.3204C30.6514 39.6949 30.9189 40.016 31.2935 40.016C31.6145 40.016 31.8821 39.802 31.9891 39.5344L33.3268 39.6414C33.4338 39.6414 33.7549 39.6414 33.8084 39.909C35.3601 40.016 38.4101 40.016 38.7847 39.7485L33.5408 39.3739ZM31.2935 39.8555C31.0259 39.8555 30.8119 39.6414 30.8119 39.3739V39.3204C30.8119 39.2134 30.8654 39.1064 30.9189 38.9993C31.0259 38.8923 31.1865 38.7853 31.347 38.7853C31.5075 38.7853 31.6145 38.8923 31.7215 38.9993C31.775 39.1064 31.8286 39.2134 31.8286 39.3739C31.8286 39.6414 31.6145 39.8555 31.2935 39.8555Z" fill="#D3CBF7"/>
<path d="M33.4876 40.4976L33.8086 40.2301L37.7147 36.752C37.2867 36.8055 34.8788 38.6248 33.7016 39.695C33.8621 39.9625 33.5946 40.1231 33.4876 40.2301L32.5244 41.0862L32.6849 41.2467L33.4876 40.4976Z" fill="#E8E3F9"/>
<path d="M34.1303 39.695C34.0767 39.695 34.0232 39.695 33.9697 39.6415C33.9697 39.588 33.9697 39.5345 34.0232 39.481C34.0767 39.481 34.1303 39.481 34.1838 39.5345C34.1838 39.588 34.1838 39.695 34.1303 39.695Z" fill="#D3CBF7"/>
<path d="M32.4168 42.2634C32.8449 41.9423 32.9519 41.4072 32.6843 41.0862C32.4168 40.7651 31.8817 40.8186 31.5072 41.1397C31.0791 41.4607 30.9721 41.9958 31.2396 42.3169C31.5072 42.5844 31.9887 42.5844 32.4168 42.2634ZM31.3466 42.1564C31.1326 41.9423 31.2396 41.5142 31.5607 41.2467C31.8817 40.9792 32.3098 40.9792 32.4703 41.1932C32.6843 41.4072 32.5773 41.8353 32.2563 42.1028C31.9352 42.4239 31.5072 42.4239 31.3466 42.1564Z" fill="#E8E3F9"/>
<path d="M20.6986 14.2249C20.6986 14.2249 17.167 14.7064 18.5047 17.6494C19.8959 20.5924 20.6986 20.0038 20.8056 19.8968C20.9661 19.7897 22.6784 18.9871 22.7854 18.8266C22.8924 18.6661 23.0529 18.238 22.8924 17.5424C22.7319 16.8468 22.4108 15.8836 22.3573 15.8301C22.4108 15.7766 20.6986 14.2249 20.6986 14.2249Z" fill="#743234"/>
<path d="M22.3576 13.0477C22.3576 13.0477 22.4646 11.496 20.8594 11.3889C21.3945 11.3354 21.876 11.0144 22.7322 11.9775C22.6787 11.1214 22.5717 10.8003 23.5348 10.1047C22.9462 10.9074 23.0532 12.1381 24.0699 12.2986C24.1234 12.6731 22.3576 13.0477 22.3576 13.0477Z" fill="#46161C"/>
<path d="M30.597 15.9907C30.597 17.4354 28.9917 17.703 27.868 17.703C27.2794 17.703 26.8514 17.6494 26.8514 17.6494L25.8882 15.3486C25.8882 15.3486 25.7277 13.9574 25.6742 13.8503C25.6207 13.7433 25.6742 12.2986 25.6742 12.2986L26.2093 12.1381L27.1189 12.2986L27.547 12.4056C28.7242 12.6196 29.7408 13.4223 30.2224 14.4924C30.4899 14.974 30.597 15.4556 30.597 15.9907Z" fill="#572627"/>
<path d="M30.5974 15.9906C30.5974 17.4354 28.9921 17.7029 27.8685 17.7029C29.6342 17.4354 30.2228 16.5257 30.2228 15.9371C30.1158 13.7968 27.4404 13.0477 27.4404 13.0477C27.4404 13.0477 27.2799 12.6731 27.1729 12.3521L27.6009 12.4591C28.7781 12.6731 29.7948 13.4757 30.2763 14.5459C30.4904 14.974 30.5974 15.4555 30.5974 15.9906Z" fill="#743234"/>
<path d="M21.5544 18.2915V20.6994C21.5544 20.6994 20.1096 23.6424 17.3272 22.8932C16.7921 22.7327 16.4175 22.5187 16.0965 22.3046C14.4912 21.0739 15.6684 18.9336 16.7386 17.7564C18.0228 16.3652 20.0561 16.9538 20.0561 16.9538L20.4307 17.2748L21.5544 18.2915Z" fill="#46161C"/>
<path d="M27.0127 97.6982L27.4943 100.427H28.1364L28.5109 98.1263L27.0127 97.6982Z" fill="#961423"/>
<path d="M19.4682 57.7274C19.4146 64.5229 18.8261 70.9975 18.8261 70.9975L18.398 72.0142L17.4348 93.7386L17.3278 95.6114H15.669C15.562 95.0229 15.4015 94.2737 15.241 93.4176C14.0638 88.3343 11.2813 79.6124 11.2813 78.5957C11.2813 76.5624 13.1006 70.944 13.1006 70.944C13.1006 70.944 8.98047 58.637 8.98047 49.1125C8.98047 46.9721 11.4419 44.8318 11.4419 44.8318L18.4515 45.6879C18.505 45.902 18.5585 46.0625 18.612 46.2765C18.7725 47.0256 18.9331 47.9353 19.0401 48.8449C19.3611 51.4669 19.4682 54.6239 19.4682 57.7274Z" fill="#933C5E"/>
<path d="M25.1407 46.3835L25.0872 46.437C24.2846 47.1327 22.0907 47.9353 18.9337 47.6677C17.1144 47.5072 14.9741 46.9186 12.6197 45.7949C12.1916 45.5809 11.7636 45.3669 11.3355 45.0993C11.2285 45.0458 11.068 44.9388 10.9609 44.8853C14.3855 40.7651 14.3855 40.7651 14.3855 40.7651C14.3855 40.7651 15.9372 37.5011 15.1346 30.9196C15.1346 30.866 15.1346 30.8125 15.1346 30.7055C14.332 25.9433 13.8504 24.124 13.8504 24.124L14.653 23.1073H18.3451C18.3451 23.1073 20.5925 24.2845 20.8065 24.4985C21.0206 24.7126 24.6056 31.1336 24.6056 31.1336C24.6056 31.1336 24.5521 31.3476 24.4451 31.7222C24.3916 31.9362 24.3381 32.1503 24.2846 32.4178C24.1776 32.7924 24.0705 33.2739 23.9635 33.7555C23.696 34.9862 23.4284 36.538 23.2144 38.1432C23.1074 38.9994 23.0004 39.8555 22.9469 40.7116C23.0004 40.9257 23.0539 41.0862 23.1074 41.2467C23.2144 41.5678 23.3214 41.8353 23.3749 42.0493C24.1776 44.2432 24.6591 44.9388 25.1407 46.3835Z" fill="url(#paint1_linear_414_1459)"/>
<path d="M25.7281 31.0266C25.5676 31.4547 25.3 31.8827 24.8719 32.2573C24.6044 32.5248 23.7483 32.5783 22.6781 32.5248C20.1632 32.4713 16.5246 31.8827 16.5246 31.8827C16.9527 30.8661 17.8088 28.8863 17.2737 26.4249C17.0062 25.1407 16.3641 23.6959 15.0264 22.1977L18.4509 21.9836L20.4307 22.1442C20.9123 22.1977 21.3404 22.3582 21.7685 22.5722C22.25 22.8398 22.6246 23.2678 22.8921 23.8029C23.2667 24.4985 23.6413 25.3012 23.9088 25.7828V25.8363C23.9623 25.8898 23.9623 25.9433 24.0158 26.0503C24.1228 26.2643 24.2834 26.5319 24.3904 26.7459C24.4439 26.8529 24.4974 26.9599 24.5509 27.067C24.6579 27.2275 24.7114 27.388 24.8184 27.5485C24.872 27.6556 24.9255 27.7626 24.979 27.8696C24.979 27.8696 24.979 27.9231 25.0325 27.9231C25.0325 27.9766 25.086 28.0301 25.086 28.0836C25.086 28.1371 25.1395 28.1371 25.1395 28.1906C25.193 28.2977 25.2465 28.4047 25.3 28.5117C25.3 28.5652 25.3535 28.5652 25.3535 28.6187C25.407 28.7792 25.4605 28.8863 25.5141 28.9933C25.5141 28.9933 25.5141 29.0468 25.5676 29.0468C25.8351 29.6354 25.9956 30.331 25.7281 31.0266Z" fill="url(#paint2_linear_414_1459)"/>
<path d="M15.1865 97.6448L15.8286 101.337H16.7383L16.9523 99.5711L15.1865 97.6448Z" fill="#961423"/>
<path d="M21.3403 101.283C21.2868 101.283 21.2868 101.337 21.3403 101.283H18.2368C18.2368 101.283 17.0061 101.23 15.2403 97.6448C14.8658 96.3071 15.7219 95.665 15.7219 95.665C15.7754 96.093 16.4175 101.176 19.628 99.1965C19.628 99.1965 20.3236 99.5176 20.7517 99.7851C21.3403 100.16 21.5008 100.588 21.3403 101.283Z" fill="url(#paint3_linear_414_1459)"/>
<path d="M33.1129 100.16L33.0594 100.427H30.812C30.5444 100.213 30.3304 99.9456 30.1164 99.6781C29.5813 98.929 28.8322 98.3404 27.9225 98.0728L26.9594 97.7518C26.5848 95.986 27.3339 95.7184 27.3339 95.7184C27.3339 95.7184 27.3339 95.7184 27.3874 95.772L27.4409 95.8255C27.9225 96.307 29.9023 98.2333 30.2234 98.3939C30.598 98.6079 31.4541 98.8219 31.4006 98.3404C31.9357 98.6079 32.3637 98.8755 32.5778 99.0895C33.0058 99.25 33.2199 99.7316 33.1129 100.16Z" fill="url(#paint4_linear_414_1459)"/>
<path d="M17.7551 27.0134C17.7015 27.7625 17.5945 28.7257 17.3805 29.7959C17.3805 29.9029 17.327 30.0099 17.327 30.1169C16.3638 28.4046 14.384 27.2274 12.3507 27.388C12.1902 27.388 12.0296 27.4415 11.9226 27.4415C11.8691 27.4415 11.8156 27.495 11.7621 27.5485C11.7621 27.495 11.6551 23.6424 15.0796 22.1976C15.1331 22.2511 15.1331 22.2511 15.1866 22.3046C15.6147 22.7862 17.8621 24.9801 17.7551 27.0134Z" fill="#FAD0AF"/>
<path d="M12.9394 28.8863C12.9394 28.8863 12.9394 28.8863 12.8859 29.9029C11.7623 29.7424 11.3877 28.9933 11.3877 28.9933C11.3877 28.9933 11.7087 28.8863 12.2973 28.8863C12.4579 28.8328 12.6719 28.8328 12.9394 28.8863Z" fill="#A76A3F"/>
<path d="M26.3705 28.8862C26.103 28.8862 25.7819 28.9397 25.5679 28.9932C25.5144 28.8862 25.4609 28.7257 25.4073 28.6187C25.4073 28.5652 25.3538 28.5652 25.3538 28.5117C25.3003 28.4046 25.2468 28.2976 25.1933 28.1906C25.1933 28.1371 25.1398 28.1371 25.1398 28.0836C25.0863 28.0301 25.0863 27.9766 25.0328 27.8696C24.9793 27.7625 24.9258 27.6555 24.8723 27.5485C24.7652 27.388 24.7117 27.2275 24.6047 27.0669C24.5512 26.9599 24.4977 26.8529 24.4442 26.7459C24.3372 26.5318 24.2302 26.2643 24.0696 26.0503C24.0161 25.9968 24.0161 25.9432 23.9626 25.8362V25.7827C23.6951 25.3011 23.267 24.4985 22.9459 23.8029C22.6784 23.2678 22.3038 22.8933 21.8223 22.5722C21.8223 22.5722 24.6582 23.4819 26.0494 27.7625C26.103 28.1906 26.2635 28.5117 26.3705 28.8862Z" fill="#FAD0AF"/>
<path d="M26.3701 28.8862C26.2096 28.8862 26.0491 28.8862 25.8886 28.9397C25.8886 28.9397 25.8886 28.9397 25.8351 28.9397C25.728 28.9397 25.621 28.9932 25.5675 28.9932C25.514 28.8862 25.4605 28.7792 25.407 28.6722C25.407 28.6186 25.3535 28.5651 25.3535 28.5651C25.3 28.4581 25.2465 28.3511 25.193 28.2441C25.193 28.1906 25.1394 28.1906 25.1394 28.1371C25.1394 28.0836 25.0859 28.0301 25.0859 28.0301C25.193 28.0301 25.3535 27.9765 25.514 27.9765C25.6745 27.9765 25.8351 27.923 26.0491 27.923C26.1561 28.1906 26.2631 28.5116 26.3701 28.8862Z" fill="white"/>
<path d="M26.1037 29.6354C25.8896 28.9397 25.8896 28.9397 25.8896 28.9397C26.0502 28.8862 26.2642 28.8862 26.4247 28.8862C26.3712 28.8862 26.4782 29.3143 26.1037 29.6354Z" fill="#A76A3F"/>
<path d="M21.6084 22.3046C21.6084 22.3046 22.5715 24.0169 21.2873 24.0169C20.0031 24.0169 18.5049 22.0371 18.5049 22.0371C18.5049 22.0371 20.0031 21.1275 20.5382 18.2915L22.2505 18.7196C22.3575 19.3082 22.09 20.5389 21.8759 21.395C21.7154 21.9301 21.6084 22.3046 21.6084 22.3046Z" fill="url(#paint5_linear_414_1459)"/>
<path d="M28.2434 16.6863V16.7398C28.1899 16.9003 28.1364 17.0609 28.0829 17.2214C27.9758 17.4889 27.8688 17.7565 27.8153 18.024C27.7618 18.1845 27.7618 18.3451 27.7083 18.5056C27.7083 18.6126 27.7083 18.7196 27.7083 18.8266C27.6013 19.5758 27.2802 20.1644 26.8522 20.5924C25.675 21.7161 23.6417 21.8231 22.4645 21.2345C22.3039 21.181 22.1969 21.074 22.0364 20.967C21.1803 20.3784 20.5917 19.3082 20.8057 18.3986C20.3241 17.2214 20.3776 16.5793 21.0197 15.1881C22.0899 12.8337 24.4443 11.5495 26.4241 12.2451C26.5311 12.2986 26.5846 12.2986 26.6381 12.3521C27.1732 12.5661 27.6013 12.9407 27.9223 13.3688C28.1364 13.6363 28.2969 13.9574 28.4574 14.2249C28.4574 14.2784 28.5109 14.3319 28.5109 14.4389C28.725 15.1881 28.5109 15.9372 28.2434 16.6863Z" fill="url(#paint6_linear_414_1459)"/>
<path opacity="0.15" d="M26.6917 15.9906L25.9426 16.9538L25.8356 16.6327L25.7285 16.4187L25.6215 16.3117L25.247 16.2582L24.4443 16.3117L24.6049 15.4555C24.7654 15.4555 24.8724 15.402 24.9794 15.402C25.1935 15.3485 25.4075 15.3485 25.6215 15.3485C25.8356 15.3485 26.0496 15.402 26.2101 15.509C26.4242 15.5625 26.5847 15.7766 26.6917 15.9906Z" fill="#DB6951"/>
<path d="M22.8383 14.974C22.1427 15.1345 21.6611 15.7231 21.4471 16.3117C21.2866 16.6863 21.2866 17.0073 21.3401 17.2214C21.019 17.0608 19.7883 15.8301 20.3769 14.0108C20.8585 12.5661 22.4103 11.7635 23.0524 12.5126C23.0524 12.5126 23.0524 12.5126 23.1059 12.5661C23.3199 12.7801 23.4269 13.0477 23.5339 13.2617C23.5874 13.3687 23.6409 13.5293 23.6409 13.6363C23.748 14.2249 23.5339 14.76 22.8383 14.974Z" fill="#743234"/>
<path d="M21.3402 31.4011C21.0192 31.3476 20.7516 31.3476 20.4306 31.2941C20.3236 31.2941 20.2165 31.2406 20.1095 31.1871C18.3973 30.4915 17.8622 27.388 17.7551 26.4783C17.7551 26.6389 17.8087 26.8529 17.7551 27.0134C17.7016 27.7625 17.5946 28.7257 17.3806 29.7959C17.3806 29.9029 17.3271 30.0099 17.3271 30.1169C17.2736 30.331 17.2201 30.5985 17.1666 30.8125C16.578 30.8125 15.9359 30.866 15.6683 30.866C15.5613 30.866 15.3473 30.866 15.0262 30.9195C15.8288 37.4476 14.2771 40.7651 14.2771 40.7651L10.8525 44.8853C11.4411 45.2063 11.9762 45.5274 12.5113 45.7949C13.742 45.4739 14.5981 44.8318 15.2402 44.0292C15.9894 43.066 17.1666 42.5309 18.3973 42.4239L23.3736 42.1028C23.2665 41.8353 23.1595 41.5678 23.106 41.3002H16.5245C17.2736 38.2502 16.6315 34.7187 17.3271 34.1836C18.2367 33.4345 22.3034 33.702 23.9621 33.809C24.0692 33.2739 24.1762 32.8459 24.2832 32.4713C24.5507 32.4178 24.7648 32.3643 24.8718 32.2573C25.3534 31.8292 25.6209 31.4546 25.7279 31.0266C25.7279 31.0266 23.4806 31.6152 21.3402 31.4011Z" fill="#F28D55"/>
<path d="M21.8227 17.9704C21.7157 18.1845 21.5552 18.345 21.3411 18.3985C21.1271 18.452 20.9131 18.452 20.7525 18.3985C20.699 18.3985 20.6455 18.345 20.592 18.345C20.4315 18.238 20.271 18.0775 20.1639 17.9169C20.1104 17.8099 20.0569 17.7029 20.0034 17.5959C19.9499 17.3818 19.8964 17.1678 19.9499 16.9538C20.0034 16.5257 20.2174 16.2047 20.5385 16.0976C20.699 16.0441 20.806 16.0441 20.9666 16.0441C21.3411 16.0976 21.7692 16.4722 21.9297 16.9538C21.9832 17.2748 21.9297 17.6494 21.8227 17.9704Z" fill="url(#paint7_linear_414_1459)"/>
<path d="M16.0965 22.1977V22.2512C14.4912 21.0205 15.6684 18.8801 16.7386 17.7029C17.8088 16.5258 19.414 16.7398 19.8956 16.8468C19.8956 17.0608 19.8956 17.2749 19.9491 17.4889C20.0026 17.5959 20.0561 17.7029 20.1096 17.81C19.414 17.9705 14.9728 18.7196 16.0965 22.1977Z" fill="#743234"/>
<path d="M28.4041 16.8468C28.6716 16.3652 28.7786 15.9907 28.8321 15.6161C28.8856 15.0275 28.6181 14.5994 28.4041 14.2249C28.4576 14.7064 28.4576 15.081 28.3506 15.3486C28.083 16.1512 27.3874 16.3652 27.3874 16.3652C27.3874 16.3652 27.3874 16.3652 27.3874 16.3117C27.4944 16.0977 27.762 15.4556 27.6014 14.2249C27.3874 12.8872 24.7655 14.2784 23.6418 13.6363C23.4813 13.5828 23.3743 13.4222 23.3207 13.3152C23.2672 13.2617 23.2672 13.2082 23.2672 13.1547C23.2137 12.9407 23.1602 12.7266 23.1602 12.5661C23.0532 10.6398 25.8356 9.4626 28.3506 11.2284C31.026 13.1012 29.0462 16.5792 28.4041 16.8468Z" fill="#743234"/>
<path opacity="0.5" d="M21.9292 20.967C21.8757 21.1275 21.8757 21.288 21.8222 21.4485C21.3941 21.181 20.6985 20.5924 20.431 19.6292C19.6819 21.8231 18.4512 22.0906 18.4512 22.0906C18.4512 22.0906 19.9494 21.181 20.4845 18.345H20.538C20.5915 18.3985 20.645 18.3985 20.6985 18.3985C20.538 19.3082 21.0731 20.3249 21.9292 20.967Z" fill="#DB6951"/>
<path d="M17.0604 31.2941C17.0069 31.5082 16.9534 31.7757 16.8999 31.9897C16.3113 34.5581 15.5622 37.2336 15.0806 38.8388C14.813 39.7485 14.6525 40.3371 14.6525 40.3371L12.2981 40.1765C12.1911 39.4274 12.5657 34.5046 12.7797 30.3845C12.8332 29.8494 12.8332 29.3678 12.8332 28.8862C14.2244 28.8862 16.0972 29.3678 17.0604 31.2941Z" fill="url(#paint8_linear_414_1459)"/>
<path d="M32.3104 41.8353C32.2569 41.8888 32.2034 41.8888 32.1499 41.8888C32.0964 41.8888 32.0428 41.8888 31.9893 41.8353L31.2402 41.3537L31.7753 41.9423C31.8823 42.0493 31.8823 42.2099 31.7753 42.3169C31.7218 42.3704 31.6683 42.3704 31.6148 42.3704C31.5613 42.3704 31.5078 42.3704 31.5078 42.3169L30.7586 41.8888L30.9192 42.1028C31.0262 42.2634 31.0262 42.4774 30.8657 42.5844C30.8121 42.6379 30.7586 42.6379 30.7051 42.6379C30.6516 42.6379 30.5981 42.6379 30.5446 42.5844L30.2236 42.3704L29.956 42.4239C29.7955 42.4239 29.635 42.4239 29.5279 42.3169L28.6183 41.5678L28.0297 41.3002H13.5289C13.2078 41.3002 12.9403 41.1932 12.7262 40.9792C12.3517 40.6046 12.2447 40.0695 12.4587 39.6414C12.5657 39.4274 12.6727 39.2134 12.7797 38.9993C13.1543 38.4107 13.6894 37.8222 14.385 37.6081C14.7596 37.5011 15.1341 37.5011 15.5087 37.5011C18.1306 37.5546 21.7692 39.4274 28.4043 39.802H28.6718L29.9025 39.7485C30.1165 39.7485 30.3306 39.802 30.5446 39.909C30.7051 39.9625 30.8121 40.0695 30.9727 40.23L32.3104 41.3537C32.4709 41.5142 32.4174 41.7283 32.3104 41.8353Z" fill="url(#paint9_linear_414_1459)"/>
<path d="M31.4008 38.7853L30.9727 38.9994L30.7052 39.0529L30.6517 39.1064C30.6517 39.1064 29.207 39.4274 28.6719 39.802L29.9026 39.7485C30.1166 39.7485 30.3306 39.802 30.5447 39.909L30.9727 39.5345C31.4543 39.3204 31.6684 39.1064 31.7754 38.9459C31.6684 38.8924 31.5613 38.8388 31.4008 38.7853Z" fill="url(#paint10_linear_414_1459)"/>
<path d="M31.7756 38.8388C31.7221 38.7853 31.6685 38.7318 31.5615 38.6783H31.615C31.6685 38.6248 31.7756 38.6783 31.7756 38.7853V38.8388Z" fill="url(#paint11_linear_414_1459)"/>
<path opacity="0.5" d="M21.5555 17.0073C21.502 16.9538 21.502 16.9538 21.5555 17.0073C21.2345 16.3117 20.5389 16.3652 20.5389 16.3652C20.4854 16.3652 20.4854 16.3652 20.4854 16.4187C20.4854 16.4722 20.4854 16.4722 20.5389 16.4722C20.5389 16.4722 21.0204 16.4722 21.3415 16.8468C20.9669 16.6863 20.6459 17.0073 20.6459 17.0073V17.0608C20.6459 17.0608 20.6459 17.0608 20.6994 17.0608C20.6994 17.0608 20.6994 17.0608 20.7529 17.0608C20.7529 17.0608 21.1275 16.6863 21.502 17.0073C21.7696 17.6494 21.3415 18.0775 21.3415 18.0775V18.131C21.3415 18.131 21.3415 18.131 21.395 18.131C21.395 18.131 21.395 18.131 21.4485 18.131C21.3415 18.1845 21.8231 17.7029 21.5555 17.0073Z" fill="#DB6951"/>
<path opacity="0.5" d="M25.5684 19.0406C25.6754 18.9871 25.7824 18.9871 25.9429 19.0406C25.9964 19.0406 26.0499 19.0941 26.1034 19.1476C26.157 19.2011 26.157 19.2547 26.157 19.3082C26.1034 19.2011 26.0499 19.1476 25.9429 19.0941C25.8359 19.0941 25.6754 19.0941 25.5684 19.0406Z" fill="#DB6951"/>
<path opacity="0.5" d="M23.5879 19.8968C23.6414 20.0038 23.7484 20.0573 23.8019 20.1108C23.9089 20.1643 24.016 20.2178 24.123 20.2178C24.23 20.2178 24.337 20.2178 24.444 20.2178H24.6046C24.6581 20.2178 24.7116 20.2178 24.7651 20.2178C24.7116 20.2178 24.6581 20.2714 24.6046 20.2714C24.551 20.2714 24.4975 20.2713 24.444 20.3249C24.337 20.3249 24.23 20.3249 24.123 20.3249C24.016 20.3249 23.9089 20.2713 23.8019 20.2178C23.6949 20.1108 23.5879 20.0038 23.5879 19.8968Z" fill="#DB6951"/>
<path d="M51.9465 95.772C51.9465 95.3975 51.6254 95.0764 51.2509 95.0764H48.5754C48.2009 95.0764 47.8798 95.3975 47.8798 95.772C47.8798 95.879 47.8263 95.9861 47.8263 96.0931L44.5088 100.16H45.3114L49.3781 96.2536C49.4851 96.0396 49.6991 95.9326 49.9667 95.9326C50.1807 95.9326 50.3947 96.0396 50.5553 96.2536L54.6219 100.16H55.4245L52.107 96.0931C52 95.9861 51.9465 95.879 51.9465 95.772Z" fill="#362742"/>
<path d="M55.5846 55.3195H44.2943C41.5653 55.3195 39.425 52.9116 39.6925 50.1827C40.3346 44.4037 41.8864 40.9257 42.9031 39.3204C42.9031 39.2669 42.9566 39.2134 42.9566 39.2134C43.4381 38.4108 43.7057 37.5011 43.7057 36.538V32.6853C43.7057 32.0967 43.5452 31.5082 43.2776 30.9731C43.0101 30.438 42.6355 29.9564 42.1004 29.6354C41.5118 29.2073 41.1373 28.5117 41.1373 27.8161V26.8529C41.1373 25.4082 41.0838 24.0169 41.8864 22.8933C41.9934 22.7327 42.1539 22.5722 42.3145 22.4117C43.1171 21.5556 44.1338 20.8599 45.2574 20.4854C46.4346 20.1108 47.7723 19.0407 47.7723 17.81V13.3687C47.7723 13.2082 48.7355 13.1012 49.8592 13.1012C51.0364 13.1012 51.946 13.2082 51.946 13.3687V17.81C51.946 19.0407 53.2837 20.1108 54.4609 20.4854C55.8521 20.9135 57.0293 21.7696 57.832 22.8933C58.6346 24.0169 58.5811 25.4082 58.5811 26.8529V27.8161C58.5811 28.5652 58.2065 29.2073 57.6179 29.6354C57.1363 30.0099 56.7083 30.438 56.4407 30.9731C56.1732 31.5082 56.0127 32.0967 56.0127 32.6853V36.538C56.0127 37.5011 56.2802 38.4108 56.7618 39.2134C57.7249 40.8187 59.3837 44.2967 60.0258 50.2362C60.4539 52.9116 58.3135 55.3195 55.5846 55.3195Z" fill="url(#paint12_linear_414_1459)"/>
<path d="M53.4972 56.3897H46.327C45.7384 56.3897 45.2568 55.9081 45.2568 55.3195H54.5673C54.5673 55.9081 54.0858 56.3897 53.4972 56.3897Z" fill="#362742"/>
<path d="M51.6779 57.2458H48.1999C47.7183 57.2458 47.3438 56.8712 47.3438 56.3896H52.5341C52.5341 56.8177 52.1595 57.2458 51.6779 57.2458Z" fill="#362742"/>
<path d="M50.6623 57.2458H49.1641V94.8088H50.6623V57.2458Z" fill="url(#paint13_linear_414_1459)"/>
<path d="M50.5011 96.4676H49.4309C48.8958 96.4676 48.4678 96.0396 48.4678 95.5045C48.4678 94.9694 48.8958 94.5413 49.4309 94.5413H50.5011C51.0362 94.5413 51.4643 94.9694 51.4643 95.5045C51.4107 96.0396 50.9827 96.4676 50.5011 96.4676Z" fill="#362742"/>
<path d="M45.4188 100.16H44.5627C44.4557 100.16 44.3486 100.053 44.3486 99.9456C44.3486 99.8386 44.4557 99.7316 44.5627 99.7316H45.4188C45.5258 99.7316 45.6328 99.8386 45.6328 99.9456C45.6328 100.053 45.5258 100.16 45.4188 100.16Z" fill="#362742"/>
<path d="M55.3182 100.16H54.4621C54.3551 100.16 54.248 100.053 54.248 99.9456C54.248 99.8386 54.3551 99.7316 54.4621 99.7316H55.3182C55.4252 99.7316 55.5323 99.8386 55.5323 99.9456C55.5323 100.053 55.4252 100.16 55.3182 100.16Z" fill="#362742"/>
<path opacity="0.5" d="M49.9678 40.5511C49.9678 40.8187 49.9678 41.0862 49.9678 41.3537C49.9678 41.4072 49.9678 41.5143 49.9678 41.5678C49.8607 41.0862 49.7537 40.6046 49.6467 40.0695C48.7906 36.4309 47.1853 31.8292 45.5801 28.4047C45.366 27.9231 45.0985 27.495 44.8844 27.0669C44.2423 25.8898 43.6002 24.9266 43.0116 24.3915C44.2959 23.5889 44.2959 23.5889 44.2959 23.5889L42.4766 22.4117C42.4766 22.4117 42.5836 22.1442 42.8511 21.7696C43.1722 21.395 43.6538 21.0205 44.3494 20.9135C44.3494 20.9135 44.5634 21.2345 44.8844 21.7696C45.0985 22.1442 45.3125 22.5722 45.6336 23.1073C45.9546 23.7494 46.3292 24.552 46.7037 25.4082C48.1485 28.9933 49.9678 34.4511 49.9678 40.5511Z" fill="#326160"/>
<path opacity="0.5" d="M55.6932 23.5889C55.6932 23.5889 55.6932 23.5889 56.9774 24.3915C54.3555 26.9064 51.0915 36.1099 49.9678 41.6213C49.9678 41.3002 49.9678 40.9257 49.9678 40.6046C49.9678 34.5046 51.7871 29.0468 53.3388 25.4082C54.5695 22.6257 55.6397 20.9135 55.6397 20.9135C57.0844 21.1275 57.566 22.4117 57.566 22.4117L55.6932 23.5889Z" fill="#326160"/>
<path d="M49.9154 41.3537C49.9154 41.4072 49.9154 41.5142 49.9154 41.5678C49.1663 37.7686 47.4005 32.2573 45.4742 28.3511C45.4742 28.3511 45.4742 28.3511 45.4742 28.2976C45.4207 28.2441 45.4207 28.1906 45.3672 28.0836C45.3672 28.0301 45.3136 28.0301 45.3136 27.9766C45.2601 27.8696 45.2066 27.816 45.1531 27.709C45.1531 27.709 45.1531 27.6555 45.0996 27.6555C45.0461 27.5485 44.9926 27.4415 44.9391 27.388V27.3345C44.8856 27.2275 44.8321 27.1204 44.7786 27.0669C44.1365 25.8897 43.4944 24.9266 42.9058 24.3915C44.19 23.5889 44.19 23.5889 44.19 23.5889L42.3707 22.4117C42.2101 22.5722 41.8356 22.5722 41.6751 22.7862C40.8724 23.9099 41.1935 25.4082 41.1935 26.9064V27.8696C41.1935 28.6187 41.568 29.2608 42.1566 29.6889C42.6382 30.0634 43.0663 30.4915 43.3338 31.0266C43.6014 31.5617 43.7619 32.1502 43.7619 32.7388V36.5915C43.7619 37.2336 43.6549 37.9292 43.3873 38.5178C43.3873 38.5178 39.2137 43.7081 39.1602 55.6405C39.1602 56.3896 39.1602 57.1388 39.2137 57.8879C40.5514 60.9379 46.7584 62.0616 48.2031 60.3493C48.4707 60.0817 48.6847 59.4396 48.8452 58.637C49.7549 54.5168 49.9154 44.9923 50.0224 41.6748C49.9689 41.5143 49.9689 41.4607 49.9154 41.3537Z" fill="url(#paint14_linear_414_1459)"/>
<path d="M49.915 41.5678C50.0221 45.5809 50.2361 58.4765 51.6808 60.2423C53.1791 62.0081 59.3861 60.8844 60.6703 57.7809C61.2054 44.2432 56.4966 38.4108 56.4966 38.4108C56.2291 37.8222 56.122 37.1266 56.122 36.4845V32.6318C56.122 32.0433 56.2826 31.4547 56.5501 30.9196C56.8176 30.3845 57.1922 29.9029 57.7273 29.5819C58.3159 29.1538 58.6904 28.4582 58.6904 27.7626V26.7994C58.6904 25.3547 59.0115 23.8029 58.1554 22.6792C58.0483 22.5187 57.6738 22.4652 57.5133 22.3047L55.694 23.4819C55.694 23.4819 55.694 23.4819 56.9782 24.2845C56.3896 24.8731 55.7475 25.8363 55.1054 26.9599C55.0519 27.067 54.9984 27.174 54.9448 27.2275V27.281C54.8913 27.388 54.8378 27.4415 54.7843 27.5485C54.7843 27.5485 54.7843 27.602 54.7308 27.602C54.6773 27.7091 54.6238 27.7626 54.5703 27.8696C54.5703 27.9231 54.5168 27.9231 54.5168 27.9766C54.4633 28.0301 54.4633 28.0836 54.4098 28.1906C54.4098 28.2441 54.3563 28.2441 54.3563 28.2977C52.4834 32.3108 50.7177 37.8222 49.915 41.5678C49.9685 41.5143 49.9685 41.4073 49.9685 41.3538C49.9685 41.4608 49.915 41.5143 49.915 41.5678Z" fill="url(#paint15_linear_414_1459)"/>
<path opacity="0.5" d="M48.7905 58.53C48.63 59.3326 48.416 59.9747 48.1484 60.2423C46.6502 62.008 40.4432 60.8844 39.159 57.7809C39.1055 57.0317 39.1055 56.2826 39.1055 55.5335C40.4432 56.9782 43.8142 59.7607 48.7905 58.53Z" fill="white"/>
<path opacity="0.5" d="M51.0918 58.53C51.2523 59.3326 51.4664 59.9747 51.7339 60.2423C53.2321 62.008 59.4391 60.8844 60.7233 57.7809C60.7769 57.0317 60.7769 56.2826 60.7769 55.5335C59.4926 56.9782 56.1216 59.7607 51.0918 58.53Z" fill="white"/>
<path opacity="0.5" d="M51.0915 41.9423C51.0915 42.1563 50.931 42.3704 50.6634 42.3704C50.4494 42.3704 50.2354 42.2098 50.2354 41.9423C50.2354 41.7283 50.3959 41.5142 50.6634 41.5142C50.8775 41.5142 51.0915 41.6747 51.0915 41.9423Z" fill="#326160"/>
<path opacity="0.5" d="M51.1979 45.3133C51.1979 45.5274 51.0374 45.7414 50.7699 45.7414C50.5558 45.7414 50.3418 45.5809 50.3418 45.3133C50.3418 45.0993 50.5023 44.8853 50.7699 44.8853C51.0374 44.8853 51.1979 45.0458 51.1979 45.3133Z" fill="#326160"/>
<path opacity="0.5" d="M51.3054 48.6844C51.3054 48.8985 51.1448 49.1125 50.8773 49.1125C50.6097 49.1125 50.4492 48.952 50.4492 48.6844C50.4492 48.4704 50.6097 48.2563 50.8773 48.2563C51.1448 48.2563 51.3054 48.4704 51.3054 48.6844Z" fill="#326160"/>
<path d="M59.7601 51.2529C59.7601 51.4134 59.0109 51.5204 58.0478 51.5739C57.8873 51.5739 57.7267 51.5739 57.5662 51.5739C56.3355 51.5739 55.3724 51.4134 55.3724 51.2529C54.6767 42.5845 54.9978 35.0397 54.9978 30.8126C54.9978 27.6556 56.8706 24.6056 57.7267 23.3214C57.9943 22.9468 58.2083 22.6793 58.2083 22.6793C61.9539 27.0135 59.7601 51.2529 59.7601 51.2529Z" fill="#8DBAC4"/>
<path opacity="0.25" d="M59.7599 51.2528C59.7599 51.4133 59.0108 51.5204 58.0476 51.5739C59.8134 43.066 58.1011 26.7459 57.7266 23.3748C57.9941 23.0003 58.2081 22.7327 58.2081 22.7327C61.9537 27.0134 59.7599 51.2528 59.7599 51.2528Z" fill="#326160"/>
<path d="M44.9918 39.3204C44.9918 42.7985 44.8848 46.8651 44.5638 51.2528C44.5638 51.4133 43.5471 51.5739 42.3699 51.5739C42.3164 51.5739 42.2094 51.5739 42.1559 51.5739C41.8348 51.5739 41.5138 51.5739 41.2462 51.5204C41.0857 51.5204 40.9252 51.4668 40.8182 51.4668C40.3901 51.4133 40.1761 51.3598 40.1761 51.2528C40.1761 51.2528 37.9822 27.0134 41.7813 22.7327C41.7813 22.7327 43.3866 24.7125 44.2962 27.3345C44.6708 28.4046 44.9383 29.6353 44.9383 30.866C44.8848 32.8994 44.9918 35.8423 44.9918 39.3204Z" fill="#8DBAC4"/>
<path d="M53.2851 25.3546C51.7333 28.9397 49.914 34.3976 49.914 40.5511C49.914 34.4511 48.1482 28.9932 46.543 25.4081C47.8272 25.7827 50.2886 26.3178 53.2851 25.3546Z" fill="#E8F1F3"/>
<path d="M17.3272 30.117C17.3272 30.1705 17.3271 30.224 17.2736 30.2775C17.2736 30.331 17.2736 30.331 17.2736 30.3845C17.2736 30.3845 17.2736 30.3845 17.2736 30.438C17.2736 30.4915 17.2736 30.4915 17.2736 30.545C17.2736 30.652 17.2201 30.8126 17.2201 30.9196C17.1666 31.0266 17.1666 31.1871 17.1131 31.2941C16.15 29.3678 14.2772 28.8863 12.9394 28.8863C12.7254 28.8863 12.5114 28.8863 12.2973 28.8863C11.7623 28.9398 11.3877 28.9933 11.3877 28.9933C11.3877 28.9933 11.4947 27.9766 11.7623 27.6021C11.8158 27.5485 11.8693 27.495 11.9228 27.495C12.0833 27.4415 12.2438 27.4415 12.3509 27.4415C12.5649 27.4415 12.7789 27.4415 12.993 27.4415C14.8122 27.495 16.471 28.6187 17.3272 30.117Z" fill="white"/>
<path d="M84.695 68.9642C88.173 62.7572 89.8318 50.7712 89.8318 50.7712L80.7353 42.6379C80.7353 42.6379 78.4345 59.0116 78.5415 68.9642L78.7555 69.8203L76.0801 97.8588C76.0801 97.8588 78.5415 98.929 79.2371 97.8588C81.0564 87.8527 86.0327 79.2913 86.0327 76.1878C86.0862 73.1378 84.695 68.9642 84.695 68.9642Z" fill="#2E2368"/>
<path d="M61.2575 18.131C61.1505 17.8635 60.99 17.4889 60.8295 17.2749C60.7224 17.1143 60.6154 16.9538 60.5084 16.7933C60.4014 16.6863 60.2944 16.5793 60.1874 16.4722C60.0803 16.3652 59.9198 16.2582 59.7593 16.1512C59.7593 16.1512 59.7593 16.1512 59.7058 16.0977L58.9031 15.6696L58.4216 16.0977L57.94 16.6328L57.5654 17.6494L58.2075 17.81C58.9031 19.0407 60.0803 19.6828 60.0803 19.6828L61.3645 18.3986C61.3645 18.3986 61.311 18.2915 61.2575 18.131Z" fill="#F2886B"/>
<path d="M82.7689 19.6293L82.0732 20.0038C82.0732 20.0038 82.3408 20.3249 82.3943 20.3249C82.4478 20.3249 82.7154 20.2714 82.7154 20.3249C82.7154 20.3784 82.9294 20.0573 82.9294 20.0573C83.0364 20.0573 82.7689 19.6293 82.7689 19.6293Z" fill="#D3CBF7"/>
<path d="M79.9333 29.3143C76.2947 31.4011 70.9438 32.4178 70.9438 32.4178C70.9438 32.4178 70.8368 32.4178 70.6763 32.4713C70.1412 32.5248 68.964 32.5783 68.3754 31.9897C61.5263 25.2476 60.9912 20.967 60.9912 20.967C61.5263 20.4854 62.1684 20.1108 62.864 19.8968H62.9175C67.6798 23.6424 71.0508 27.388 71.0508 27.388C71.0508 27.388 72.0675 27.1204 73.6727 26.3713C75.8666 25.3547 78.221 23.1608 79.1306 22.4117C79.2911 22.3047 79.3982 22.1977 79.4517 22.1977C80.3613 21.8231 82.6087 21.4485 82.6087 21.4485C82.6087 21.4485 79.7727 27.4415 79.9333 29.3143Z" fill="#D3CBF7"/>
<path d="M86.6209 20.2714L82.4472 20.6994L82.2332 19.2012V18.9872L81.9121 16.6328L85.1226 14.867L85.4437 16.0442L85.5507 16.4188L85.6042 16.4723L86.5138 20.0038L86.6209 20.2714Z" fill="url(#paint16_linear_414_1459)"/>
<path d="M89.5109 97.8588C89.5109 97.8588 87.9592 99.6246 85.3908 99.7851C84.8022 99.8386 84.5346 100.534 84.9092 101.016H92.8285C93.0425 100.267 92.9355 99.464 92.5609 98.7684L92.0793 97.9123H89.5109V97.8588Z" fill="#271F37"/>
<path d="M76.1867 97.8588C76.1867 97.8588 74.635 99.6246 72.0665 99.7851C71.478 99.8386 71.2104 100.534 71.585 101.016H79.5042C79.7183 100.267 79.6113 99.464 79.2367 98.7684L78.7551 97.9123H76.1867V97.8588Z" fill="#271F37"/>
<path d="M92.0798 41.7818C86.6754 44.6713 80.7894 42.6915 80.7894 42.6915C80.7359 42.531 80.6824 42.3704 80.6824 42.2634C80.6289 41.9424 80.5754 41.6748 80.5754 41.3538C80.5219 39.8555 81.164 38.5713 80.7359 36.645C80.3079 34.6652 79.8798 33.9696 79.6123 31.1871C79.5587 30.7591 79.5052 30.224 79.4517 29.6354C79.3982 29.2073 79.3982 28.7792 79.3447 28.2442C79.3447 28.0836 79.3447 27.8696 79.2912 27.7091C79.1307 24.4451 80.95 22.4652 82.0201 21.5556C82.0737 21.5021 82.1807 21.4486 82.2342 21.3951C82.2877 21.3416 82.3412 21.3416 82.3947 21.288C82.4482 21.2345 82.5017 21.181 82.5552 21.181C82.7158 21.074 82.7693 21.0205 82.7693 21.0205H82.8763L86.6219 20.3249C86.6219 20.3249 87.4245 21.1275 88.2271 22.1977C88.9763 23.1608 89.6719 24.2845 89.7789 25.2477C90.0464 27.388 89.9929 29.1538 89.7789 30.438C89.7254 30.652 89.7254 30.8661 89.7254 31.1336C89.6184 32.5784 89.6719 34.7722 89.7254 36.324C89.7254 36.645 89.7789 37.0196 89.8324 37.3406C89.9929 38.2503 90.3675 39.1064 90.9561 39.8555C91.1166 40.0696 91.3306 40.3371 91.5447 40.5511C91.8657 40.8722 91.9727 40.8722 92.1868 41.3538C92.1868 41.5143 92.1333 41.7283 92.0798 41.7818Z" fill="#E8E3F9"/>
<path d="M81.9659 39.8555C81.4309 40.9256 79.3975 42.1028 79.3975 42.1028L78.1668 41.4607L77.0432 41.2467L66.823 39.2669L66.2879 38.4107C66.2879 38.4107 66.2879 38.4107 63.88 37.6081C63.8265 37.3941 63.773 37.18 63.773 37.0195C63.7195 36.5914 63.8265 36.2169 63.9335 35.9493C64.0941 35.5748 64.2546 35.3072 64.2546 35.3072C64.3081 35.3072 66.823 35.4678 66.823 35.4678C68.9098 34.9862 78.5414 35.5213 78.5414 35.5213L79.0765 33.2204L79.6651 30.5985C79.6651 30.5985 80.7352 27.0134 81.2703 26.2643C81.9659 24.338 82.8221 23.2143 83.5712 22.4652C84.1063 21.9301 84.6414 21.6625 85.123 21.5555C85.8186 21.3415 86.2466 21.4485 86.2466 21.4485C86.3001 21.502 87.1563 22.3046 87.7984 23.5889C88.1194 24.231 88.387 24.9801 88.4405 25.8362C88.6545 34.0765 82.501 38.7853 81.9659 39.8555Z" fill="#E8E3F9"/>
<path d="M66.3418 38.2503C66.2347 38.0362 66.1812 37.7687 66.1277 37.5547C66.0742 37.2871 66.0742 37.0731 66.0742 36.8055C66.0742 36.6985 66.1277 36.538 66.1277 36.431C66.1812 36.324 66.2347 36.217 66.2883 36.1099C66.3418 36.0029 66.4488 35.8959 66.5023 35.8424C66.6093 35.7354 66.7163 35.6819 66.8233 35.6284C66.6093 35.7889 66.4488 35.9494 66.3418 36.1634C66.2347 36.3775 66.1812 36.5915 66.1277 36.8591C66.1277 37.0731 66.1277 37.3406 66.1277 37.5547C66.1277 37.6617 66.1812 37.7687 66.1812 37.9292C66.2883 37.9827 66.2883 38.1433 66.3418 38.2503Z" fill="#D3CBF7"/>
<path d="M92.6681 42.852C92.6681 42.852 92.6146 42.852 92.5076 42.9055C91.598 43.2265 87.0497 44.7783 80.8427 43.7081C80.7892 43.7081 80.6822 43.7081 80.6287 43.6546L80.5752 42.5844C80.5752 42.5844 80.6287 42.5844 80.7892 42.6379C81.8594 42.852 86.4076 43.6011 91.8655 41.8353C91.9725 41.7818 92.026 41.7818 92.133 41.7283L92.4006 42.2634L92.6681 42.852Z" fill="#271F37"/>
<path d="M62.917 19.8968C62.2214 20.8599 60.9372 21.0204 60.9372 21.0204C60.9372 21.0204 60.9372 21.0204 60.8837 20.9669C60.8302 20.8599 60.6161 20.5924 60.0811 19.7897C60.0811 18.5055 61.3117 18.2915 61.3117 18.2915L62.917 19.8968Z" fill="#D3CBF7"/>
<path d="M86.6217 20.2713C86.5682 20.3248 84.5883 21.395 82.6085 21.3415L82.555 21.1275L82.5015 20.9669L82.127 20.0038C82.127 20.0038 83.9998 19.8968 85.498 19.2547C85.7655 19.1477 85.9796 18.9871 86.2471 18.8801C86.3006 18.8801 86.3006 18.8266 86.3541 18.8266C86.6217 19.7362 86.6217 20.2713 86.6217 20.2713Z" fill="#F1EEFB"/>
<path d="M82.5013 21.1275C82.3943 21.181 82.2873 21.2345 82.1803 21.3415L82.0732 20.0038L82.5013 21.1275Z" fill="#D3CBF7"/>
<path d="M92.7219 91.0097C92.7219 91.0632 92.7219 91.1167 92.7219 91.1702C92.6684 91.5448 92.6149 91.9728 92.5614 92.3474C92.4008 93.5781 92.2938 94.9158 92.1868 96.2535C92.1333 96.7886 92.1333 97.3237 92.1333 97.8588C91.9728 97.9658 91.8657 98.0193 91.7052 98.0728C90.4745 98.5009 88.9763 97.8588 88.9763 97.8588C88.9763 97.2167 88.9763 96.5746 88.9763 95.8789C88.9228 93.364 88.8158 90.9027 88.6552 88.6018C88.3877 84.7492 87.9596 81.2711 87.5316 78.4887C86.8895 74.1009 86.2473 71.372 86.2473 71.372L85.6052 70.3553L85.7123 67.7334C84.2675 62.6501 83.2509 58.3694 82.5017 54.8379C81.3246 49.0589 81.0035 45.3133 80.8965 43.6546C87.1035 44.6712 91.6517 43.173 92.5614 42.8519C92.9894 43.6546 93.4175 44.6712 93.5245 45.6344C93.15 51.5738 91.8122 67.5194 91.7587 67.7334C91.8122 67.8404 94.5947 72.3887 94.7552 74.2615C95.1833 80.2544 93.6315 85.0167 92.7219 91.0097Z" fill="#392B69"/>
<path d="M85.6582 9.89069C85.6582 9.89069 85.8187 8.55298 87.745 8.55298C87.4775 8.66 86.5678 8.87403 86.5143 9.62315C87.2099 9.24859 87.7985 9.56964 87.7985 9.56964C87.7985 9.56964 86.4608 9.99771 86.6749 10.5328C86.1933 10.6933 85.6582 9.89069 85.6582 9.89069Z" fill="#572627"/>
<path d="M85.4975 15.402C85.4975 15.4555 85.444 15.4555 85.444 15.509L84.3739 15.6696L84.1063 15.7231L84.1598 16.2046L84.2668 17.3283L82.1265 19.1476L81.859 19.4152C81.4309 19.7362 80.9493 19.9502 80.4142 19.9502C80.1467 19.9502 79.9326 19.8432 79.7186 19.7362C79.5046 19.5757 79.3976 19.3617 79.3441 19.1476L79.0765 18.0774C78.809 16.9538 78.6484 15.8301 78.6484 14.6529V12.9941C78.6484 12.2985 78.8625 11.6029 79.237 11.0678C79.7721 10.2117 80.6818 9.62309 81.7519 9.46256C82.5546 9.35555 83.5712 9.35555 84.8019 9.6766C86.6747 10.0512 86.4607 13.7433 85.4975 15.402Z" fill="url(#paint17_linear_414_1459)"/>
<path d="M86.5145 13.9573C86.0329 14.867 85.3908 15.5626 85.3908 15.5626L84.4812 15.4021L84.2136 15.3486C83.5715 15.1345 83.2505 14.4389 83.518 13.7968C83.7321 13.3152 83.8391 12.7266 83.5715 12.2986C82.9294 11.2819 82.5014 12.6731 80.147 12.6731C79.5584 12.6731 79.0233 12.6196 78.5952 12.4591C77.418 12.031 77.097 11.1214 77.5786 9.99771C77.7926 9.46262 77.9531 9.14157 78.0066 8.92754C78.1137 8.7135 78.1672 8.60649 78.1672 8.55298C78.1137 8.65999 77.8461 9.89069 78.2207 10.3723C78.7558 9.56964 81.0566 7.00123 85.2303 9.14157C87.7987 10.3188 87.3171 12.4591 86.5145 13.9573Z" fill="#743234"/>
<path d="M85.7118 15.2415C85.7118 15.3485 85.7118 15.4555 85.6583 15.5626C85.4442 16.3652 84.8556 16.8468 84.3206 16.7397C84.267 16.7397 84.2135 16.7398 84.2135 16.6862C84.16 16.6327 84.053 16.5792 83.9995 16.5257C83.6784 16.2047 83.5714 15.6696 83.732 15.0275C83.732 14.974 83.732 14.9205 83.7855 14.9205C83.9995 14.2248 84.5881 13.7433 85.0697 13.9038C85.4977 14.0643 85.7653 14.5994 85.7118 15.2415Z" fill="url(#paint18_linear_414_1459)"/>
<path opacity="0.5" d="M85.2838 14.974C84.5882 14.8134 84.1601 15.1345 83.9996 15.3485C84.0531 14.6529 84.5347 14.3319 84.5882 14.3319C84.5882 14.3319 84.6417 14.2784 84.5882 14.2784C84.5882 14.2784 84.5347 14.2249 84.5347 14.2784C84.5347 14.2784 83.8926 14.7064 83.8926 15.5626C83.8926 15.8301 83.9996 16.1512 84.2136 16.5257C84.2136 16.5257 84.2136 16.5257 84.2671 16.5257C84.2671 16.5257 84.3206 16.4722 84.2671 16.4722C84.0531 16.1512 83.9996 15.8301 83.9461 15.5626C83.9996 15.5091 84.3742 14.9205 85.1768 15.1345C85.1768 15.1345 85.2303 15.1345 85.2303 15.081C85.3373 15.0275 85.2838 14.974 85.2838 14.974Z" fill="#DB6951"/>
<path d="M56.1214 54.1958C55.8003 41.7283 57.3521 34.023 60.7766 31.1871C64.9503 27.709 58.9038 16.4722 58.7968 16.3117L59.3319 16.0441C59.5994 16.5257 65.6994 27.8695 61.1512 31.6686C57.9406 34.3441 56.4424 42.1028 56.7099 54.1958H56.1214Z" fill="url(#paint19_linear_414_1459)"/>
<path d="M61.1511 17.2749L61.0976 16.7398C61.0441 16.4188 60.8301 16.0977 60.509 15.9907L60.402 15.9372C60.188 15.8837 59.9204 15.9372 59.7599 16.0977C59.7064 16.0977 59.7064 16.1512 59.6529 16.2047L59.3318 16.6328C59.3318 16.6863 59.2783 16.6863 59.2783 16.7398C59.2783 16.7933 59.2783 16.8468 59.3318 16.8468C59.3853 16.9003 59.4924 16.9003 59.5994 16.8468L59.9739 16.5793L60.0809 16.5258L60.4555 16.7933C60.5625 16.9538 60.6695 17.1144 60.7766 17.2749C60.9371 17.4889 61.0976 17.8635 61.2046 18.131L61.2581 18.1845L61.1511 17.2749Z" fill="url(#paint20_linear_414_1459)"/>
<path d="M59.2251 16.5258C59.2786 16.4723 59.3321 16.3652 59.2786 16.3117L58.9575 15.7766C58.904 15.6696 58.797 15.6696 58.69 15.7231L58.5295 15.8302C58.4225 15.8837 58.4225 16.0442 58.5295 16.0977L59.0111 16.5258C59.0646 16.5793 59.1716 16.5793 59.2251 16.5258Z" fill="url(#paint21_linear_414_1459)"/>
<path d="M58.9036 16.9003C58.9571 16.7933 58.9571 16.6863 58.9036 16.6327L58.422 16.0977C58.315 15.9906 58.208 15.9906 58.1009 16.0977L57.9404 16.2582C57.8869 16.3652 57.8869 16.5257 57.9939 16.5792L58.636 16.9003C58.743 17.0073 58.8501 17.0073 58.9036 16.9003Z" fill="url(#paint22_linear_414_1459)"/>
<path d="M58.5293 17.2749C58.5828 17.2214 58.5293 17.1143 58.4758 17.0608L57.9942 16.6863C57.8872 16.6328 57.7802 16.6328 57.7266 16.7398L57.6196 16.9003C57.5661 17.0073 57.6196 17.1143 57.7266 17.1678L58.3152 17.3284C58.4223 17.3819 58.4758 17.3284 58.5293 17.2749Z" fill="url(#paint23_linear_414_1459)"/>
<path d="M58.5821 17.8634C58.5821 17.7564 58.5286 17.7029 58.4751 17.6494L57.8865 17.4354C57.7795 17.3819 57.6724 17.4354 57.6189 17.5424L57.5654 17.7564C57.5654 17.8634 57.6189 17.9704 57.726 17.9704L58.3681 18.024C58.4751 18.024 58.5286 17.9704 58.5821 17.8634Z" fill="url(#paint24_linear_414_1459)"/>
<path d="M60.991 34.3976L58.3156 35.0397C58.2086 35.0397 58.1551 35.1467 58.1551 35.2537C58.1551 35.3607 58.2621 35.4678 58.3691 35.4678L59.9209 35.3072L58.2621 35.6283C58.1551 35.6283 58.1016 35.7353 58.1016 35.8423C58.1016 35.9493 58.2086 36.0028 58.3156 36.0028L59.9209 35.9493L58.4761 36.1099C58.3691 36.1099 58.2621 36.2169 58.2621 36.3774C58.2621 36.4844 58.3691 36.5379 58.4761 36.5379H58.5296V36.5914C58.5296 36.6985 58.6367 36.8055 58.7437 36.8055L61.2586 37.2335L60.991 34.3976Z" fill="#F2886B"/>
<path d="M63.7729 37.0195C63.5589 36.966 63.3983 36.966 63.2378 36.966C63.2378 36.966 62.3817 37.18 61.6326 37.2336C61.472 37.2336 61.3115 37.2336 61.151 37.18C60.7764 37.073 60.4019 36.8055 60.2413 36.4309C59.8668 35.7353 60.1343 34.8257 60.8834 34.5046C60.9905 34.4511 61.044 34.4511 61.151 34.4511C61.2045 34.4511 61.2045 34.4511 61.258 34.4511C62.2747 34.4511 63.5054 35.2537 63.5054 35.2537C63.6659 35.2537 63.8264 35.3072 63.9869 35.3072C64.0939 35.3072 64.201 35.3072 64.308 35.3608C64.2545 35.3072 63.7194 36.0029 63.7729 37.0195Z" fill="url(#paint25_linear_414_1459)"/>
<path opacity="0.15" d="M24.3371 18.9336C25.0168 18.9336 25.5678 18.5263 25.5678 18.024C25.5678 17.5216 25.0168 17.1143 24.3371 17.1143C23.6574 17.1143 23.1064 17.5216 23.1064 18.024C23.1064 18.5263 23.6574 18.9336 24.3371 18.9336Z" fill="#DB6951"/>
<path opacity="0.15" d="M27.6555 18.8266C27.5485 19.5757 27.2274 20.1643 26.7993 20.5924C26.6923 20.5388 26.6388 20.4318 26.5318 20.3248C26.1037 19.7897 26.1572 19.0941 26.5318 18.7731C26.8528 18.5055 27.2809 18.559 27.6555 18.8266Z" fill="#DB6951"/>
<path opacity="0.5" d="M27.3869 16.3117C27.3334 16.3652 27.3334 16.3652 27.3334 16.3652C27.815 15.188 27.2799 13.7433 26.7448 13.9038C25.7817 14.2249 24.9255 14.4389 24.0694 14.1178C24.2299 14.5459 23.9089 15.2415 23.4808 15.3485C23.0527 15.4556 22.0361 15.7231 21.8755 16.1512C22.4106 17.3819 21.8755 17.917 21.822 17.9705C21.9826 17.6494 21.9826 17.2748 21.8755 16.9003C21.7685 16.6327 21.6615 16.4187 21.501 16.2582C21.715 15.7231 22.1966 15.1345 22.8922 14.9205C23.5878 14.7599 23.8018 14.2249 23.6948 13.5828C24.8185 14.2249 27.4404 12.8336 27.6545 14.1714C27.7615 15.4556 27.4939 16.0977 27.3869 16.3117Z" fill="#DB6951"/>
<path opacity="0.5" d="M28.2432 16.6862C28.3502 16.2047 28.3502 15.7231 28.2967 15.3485C28.4037 15.0275 28.4572 14.6529 28.3502 14.2249C28.3502 14.2784 28.4037 14.3319 28.4037 14.4389C28.7247 15.188 28.5107 15.9371 28.2432 16.6862Z" fill="#DB6951"/>
<path opacity="0.5" d="M10.6929 47.7213C12.8333 56.6572 13.957 67.4124 14.0105 70.8905C14.064 74.3686 15.0271 89.2975 16.0973 95.665H15.7228C15.0807 91.5448 11.3351 79.8264 11.3351 78.6493C11.3351 76.6159 13.1543 70.9975 13.1543 70.9975C13.1543 70.9975 9.03418 58.6905 9.03418 49.166C9.03418 47.4002 10.6929 45.688 11.2815 45.0994C11.7096 45.3669 12.1377 45.5809 12.5657 45.795C14.9201 46.9722 17.0605 47.5072 18.8798 47.6678C18.9333 48.0423 18.9868 48.4704 19.0403 48.8985C17.5956 48.952 12.6193 49.0055 10.6929 47.7213Z" fill="#822B4F"/>
<path d="M19.5744 99.25C16.3639 101.176 15.7218 96.093 15.6683 95.7184C15.5613 95.1299 15.4008 94.3807 15.2402 93.5246C15.4543 93.6851 16.4174 94.4342 17.4341 93.8456L17.3271 96.0395C17.3271 95.986 18.3972 97.5912 19.5744 99.25Z" fill="url(#paint26_linear_414_1459)"/>
<path d="M31.4543 98.2869C31.5078 98.822 30.6517 98.5544 30.2771 98.3939C29.9561 98.2334 27.9763 96.3071 27.4947 95.8255L27.4412 95.772C27.3877 95.7185 27.3877 95.7185 27.3877 95.7185C27.3342 94.4343 27.2271 93.3106 27.1201 92.2939C27.1201 92.2939 28.5113 93.0966 29.635 92.4545C29.635 92.508 29.635 92.5615 29.635 92.615C29.4745 93.7387 29.314 94.7553 29.207 95.772C29.207 95.665 30.8657 97.3773 31.4543 98.2869Z" fill="url(#paint27_linear_414_1459)"/>
<path opacity="0.25" d="M27.7617 92.8825C27.5477 92.7755 27.3337 92.722 27.1731 92.615C27.1731 92.508 27.1731 92.401 27.1196 92.2404C26.531 85.6589 25.5679 83.144 25.1398 77.2045C25.2468 74.2615 28.5109 68.6431 28.5109 68.6431C25.7284 67.0914 22.0363 62.1686 19.5214 57.7274C19.5214 54.6239 19.4679 51.4669 19.1469 48.8985C19.0933 48.4704 19.0398 48.0958 18.9863 47.6678C22.1433 47.9888 24.3372 47.1862 25.1398 46.4371C25.4609 46.8116 25.7819 47.2397 26.103 47.7213C26.103 47.7213 26.103 47.7213 26.0495 47.7748C22.5714 50.7713 21.6618 55.8011 23.9626 59.8142C26.424 64.1484 29.367 68.1616 29.367 68.1616C29.367 68.1616 27.2802 83.251 27.7617 92.8825Z" fill="#62203B"/>
<path opacity="0.5" d="M24.4443 16.3117C24.6049 16.2582 24.7654 16.2582 24.9259 16.2047C25.0864 16.2047 25.247 16.2047 25.4075 16.2047C25.461 16.2047 25.5145 16.2047 25.5145 16.2047C25.568 16.2047 25.6215 16.2047 25.6215 16.2582C25.675 16.3117 25.7285 16.3652 25.7821 16.4722C25.8891 16.6327 25.8891 16.7932 25.8891 16.9538C25.8356 16.7932 25.7821 16.6327 25.675 16.5257C25.6215 16.4722 25.568 16.4187 25.5145 16.3652C25.461 16.3117 25.354 16.3117 25.3005 16.3117C25.1399 16.3117 24.9794 16.3117 24.8189 16.3117C24.7654 16.3117 24.6049 16.3117 24.4443 16.3117Z" fill="#DB6951"/>
<path d="M26.6915 15.9906C26.5845 15.7766 26.424 15.6161 26.2634 15.5091C26.1029 15.402 25.8889 15.3485 25.6748 15.3485C25.4608 15.3485 25.2468 15.3485 25.0327 15.402C24.9257 15.402 24.7652 15.4556 24.6582 15.4556C24.5512 15.4556 24.4441 15.5091 24.3906 15.5091C24.5512 15.3485 24.7652 15.2415 25.0327 15.188C25.2468 15.1345 25.5143 15.081 25.7283 15.081C25.9959 15.081 26.2634 15.188 26.424 15.3485C26.531 15.4556 26.5845 15.5626 26.638 15.6696C26.6915 15.7231 26.6915 15.8836 26.6915 15.9906Z" fill="#743234"/>
<path d="M28.1895 17.3283C28.1895 17.3819 28.1895 17.4889 28.136 17.5424C28.136 17.4889 28.136 17.4889 28.0825 17.4354C28.0825 17.3819 28.0825 17.3819 28.029 17.3283C28.029 17.2748 27.9755 17.2213 27.9755 17.1143C27.9755 17.0608 27.922 17.0073 27.922 16.9538C27.8685 16.9003 27.8685 16.8468 27.815 16.7933C27.7614 16.6862 27.6544 16.6327 27.5474 16.5792C27.4404 16.5257 27.2799 16.5257 27.1729 16.5257C27.2799 16.4187 27.4404 16.4187 27.6009 16.4187C27.7614 16.4187 27.922 16.5257 28.029 16.6862C28.0825 16.7398 28.0825 16.8468 28.136 16.9003C28.136 16.9538 28.136 16.9538 28.136 17.0073C28.136 17.0608 28.136 17.0608 28.136 17.1143C28.1895 17.2213 28.1895 17.2748 28.1895 17.3283Z" fill="#743234"/>
<path opacity="0.15" d="M28.0293 17.2214C27.9223 17.4889 27.8153 17.7565 27.7618 18.024C27.7083 18.0775 27.6548 18.131 27.6548 18.131C27.6548 18.131 27.6013 17.8635 27.4942 17.7565C27.3872 17.6494 27.0662 17.5959 27.0662 17.5959L26.7451 17.5424L27.2267 16.5258C27.3872 16.5258 27.4942 16.5258 27.6013 16.5793C27.7083 16.6328 27.8153 16.6863 27.8688 16.7933C27.9223 16.8468 27.9223 16.9003 27.9758 16.9538C27.9758 17.0073 28.0293 17.0608 28.0293 17.1144C28.0293 17.1679 28.0293 17.2214 28.0293 17.2214Z" fill="#DB6951"/>
<path opacity="0.5" d="M26.6914 17.5959C26.7984 17.5424 26.9054 17.5424 27.0125 17.5424C27.1195 17.5424 27.2265 17.5959 27.3335 17.6494C27.4405 17.7029 27.5475 17.8099 27.6011 17.9169C27.6546 18.0239 27.6546 18.131 27.6546 18.238C27.6011 18.131 27.6011 18.0239 27.494 17.9704C27.4405 17.8634 27.3335 17.8099 27.28 17.7564C27.173 17.7029 27.066 17.7029 26.9589 17.6494C26.9054 17.5959 26.7984 17.5959 26.6914 17.5959Z" fill="#DB6951"/>
<path opacity="0.5" d="M17.0598 31.2941C17.0063 31.5082 16.9528 31.7757 16.8993 31.9897C16.4712 33.916 15.9361 35.9494 15.4545 37.5546C15.08 37.5546 14.7054 37.5546 14.3308 37.6616C13.6352 37.8222 13.1001 38.4108 12.7256 39.0529C13.1537 36.9125 15.1335 37.2336 15.1335 37.2336C15.1335 37.2336 15.8291 34.2371 16.0431 31.7222C15.401 30.866 13.6352 30.4915 12.8326 30.3845C12.8861 29.8494 12.8861 29.3678 12.8861 28.8862C14.2238 28.8862 16.0966 29.3678 17.0598 31.2941Z" fill="#DB6951"/>
<path opacity="0.5" d="M27.8684 39.7485C27.3333 39.7485 26.6912 39.2669 26.6912 39.2669C26.6912 39.2669 25.3535 37.2871 23.8018 34.7186C23.8553 34.3976 23.9088 34.13 23.9623 33.8625C24.0693 33.3274 24.1763 32.8994 24.2833 32.5248C24.5509 32.4713 24.7649 32.4178 24.8719 32.3108C25.3535 31.8827 25.621 31.5081 25.7281 31.0801C25.9421 30.3844 25.8351 29.6888 25.5675 29.1002C25.5675 29.1002 25.5675 29.0467 25.514 29.0467C25.6211 28.9932 25.7281 28.9932 25.8351 28.9932C25.9421 29.3143 26.0491 29.6353 26.1561 29.9029C26.2632 30.2239 26.3702 30.545 26.4772 30.866L26.4237 30.973C24.8719 33.3809 24.9789 36.5379 26.7447 38.7853C27.1193 39.1599 27.4939 39.4809 27.8684 39.7485Z" fill="#DB6951"/>
<path opacity="0.25" d="M89.7785 30.3845C89.725 30.5985 89.725 30.8126 89.725 31.0801C87.4241 36.9125 82.3943 40.9257 80.6285 42.2634C80.575 41.9423 80.5215 41.6748 80.5215 41.3537C81.0566 40.9257 81.6987 40.3906 81.9662 39.909C82.5013 38.8388 88.6548 34.1301 88.4943 25.7827C88.3337 23.3749 86.3539 21.5021 86.3004 21.4485C86.3539 21.4485 87.2636 21.6091 88.2267 22.1442C88.9758 23.1073 89.6715 24.231 89.7785 25.1941C90.046 27.281 89.9925 29.1003 89.7785 30.3845Z" fill="#C6B9E5"/>
<path opacity="0.25" d="M90.9558 39.8019L89.8321 38.9993L87.5312 41.7282L89.8321 37.2335C90.0461 38.1967 90.4207 39.0528 90.9558 39.8019Z" fill="#C6B9E5"/>
<path d="M91.6508 43.494C91.5438 43.5476 91.3832 43.494 91.3297 43.387L90.8481 42.2098C90.7946 42.1028 90.8481 41.9423 90.9552 41.8888C91.0622 41.8353 91.2227 41.8888 91.2762 41.9958L91.7578 43.173C91.8113 43.28 91.7578 43.4405 91.6508 43.494Z" fill="#211935"/>
<path d="M86.889 44.3502C86.7285 44.3502 86.6215 44.2967 86.6215 44.1362L86.4609 42.852C86.4609 42.6914 86.5144 42.5844 86.675 42.5844C86.8355 42.5844 86.9425 42.6379 86.9425 42.7984L87.103 44.0827C87.103 44.2432 86.996 44.3502 86.889 44.3502Z" fill="#211935"/>
<path d="M82.3412 44.4037C82.1807 44.4037 82.0737 44.2967 82.1272 44.1362L82.1807 42.852C82.1807 42.6915 82.2877 42.5844 82.4483 42.6379C82.6088 42.6379 82.7158 42.745 82.6623 42.9055L82.6088 44.1897C82.5553 44.2967 82.4482 44.4037 82.3412 44.4037Z" fill="#211935"/>
<path opacity="0.25" d="M79.2906 37.5546C76.1871 37.7686 66.6625 36.3774 63.9336 35.9493C64.0941 35.5748 64.2546 35.3072 64.2546 35.3072C64.3082 35.3072 66.8231 35.4677 66.8231 35.4677C68.9099 34.9862 78.5414 35.5212 78.5414 35.5212L79.0765 33.2204L79.6651 30.5985C79.6651 30.5985 80.7353 27.0134 81.2704 26.2643C81.966 24.3379 82.8221 23.2143 83.5712 22.4651C83.9993 22.5722 84.3739 22.7862 84.5879 23.1073C86.8353 25.7292 81.2169 34.8256 79.2906 37.5546Z" fill="#F6F4FD"/>
<path opacity="0.5" d="M82.5537 30.3845L86.0853 32.0432L82.8213 36.645L85.2291 32.3108L82.5537 30.3845Z" fill="#C6B9E5"/>
<path opacity="0.25" d="M67.626 37.8757L73.5119 40.1765L76.0803 39.5344L73.1909 39.8555L67.626 37.8757Z" fill="#C6B9E5"/>
<path opacity="0.5" d="M86.2467 18.8801L85.6046 16.5257V16.4187L85.4976 16.0441C85.2301 16.5792 84.7485 16.8468 84.3204 16.7397C84.2669 16.7397 84.2134 16.7397 84.2134 16.6862L84.2669 17.2748L82.2871 18.9336L82.3406 19.1476C82.6617 18.9336 83.9459 18.131 84.6415 17.5959C84.7485 17.5424 84.802 17.3818 84.802 17.2748C84.802 17.2213 84.802 17.1143 84.8555 17.0608L85.5511 19.1476C85.7652 19.1476 85.9792 18.9871 86.2467 18.8801Z" fill="#DB6951"/>
<path opacity="0.5" d="M83.9454 16.5792C82.9822 15.9906 82.3401 14.2248 82.7682 12.6731C80.8954 13.3687 79.4507 13.2617 78.541 13.0476V12.8871C78.541 12.7266 78.541 12.5661 78.5945 12.459C79.0226 12.6196 79.5042 12.6731 80.1463 12.6731C82.5542 12.6731 82.9822 11.2818 83.5708 12.2985C83.8384 12.7266 83.7314 13.3152 83.5173 13.7968C83.3568 14.2248 83.4103 14.6529 83.6778 14.9739C83.6778 15.0275 83.6243 15.081 83.6243 15.081C83.5173 15.6696 83.6243 16.2581 83.9454 16.5792Z" fill="#DB6951"/>
<path opacity="0.25" d="M85.1235 21.5555C84.6954 21.7161 84.1603 21.9836 83.5717 22.4652C82.8226 23.1608 81.9664 24.338 81.2708 26.2643C80.7893 27.0134 79.6656 30.5985 79.6656 30.5985L79.5586 31.1871C79.5051 30.759 79.4515 30.2239 79.398 29.6353C79.3445 29.2073 79.3445 28.7792 79.291 28.2441C80.5217 25.3547 82.5015 21.9836 85.1235 21.5555Z" fill="#C6B9E5"/>
<path opacity="0.25" d="M82.3398 21.716C82.3934 21.502 82.3398 21.3415 82.3398 21.2345C82.3934 21.1809 82.4469 21.1274 82.5004 21.1274L82.5539 21.3415C84.5337 21.395 86.5135 20.3248 86.567 20.2713C86.567 20.3248 85.0153 21.716 82.3398 21.716Z" fill="#C6B9E5"/>
<path opacity="0.5" d="M93.4171 45.7414C93.0425 51.6809 91.7048 67.6264 91.6513 67.8405C90.7417 64.5229 90.6882 60.1887 90.7952 57.0852C90.9022 54.8914 89.2434 53.0186 86.9961 52.8046C85.4978 52.6975 84.1601 51.7344 83.5715 50.3432L80.7891 43.7616C86.9961 44.7783 91.5443 43.28 92.4539 42.959C92.9355 43.7616 93.3101 44.7248 93.4171 45.7414Z" fill="#2B204F"/>
<path opacity="0.5" d="M92.7212 91.0097C92.7212 91.0632 92.7212 91.1167 92.7212 91.1702C92.6677 91.5448 92.6142 91.9728 92.5607 92.3474C92.4002 93.5781 92.2932 94.9158 92.1861 96.2535C92.1326 96.7886 92.1326 97.3237 92.1326 97.8588C91.9721 97.9658 91.8651 98.0193 91.7046 98.0728C91.6511 94.3807 91.3835 81.3246 90.7949 78.1676C91.009 74.9571 91.7046 68.001 91.7046 67.8405C91.7581 67.9475 94.5405 72.4957 94.7011 74.3685C95.1826 80.2544 93.6309 85.0167 92.7212 91.0097Z" fill="#2B204F"/>
<path opacity="0.5" d="M81.9664 39.8555C81.4313 40.9256 79.3979 42.1028 79.3979 42.1028L78.1673 41.4607L77.0436 41.2467L66.8234 39.2669L66.2883 38.4107C66.2883 38.4107 66.2883 38.4107 63.8805 37.6081C63.8269 37.3941 63.7734 37.18 63.7734 37.0195L78.2208 40.1765L78.0602 39.5344L81.1102 39.0528L81.6453 37.287C81.6453 37.287 87.4777 28.8327 87.8523 23.5353C88.1734 24.1774 88.4409 24.9266 88.4944 25.7827C88.6549 34.0765 82.5014 38.7853 81.9664 39.8555Z" fill="#C6B9E5"/>
<path d="M79.2909 27.6555C79.2909 27.8695 79.2909 28.0301 79.3444 28.1906C79.3979 28.6722 79.3979 29.1537 79.4514 29.5818C75.8663 31.5081 70.997 32.4178 70.997 32.4178C70.997 32.4178 70.89 32.4178 70.7295 32.4713C71.2111 32.2572 74.9032 30.759 78.5953 29.3143C77.8996 25.6757 78.5953 23.4818 79.2374 22.3582C79.3979 22.2511 79.5049 22.1441 79.5584 22.1441C80.147 21.8766 81.2707 21.6625 82.0198 21.502C80.9496 22.4117 79.1303 24.3915 79.2909 27.6555Z" fill="#C6B9E5"/>
<path opacity="0.5" d="M78.8623 14.3854C78.8623 14.6529 78.9158 14.9205 78.9158 15.188L78.9693 15.9906C78.9693 16.2582 79.0228 16.5257 79.0228 16.7933C79.0228 16.9003 79.0228 17.0608 79.0763 17.1678C79.0763 17.2748 79.1298 17.4354 79.1298 17.5424H79.0763C79.3439 17.5424 79.5579 17.4889 79.8255 17.4889C79.5579 17.5424 79.3439 17.5424 79.0763 17.5959V17.5424C79.0228 17.2748 78.9693 17.0073 78.9693 16.7398C78.9693 16.4722 78.9158 16.2047 78.9158 15.9371C78.9158 15.6696 78.9158 15.402 78.9158 15.1345C78.8623 14.9205 78.8623 14.6529 78.8623 14.3854Z" fill="#DB6951"/>
<path d="M80.3076 18.2915C80.4146 18.2915 80.4681 18.2915 80.5752 18.2915C80.6822 18.2915 80.7357 18.2915 80.8427 18.238C80.8962 18.1845 81.0032 18.1309 81.0567 18.0774C81.1102 18.0239 81.1637 17.9169 81.1637 17.8634C81.1637 17.9704 81.1102 18.0239 81.0567 18.1309C81.0032 18.1845 80.9497 18.238 80.8427 18.2915C80.7357 18.345 80.6822 18.345 80.5752 18.345C80.5217 18.345 80.4146 18.345 80.3076 18.2915Z" fill="#DB6951"/>
<path d="M79.6123 14.0644C79.7193 14.0109 79.8798 14.0109 79.9869 14.0109C80.1474 14.0109 80.2544 14.0109 80.3614 14.0644C80.4684 14.1179 80.629 14.1179 80.736 14.2249C80.843 14.2784 80.95 14.3854 81.057 14.4924C81.0035 14.4389 80.95 14.4389 80.8965 14.3854L80.7895 14.3319L80.6825 14.2784C80.5755 14.2249 80.4149 14.1714 80.3079 14.1714C80.2009 14.1179 80.0404 14.1179 79.9334 14.1179C79.8798 14.0644 79.7728 14.0644 79.6123 14.0644Z" fill="#DB6951"/>
<path d="M79.0226 14.1714C78.8621 14.1178 78.7015 14.1714 78.541 14.2249V14.1714C78.7015 14.1178 78.9156 14.1178 79.0226 14.1714Z" fill="#DB6951"/>
<path d="M79.7188 13.5293C79.8793 13.4222 80.0933 13.3687 80.3073 13.3152C80.5214 13.2617 80.7354 13.2617 80.9494 13.3152C81.1635 13.3687 81.3775 13.4222 81.538 13.5293C81.6986 13.6363 81.8591 13.7968 81.9661 13.9573C81.8056 13.8503 81.6451 13.7433 81.4845 13.6363C81.324 13.5293 81.11 13.4757 80.9494 13.4757C80.7889 13.4222 80.5749 13.4222 80.3609 13.4222C80.0933 13.5293 79.9328 13.5293 79.7188 13.5293Z" fill="#743234"/>
<path d="M78.4346 13.5293C78.4881 13.4757 78.5416 13.4757 78.5951 13.4222C78.6486 13.4222 78.7021 13.4222 78.8091 13.4222C78.8626 13.4222 78.9161 13.4222 78.9697 13.4758C79.0232 13.5293 79.0767 13.5293 79.1302 13.5828C79.0767 13.5828 79.0232 13.5293 78.9697 13.5293C78.9161 13.5293 78.8626 13.5293 78.8091 13.4758C78.6486 13.5293 78.5416 13.5293 78.4346 13.5293Z" fill="#743234"/>
<path opacity="0.5" d="M63.7733 37.0195C63.5593 36.966 63.3987 36.966 63.2382 36.966C63.2382 36.966 62.3821 37.18 61.6329 37.2335C61.4724 37.2335 61.3119 37.2335 61.1514 37.18C61.3654 37.1265 62.2215 37.0195 63.3987 36.6984C63.3987 36.1633 63.8268 35.4142 63.9338 35.2002C64.0408 35.2002 64.1478 35.2002 64.2549 35.2537C64.2549 35.3072 63.7198 36.0028 63.7733 37.0195Z" fill="#DB6951"/>
<path d="M85.7121 15.2415C85.7656 14.5994 85.498 14.0644 85.0165 13.9038C84.5349 13.7968 83.9463 14.2249 83.7323 14.9205C83.4647 14.5994 83.3577 14.1179 83.5717 13.7433C83.7858 13.2617 83.8928 12.6731 83.6252 12.2451C82.9831 11.2284 82.5551 12.6196 80.2007 12.6196C79.6121 12.6196 79.077 12.5661 78.6489 12.4056C77.4718 11.9775 77.1507 11.0679 77.6323 9.9442C77.8463 9.40911 78.0068 9.08806 78.0603 8.87402C77.7928 9.62314 77.4182 11.2284 78.6489 11.9775C80.3077 12.9942 83.1972 10.2652 84.5884 11.1749C84.9094 11.3889 85.177 11.603 85.4445 11.817C86.3542 12.7266 86.5147 14.2249 85.7121 15.2415Z" fill="#572627"/>
<path opacity="0.25" d="M42.1022 51.5204C41.5671 51.5204 41.139 51.4669 40.7645 51.4134C40.3364 51.3599 40.1223 51.3064 40.1223 51.1993C40.1223 51.1993 37.9285 26.9599 41.7276 22.6793C41.6741 22.7328 38.9987 41.9424 42.1022 51.5204Z" fill="#E8F1F3"/>
<path opacity="0.25" d="M45.8476 52.1625H41.1924V51.5204C41.1924 51.5204 41.1924 51.5204 41.1924 51.4669C41.4599 51.4669 41.781 51.5204 42.102 51.5204C42.1555 51.5204 42.2626 51.5204 42.3161 51.5204C43.5468 51.5204 44.5099 51.3599 44.5099 51.1993C44.8845 46.8651 44.938 42.7985 44.938 39.2669C44.938 35.7889 44.831 32.8459 44.831 30.759C44.831 29.5283 44.5634 28.3512 44.1889 27.2275C47.0248 32.6318 45.8476 52.1625 45.8476 52.1625Z" fill="#326160"/>
<defs>
<linearGradient id="paint0_linear_414_1459" x1="19.7515" y1="31.22" x2="41.918" y2="31.22" gradientUnits="userSpaceOnUse">
<stop stop-color="#F08E73"/>
<stop offset="1" stop-color="#F9B99D"/>
</linearGradient>
<linearGradient id="paint1_linear_414_1459" x1="10.8866" y1="35.4357" x2="25.1249" y2="35.4357" gradientUnits="userSpaceOnUse">
<stop stop-color="#FAC383"/>
<stop offset="1" stop-color="#F19B6C"/>
</linearGradient>
<linearGradient id="paint2_linear_414_1459" x1="15.0369" y1="27.3017" x2="25.862" y2="27.3017" gradientUnits="userSpaceOnUse">
<stop stop-color="#FAC383"/>
<stop offset="1" stop-color="#F19B6C"/>
</linearGradient>
<linearGradient id="paint3_linear_414_1459" x1="15.1038" y1="98.4933" x2="21.374" y2="98.4933" gradientUnits="userSpaceOnUse">
<stop stop-color="#F24050"/>
<stop offset="1" stop-color="#E03347"/>
</linearGradient>
<linearGradient id="paint4_linear_414_1459" x1="26.9173" y1="98.0399" x2="33.1427" y2="98.0399" gradientUnits="userSpaceOnUse">
<stop stop-color="#F24050"/>
<stop offset="1" stop-color="#E03347"/>
</linearGradient>
<linearGradient id="paint5_linear_414_1459" x1="18.4818" y1="21.1719" x2="22.2384" y2="21.1719" gradientUnits="userSpaceOnUse">
<stop stop-color="#F08E73"/>
<stop offset="1" stop-color="#F9B99D"/>
</linearGradient>
<linearGradient id="paint6_linear_414_1459" x1="20.4108" y1="16.7837" x2="28.5719" y2="16.7837" gradientUnits="userSpaceOnUse">
<stop stop-color="#F08E73"/>
<stop offset="1" stop-color="#F9B99D"/>
</linearGradient>
<linearGradient id="paint7_linear_414_1459" x1="19.8628" y1="17.2227" x2="21.9326" y2="17.2227" gradientUnits="userSpaceOnUse">
<stop stop-color="#F08E73"/>
<stop offset="1" stop-color="#F9B99D"/>
</linearGradient>
<linearGradient id="paint8_linear_414_1459" x1="12.318" y1="34.6014" x2="17.0839" y2="34.6014" gradientUnits="userSpaceOnUse">
<stop stop-color="#F08E73"/>
<stop offset="1" stop-color="#F9B99D"/>
</linearGradient>
<linearGradient id="paint9_linear_414_1459" x1="12.3396" y1="40.077" x2="32.4101" y2="40.077" gradientUnits="userSpaceOnUse">
<stop stop-color="#F08E73"/>
<stop offset="1" stop-color="#F9B99D"/>
</linearGradient>
<linearGradient id="paint10_linear_414_1459" x1="28.6777" y1="39.371" x2="31.7565" y2="39.371" gradientUnits="userSpaceOnUse">
<stop stop-color="#F08E73"/>
<stop offset="1" stop-color="#F9B99D"/>
</linearGradient>
<linearGradient id="paint11_linear_414_1459" x1="31.5891" y1="38.7694" x2="31.7999" y2="38.7694" gradientUnits="userSpaceOnUse">
<stop stop-color="#F08E73"/>
<stop offset="1" stop-color="#F9B99D"/>
</linearGradient>
<linearGradient id="paint12_linear_414_1459" x1="39.6766" y1="34.1834" x2="60.1774" y2="34.1834" gradientUnits="userSpaceOnUse">
<stop stop-color="#5F3759"/>
<stop offset="1" stop-color="#3C3257"/>
</linearGradient>
<linearGradient id="paint13_linear_414_1459" x1="49.1818" y1="76.0095" x2="50.6733" y2="76.0095" gradientUnits="userSpaceOnUse">
<stop stop-color="#5F3759"/>
<stop offset="1" stop-color="#3C3257"/>
</linearGradient>
<linearGradient id="paint14_linear_414_1459" x1="39.1188" y1="41.7286" x2="49.9645" y2="41.7286" gradientUnits="userSpaceOnUse">
<stop offset="0.00558659" stop-color="#77A5BD"/>
<stop offset="1" stop-color="#66B0A5"/>
</linearGradient>
<linearGradient id="paint15_linear_414_1459" x1="49.9294" y1="41.7286" x2="60.7753" y2="41.7286" gradientUnits="userSpaceOnUse">
<stop offset="0.00558659" stop-color="#77A5BD"/>
<stop offset="1" stop-color="#66B0A5"/>
</linearGradient>
<linearGradient id="paint16_linear_414_1459" x1="81.8903" y1="17.7595" x2="86.6012" y2="17.7595" gradientUnits="userSpaceOnUse">
<stop stop-color="#F08E73"/>
<stop offset="1" stop-color="#F9B99D"/>
</linearGradient>
<linearGradient id="paint17_linear_414_1459" x1="78.569" y1="14.5753" x2="86.2187" y2="14.5753" gradientUnits="userSpaceOnUse">
<stop stop-color="#F08E73"/>
<stop offset="1" stop-color="#F9B99D"/>
</linearGradient>
<linearGradient id="paint18_linear_414_1459" x1="83.6132" y1="15.3332" x2="85.6945" y2="15.3332" gradientUnits="userSpaceOnUse">
<stop stop-color="#F08E73"/>
<stop offset="1" stop-color="#F9B99D"/>
</linearGradient>
<linearGradient id="paint19_linear_414_1459" x1="56.0652" y1="35.1184" x2="62.8074" y2="35.1184" gradientUnits="userSpaceOnUse">
<stop stop-color="#FAC383"/>
<stop offset="1" stop-color="#F19B6C"/>
</linearGradient>
<linearGradient id="paint20_linear_414_1459" x1="59.3525" y1="17.0844" x2="61.2963" y2="17.0844" gradientUnits="userSpaceOnUse">
<stop stop-color="#F08E73"/>
<stop offset="1" stop-color="#F9B99D"/>
</linearGradient>
<linearGradient id="paint21_linear_414_1459" x1="58.4762" y1="16.0928" x2="59.3027" y2="16.0928" gradientUnits="userSpaceOnUse">
<stop stop-color="#F08E73"/>
<stop offset="1" stop-color="#F9B99D"/>
</linearGradient>
<linearGradient id="paint22_linear_414_1459" x1="57.923" y1="16.5188" x2="58.9675" y2="16.5188" gradientUnits="userSpaceOnUse">
<stop stop-color="#F08E73"/>
<stop offset="1" stop-color="#F9B99D"/>
</linearGradient>
<linearGradient id="paint23_linear_414_1459" x1="57.5921" y1="16.9993" x2="58.5465" y2="16.9993" gradientUnits="userSpaceOnUse">
<stop stop-color="#F08E73"/>
<stop offset="1" stop-color="#F9B99D"/>
</linearGradient>
<linearGradient id="paint24_linear_414_1459" x1="57.5754" y1="17.713" x2="58.5618" y2="17.713" gradientUnits="userSpaceOnUse">
<stop stop-color="#F08E73"/>
<stop offset="1" stop-color="#F9B99D"/>
</linearGradient>
<linearGradient id="paint25_linear_414_1459" x1="60.0507" y1="35.8159" x2="64.2416" y2="35.8159" gradientUnits="userSpaceOnUse">
<stop stop-color="#F08E73"/>
<stop offset="1" stop-color="#F9B99D"/>
</linearGradient>
<linearGradient id="paint26_linear_414_1459" x1="15.2364" y1="96.5769" x2="19.5788" y2="96.5769" gradientUnits="userSpaceOnUse">
<stop stop-color="#F08E73"/>
<stop offset="1" stop-color="#F9B99D"/>
</linearGradient>
<linearGradient id="paint27_linear_414_1459" x1="27.1149" y1="95.4137" x2="31.4753" y2="95.4137" gradientUnits="userSpaceOnUse">
<stop stop-color="#F08E73"/>
<stop offset="1" stop-color="#F9B99D"/>
</linearGradient>
</defs>
</svg>
