<svg width="29" height="23" viewBox="0 0 29 23" fill="none" xmlns="http://www.w3.org/2000/svg">
<path d="M22.1668 20.125V18.2083C22.1668 17.1917 21.763 16.2166 21.0441 15.4978C20.3252 14.7789 19.3502 14.375 18.3335 14.375H10.6668C9.65017 14.375 8.67514 14.7789 7.95625 15.4978C7.23736 16.2166 6.8335 17.1917 6.8335 18.2083V20.125" stroke="#8D99AE" stroke-width="1.5" stroke-linecap="round" stroke-linejoin="round"/>
<path d="M14.5003 10.5417C16.6174 10.5417 18.3337 8.82543 18.3337 6.70833C18.3337 4.59124 16.6174 2.875 14.5003 2.875C12.3832 2.875 10.667 4.59124 10.667 6.70833C10.667 8.82543 12.3832 10.5417 14.5003 10.5417Z" stroke="#8D99AE" stroke-width="1.5" stroke-linecap="round" stroke-linejoin="round"/>
<path d="M4 13C5.65685 13 7 11.6569 7 10C7 8.34315 5.65685 7 4 7C2.34315 7 1 8.34315 1 10C1 11.6569 2.34315 13 4 13Z" stroke="#8D99AE" stroke-width="1.5" stroke-linecap="round" stroke-linejoin="round"/>
<path d="M25 13C26.6569 13 28 11.6569 28 10C28 8.34315 26.6569 7 25 7C23.3431 7 22 8.34315 22 10C22 11.6569 23.3431 13 25 13Z" stroke="#8D99AE" stroke-width="1.5" stroke-linecap="round" stroke-linejoin="round"/>
</svg>
