<svg width="328" height="17" viewBox="0 0 328 17" fill="none" xmlns="http://www.w3.org/2000/svg">
<line x1="0.5" y1="-0.5" x2="143" y2="-0.5" transform="matrix(-1 0 0 1 144 8.5)" stroke="url(#paint0_linear_16_660)" stroke-linecap="round"/>
<path d="M163.861 9C163.861 9.84375 163.709 10.5729 163.404 11.1875C163.1 11.8021 162.682 12.276 162.15 12.6094C161.619 12.9427 161.012 13.1094 160.33 13.1094C159.648 13.1094 159.041 12.9427 158.51 12.6094C157.978 12.276 157.56 11.8021 157.256 11.1875C156.951 10.5729 156.799 9.84375 156.799 9C156.799 8.15625 156.951 7.42708 157.256 6.8125C157.56 6.19792 157.978 5.72396 158.51 5.39062C159.041 5.05729 159.648 4.89062 160.33 4.89062C161.012 4.89062 161.619 5.05729 162.15 5.39062C162.682 5.72396 163.1 6.19792 163.404 6.8125C163.709 7.42708 163.861 8.15625 163.861 9ZM162.924 9C162.924 8.30729 162.808 7.72266 162.576 7.24609C162.347 6.76953 162.036 6.40885 161.642 6.16406C161.252 5.91927 160.814 5.79687 160.33 5.79687C159.846 5.79687 159.407 5.91927 159.014 6.16406C158.623 6.40885 158.312 6.76953 158.08 7.24609C157.851 7.72266 157.736 8.30729 157.736 9C157.736 9.69271 157.851 10.2773 158.08 10.7539C158.312 11.2305 158.623 11.5911 159.014 11.8359C159.407 12.0807 159.846 12.2031 160.33 12.2031C160.814 12.2031 161.252 12.0807 161.642 11.8359C162.036 11.5911 162.347 11.2305 162.576 10.7539C162.808 10.2773 162.924 9.69271 162.924 9ZM165.79 13V5H168.493C169.118 5 169.631 5.10677 170.032 5.32031C170.433 5.53125 170.73 5.82161 170.923 6.19141C171.116 6.5612 171.212 6.98177 171.212 7.45312C171.212 7.92448 171.116 8.34245 170.923 8.70703C170.73 9.07161 170.435 9.35807 170.036 9.56641C169.638 9.77214 169.129 9.875 168.509 9.875H166.321V9H168.478C168.905 9 169.248 8.9375 169.509 8.8125C169.772 8.6875 169.962 8.51042 170.079 8.28125C170.199 8.04948 170.259 7.77344 170.259 7.45312C170.259 7.13281 170.199 6.85286 170.079 6.61328C169.959 6.3737 169.768 6.1888 169.505 6.05859C169.242 5.92578 168.894 5.85937 168.462 5.85937H166.759V13H165.79ZM169.556 9.40625L171.525 13H170.4L168.462 9.40625H169.556Z" fill="#6B7280"/>
<line x1="184.5" y1="8" x2="327" y2="8" stroke="url(#paint1_linear_16_660)" stroke-linecap="round"/>
<defs>
<linearGradient id="paint0_linear_16_660" x1="0" y1="0" x2="143.5" y2="-9.24957e-09" gradientUnits="userSpaceOnUse">
<stop stop-color="#E5E7EB"/>
<stop offset="1" stop-color="#E5E7EB" stop-opacity="0"/>
</linearGradient>
<linearGradient id="paint1_linear_16_660" x1="184" y1="8.5" x2="327.5" y2="8.5" gradientUnits="userSpaceOnUse">
<stop stop-color="#E5E7EB"/>
<stop offset="1" stop-color="#E5E7EB" stop-opacity="0"/>
</linearGradient>
</defs>
</svg>
