<svg width="34" height="36" viewBox="0 0 34 36" fill="none" xmlns="http://www.w3.org/2000/svg">
<path d="M32.6661 29.3789C31.8132 27.3581 30.5755 25.5225 29.022 23.9744C27.4732 22.4218 25.6384 21.1839 23.6191 20.3291C23.601 20.3201 23.5829 20.3156 23.5649 20.3065C26.3816 18.2714 28.2127 14.9563 28.2127 11.2161C28.2127 5.0201 23.1941 0 17 0C10.8059 0 5.78731 5.0201 5.78731 11.2161C5.78731 14.9563 7.61841 18.2714 10.4352 20.3111C10.4171 20.3201 10.399 20.3246 10.3809 20.3337C8.35538 21.1884 6.53784 22.4141 4.97801 23.9789C3.4259 25.5282 2.18842 27.3635 1.33388 29.3834C0.494386 31.3609 0.0416268 33.4811 0.000113058 35.6291C-0.00109369 35.6774 0.00737021 35.7254 0.0250063 35.7704C0.0426423 35.8153 0.0690936 35.8563 0.102801 35.8909C0.136509 35.9254 0.176792 35.9529 0.221275 35.9716C0.265759 35.9904 0.313543 36 0.361813 36H3.07456C3.2735 36 3.43174 35.8417 3.43626 35.6472C3.52669 32.1558 4.92827 28.8859 7.40591 26.4075C9.96946 23.8432 13.374 22.4322 17 22.4322C20.626 22.4322 24.0305 23.8432 26.5941 26.4075C29.0717 28.8859 30.4733 32.1558 30.5637 35.6472C30.5683 35.8462 30.7265 36 30.9254 36H33.6382C33.6865 36 33.7342 35.9904 33.7787 35.9716C33.8232 35.9529 33.8635 35.9254 33.8972 35.8909C33.9309 35.8563 33.9574 35.8153 33.975 35.7704C33.9926 35.7254 34.0011 35.6774 33.9999 35.6291C33.9547 33.4673 33.5071 31.3643 32.6661 29.3789ZM17 18.995C14.9247 18.995 12.9716 18.1854 11.5022 16.7156C10.0328 15.2457 9.22346 13.292 9.22346 11.2161C9.22346 9.1402 10.0328 7.18643 11.5022 5.71658C12.9716 4.24673 14.9247 3.43719 17 3.43719C19.0753 3.43719 21.0284 4.24673 22.4978 5.71658C23.9672 7.18643 24.7765 9.1402 24.7765 11.2161C24.7765 13.292 23.9672 15.2457 22.4978 16.7156C21.0284 18.1854 19.0753 18.995 17 18.995Z" fill="#BDC6D1"/>
</svg>
