<svg width="14" height="11" viewBox="0 0 14 11" fill="none" xmlns="http://www.w3.org/2000/svg">
<path d="M12.25 0.5H1.75C0.765625 0.5 0 1.29297 0 2.25V9.25C0 10.2344 0.765625 11 1.75 11H12.25C13.207 11 14 10.2344 14 9.25V2.25C14 1.29297 13.207 0.5 12.25 0.5ZM1.75 1.8125H12.25C12.4688 1.8125 12.6875 2.03125 12.6875 2.25V2.87891L8.12109 6.65234C7.49219 7.17188 6.48047 7.17188 5.85156 6.65234L1.3125 2.87891V2.25C1.3125 2.03125 1.50391 1.8125 1.75 1.8125ZM12.25 9.6875H1.75C1.50391 9.6875 1.3125 9.49609 1.3125 9.25V4.57422L5.03125 7.69141C5.57812 8.12891 6.26172 8.375 7 8.375C7.71094 8.375 8.39453 8.12891 8.94141 7.69141L12.6875 4.57422V9.25C12.6875 9.49609 12.4688 9.6875 12.25 9.6875Z" fill="#8D99AE"/>
</svg>
