<svg width="20" height="20" viewBox="0 0 20 20" fill="none" xmlns="http://www.w3.org/2000/svg">
<path d="M11.9998 3C11.9998 2.46957 11.7891 1.96086 11.414 1.58579C11.039 1.21071 10.5303 1 9.99983 1C9.4694 1 8.96069 1.21071 8.58562 1.58579C8.21054 1.96086 7.99983 2.46957 7.99983 3M17.2598 7.696L18.6448 16.696C18.6886 16.9808 18.6704 17.2718 18.5913 17.5489C18.5122 17.8261 18.3741 18.0828 18.1865 18.3016C17.999 18.5204 17.7663 18.6961 17.5045 18.8167C17.2428 18.9372 16.958 18.9997 16.6698 19H3.32983C3.04146 19 2.7565 18.9377 2.49447 18.8173C2.23245 18.6969 1.99956 18.5212 1.81177 18.3024C1.62399 18.0836 1.48575 17.8267 1.40653 17.5494C1.32732 17.2721 1.309 16.981 1.35283 16.696L2.73783 7.696C2.81048 7.22359 3.04991 6.79282 3.41275 6.4817C3.7756 6.17059 4.23787 5.9997 4.71583 6H15.2838C15.7616 5.99994 16.2236 6.17094 16.5863 6.48203C16.9489 6.79312 17.1882 7.22376 17.2608 7.696H17.2598Z" stroke="#8D99AE" stroke-width="1.5" stroke-linecap="round" stroke-linejoin="round"/>
</svg>
