<svg width="103" height="108" viewBox="0 0 103 108" fill="none" xmlns="http://www.w3.org/2000/svg">
<path fill-rule="evenodd" clip-rule="evenodd" d="M53.0554 24.1624C54.3044 22.702 55.1497 20.9123 55.0085 18.9069C54.6015 13.1288 46.5268 14.3999 44.9561 17.3162C43.3854 20.2325 43.572 27.6299 45.602 28.1512C46.4116 28.359 48.1362 27.8498 49.8914 26.796L48.7897 34.56H55.2949L53.0554 24.1624Z" fill="#B28B67"/>
<path fill-rule="evenodd" clip-rule="evenodd" d="M48.6638 13.955C49.5212 13.815 51.8297 13.7187 52.2554 13.7188C52.5275 13.7188 52.8223 13.7807 52.9834 13.5318C53.1154 13.3281 53.0671 12.9834 53.1064 12.747C53.1522 12.4723 53.2171 12.2011 53.2828 11.9306C53.4698 11.161 53.7525 10.4288 54.148 9.7413C54.8902 8.45153 55.9776 7.44126 57.3503 6.85338C58.8661 6.20427 60.5814 6.05563 62.2119 6.1873C63.9568 6.32816 65.5363 6.90193 67.1837 7.44188C68.7536 7.9564 70.398 8.15893 72.0399 7.90767C73.6943 7.65454 74.9443 6.76137 76.3397 5.91365C77.7682 5.04579 79.4007 4.47818 81.0894 4.60866C82.6658 4.7305 84.1187 5.37886 85.4222 6.24498C86.6418 7.05534 87.6481 8.03032 88.2163 9.40251C88.8274 10.8786 88.8269 12.4988 87.8218 13.8033C86.365 15.6942 83.6605 16.1832 81.4104 16.1346C80.109 16.1065 78.8308 15.8699 77.6021 15.4394C75.9634 14.8652 74.5473 13.8921 73.0143 13.1026C72.2949 12.7321 71.5512 12.4278 70.7717 12.2086C70.0153 11.9958 69.2703 11.8982 68.5855 12.3534C67.861 12.8349 67.2118 13.3079 66.383 13.6094C65.5879 13.8985 64.7457 14.0603 63.8986 14.0538C62.2504 14.0411 60.6257 13.5295 59.0249 13.1869C57.7195 12.9075 56.3228 12.6291 54.992 12.8976C54.4366 13.0097 53.6255 13.2411 53.4249 13.816C56.8007 14.4254 58.1266 18.5842 57.1749 21.6371C56.6612 23.2848 53.5737 25.2111 52.3732 24.3448C51.6126 23.796 52.0744 23.0755 52.3732 22.5999C52.9454 21.6891 53.1412 20.5191 52.0823 19.885C51.169 19.3381 50.2086 20.6369 50.1905 20.6354C49.9394 20.6157 47.7703 19.3937 46.2758 17.6105C44.8014 17.6976 44.5777 16.7292 44.9298 15.9373C45.2818 15.1453 47.4792 14.1487 48.6638 13.955Z" fill="#191847"/>
<path d="M58.0054 103.95C46.4786 103.95 37.1344 95.0651 37.1344 84.105C37.1344 73.1449 46.4786 64.26 58.0054 64.26C69.5322 64.26 78.8765 73.1449 78.8765 84.105C78.8765 95.0651 69.5322 103.95 58.0054 103.95Z" fill="#C5CFD6"/>
<path fill-rule="evenodd" clip-rule="evenodd" d="M18.5647 100.888C22.0377 93.2315 24.5492 86.5643 25.5574 83.0467C27.2836 77.0236 28.5968 71.7237 28.9287 69.7445C29.7201 65.0248 22.8403 64.7499 21.9309 67.0955C20.5546 70.6458 18.1517 82.3103 15.2646 99.9291L18.5647 100.888ZM58.8488 76.8592C55.6624 75.6046 44.5037 71.6783 39.1219 70.5676C37.5754 70.2484 36.0764 69.9519 34.6672 69.6839C30.4784 68.8873 28.3082 76.4148 32.3425 76.9931C42.3896 78.4335 56.6331 79.9209 57.852 80.0879C59.5604 80.3218 60.8514 77.6477 58.8488 76.8592Z" fill="#B28B67"/>
<path fill-rule="evenodd" clip-rule="evenodd" d="M32.0961 67.6124L49.3315 58.8726V56.97H47.2818C30.6073 61.2025 22.0866 63.9149 21.7198 65.1072C21.7158 65.1201 21.7122 65.1329 21.7089 65.1458C21.7005 65.1568 21.6923 65.1678 21.6842 65.1789C18.3796 69.7059 16.4006 91.8073 15.751 93.4622L22.0832 94.4032C24.5055 85.4559 32.2552 79.2229 32.0494 68.5069C32.1049 68.1925 32.119 67.8944 32.0961 67.6124Z" fill="#1F28CF"/>
<path fill-rule="evenodd" clip-rule="evenodd" d="M47.8999 72.803C49.4769 72.4885 50.9292 72.2079 52.1718 71.9907C60.1986 70.5883 62.5393 66.3083 61.1554 56.97L46.3661 56.97C43.9503 57.6613 31.3953 62.9059 24.8812 65.6954C20.5698 67.5417 21.9289 74.1972 24.3704 75.9293C24.3837 76.0356 24.4276 76.1077 24.5059 76.14C37.6396 81.5623 48.0295 78.7173 51.5004 79.6263L53.1058 74.5817L47.8999 72.803Z" fill="#2B44FF"/>
<path fill-rule="evenodd" clip-rule="evenodd" d="M57.7639 76.056C58.6236 76.1372 59.2337 76.2653 59.5944 76.4405C60.0331 76.6535 60.6376 77.0372 61.4078 77.5917C61.159 78.0996 58.9228 82.6636 54.6993 91.2838C53.3461 91.0673 52.8103 90.5529 53.0919 89.7407C53.3735 88.9284 53.6007 88.2504 53.7734 87.7066L54.0482 79.9622C54.0535 79.8132 54.179 79.6964 54.3284 79.7014C54.331 79.7015 54.3336 79.7016 54.3361 79.7018L55.531 79.7755C56.2105 79.227 56.659 78.7308 56.8764 78.2871C57.053 77.9267 57.151 77.358 57.1704 76.5811L57.1704 76.5811C57.1779 76.283 57.4263 76.0469 57.7253 76.0537C57.7382 76.054 57.7511 76.0548 57.7639 76.056Z" fill="#E4E4E4"/>
<path fill-rule="evenodd" clip-rule="evenodd" d="M20.1452 99.4685C20.4485 100.275 20.6001 100.878 20.6001 101.279C20.6001 101.765 20.5187 102.476 20.3558 103.41C19.7888 103.41 14.6928 103.41 5.06795 103.41C4.67068 102.102 4.90001 101.395 5.75595 101.291C6.61189 101.187 7.32293 101.093 7.88908 101.009L14.9947 97.8531C15.1315 97.7924 15.2917 97.8536 15.3527 97.9898C15.3537 97.9921 15.3547 97.9945 15.3557 97.9968L15.8124 99.1005C16.6048 99.4687 17.2487 99.6529 17.7441 99.6529C18.1466 99.6529 18.7025 99.4909 19.4117 99.1671L19.4117 99.1671C19.6838 99.0428 20.0056 99.1618 20.1304 99.4329C20.1358 99.4446 20.1407 99.4565 20.1452 99.4685Z" fill="#E4E4E4"/>
<path fill-rule="evenodd" clip-rule="evenodd" d="M32.5265 49.5766L22.705 45.2801C20.9846 43.5723 19.3232 42.2743 17.7209 41.3861C17.2418 41.2342 16.4232 41.1883 17.2966 42.4589C18.1699 43.7295 19.0311 45.1051 18.6822 45.5504C18.3332 45.9957 17.3224 45.5042 16.923 46.2284C16.6568 46.7112 18.3607 47.2887 22.0348 47.9609L29.3905 53.5786L32.5265 49.5766ZM72.2335 50.76L66.6791 51.8578C72.265 62.2272 75.2606 67.723 75.6659 68.3452C76.5779 69.7451 75.727 72.3107 75.4127 73.6617C77.3845 74.1189 76.6069 71.1625 79.1023 71.7798C81.3799 72.3432 83.3111 73.7892 85.4349 71.8391C85.6961 71.5993 85.8872 70.85 84.9969 70.4656C82.779 69.508 79.5021 67.715 78.9707 67.0189C78.2462 66.0696 76.0004 60.65 72.2335 50.76Z" fill="#B28B67"/>
<path fill-rule="evenodd" clip-rule="evenodd" d="M51.583 30.0597L49.2392 29.6592C44.1341 34.5921 42.0508 46.4434 38.6486 48.0121C35.432 49.4952 30.8722 48.06 25.4522 46.1221L23.7923 49.8162C28.717 55.1234 39.2083 59.6071 43.4609 57.0474C50.2598 52.955 51.8294 38.3383 51.583 30.0597Z" fill="#DB2721"/>
<path fill-rule="evenodd" clip-rule="evenodd" d="M61.8003 59.4C52.4024 59.4 45.4895 59.4 41.0617 59.4C40.114 59.4 40.2926 58.0369 40.4296 57.3491C42.0106 49.411 48.1823 40.8541 48.1823 29.5544L54.1643 28.62C59.1121 36.5468 60.8232 46.3062 61.8003 59.4Z" fill="#DDE3E9"/>
<path fill-rule="evenodd" clip-rule="evenodd" d="M63.8686 51.363C68.0963 58.9593 71.6499 64.4283 74.5295 67.77L78.8765 66.9219C76.0763 49.6235 67.9675 36.8562 54.55 28.62L54.4817 28.62L52.1815 28.62C46.8112 46.855 45.3307 59.005 47.74 65.07H66.408C66.1127 60.6321 65.1657 55.9389 63.8686 51.363H63.8686Z" fill="#FF4133"/>
</svg>
