<svg width="390" height="285" viewBox="0 0 390 285" fill="none" xmlns="http://www.w3.org/2000/svg">
<path fill-rule="evenodd" clip-rule="evenodd" d="M259.1 17.0238C257.307 16.1466 254.916 17.164 255.913 19.483C256.982 21.9664 260.932 21.9971 263.163 21.9478C262.939 21.9363 262.22 19.659 261.974 19.3149C261.248 18.2998 260.203 17.5641 259.1 17.0238ZM279.765 61.5477C280.218 61.9294 279.802 61.5835 279.765 61.5477V61.5477ZM257.372 28.2561C256.323 29.0475 256.273 30.4447 257.13 31.3905C258.151 32.5164 260.015 32.4754 261.407 32.3657C262.036 32.316 265.398 32.0505 264.601 31.508C264.662 31.5308 264.79 31.5863 264.927 31.6616C265.001 31.9272 265.078 32.1919 265.159 32.4555C265.139 32.4669 265.122 32.4791 265.101 32.4904C265.124 32.4806 265.14 32.4699 265.16 32.4598C265.968 35.0939 267.119 37.602 268.625 39.9484C268.062 39.7294 267.478 39.5637 266.886 39.49C265.132 39.2712 261.444 40.6152 263.405 42.9181C265.286 45.1257 268.214 42.7573 270.348 42.4306C272.418 45.2806 274.701 48.0119 277.093 50.6519C276.947 50.6972 276.818 50.7916 276.744 50.9384C275.785 50.4582 274.785 49.7712 273.896 49.5852C272.615 49.3172 269.987 49.1547 269.018 50.2863C267.827 51.6776 269.104 52.8077 270.511 53.0746C272.552 53.4616 275.224 52.478 277.188 51.8134C277.413 51.8525 277.658 51.7877 277.805 51.6105C277.848 51.5965 277.891 51.5827 277.934 51.5693C280.356 54.1964 282.871 56.7368 285.371 59.2215C285.344 59.2202 285.318 59.2186 285.29 59.2171C284.638 58.7953 283.939 58.4491 283.18 58.2678C281.427 57.8462 279.363 57.8441 277.94 59.0959C276.522 60.3422 276.02 62.522 277.486 63.9215C280.422 66.7229 284.748 60.3354 286.229 60.0688C288.769 62.5674 291.455 64.9018 294.184 67.1891C293.874 67.0961 293.556 67.0277 293.228 66.9969C290.552 66.7443 284.272 69.9796 287.556 73.1627C290.417 75.9366 293.729 70.5977 296.035 68.7305C298.606 70.8624 301.191 72.9797 303.703 75.1795C302.333 74.8206 301.009 74.7677 299.54 75.2056C298.02 75.6593 295.567 76.7913 296.528 78.8156C297.505 80.8741 300.451 79.9374 301.985 79.2838C302.821 78.9274 304.499 77.7243 305.972 77.2176C309.981 80.9511 313.454 85.0633 316.083 89.9075C317.724 92.9321 318.97 96.1635 319.846 99.4847C320.406 101.605 321.508 105.165 321.288 107.924C322.34 102.401 320.437 95.7683 318.388 90.8319C316.504 86.2925 313.684 82.3076 310.381 78.7206C311.21 76.2615 318.186 72.7148 314.016 70.4302C311.801 69.2222 309.532 71.2266 309.048 73.3495C308.716 74.8082 309.222 76.6412 309.76 78.0571C308.721 76.9636 307.641 75.9054 306.528 74.8822C304.989 73.4682 303.414 72.0951 301.824 70.7394C304.444 68.3112 306.924 61.3697 303.411 60.2345C298.223 58.5629 300.721 68.0313 301.083 69.8059C301.186 69.8119 301.266 69.7813 301.325 69.7156C301.295 69.8781 301.262 70.0519 301.221 70.2272C298.177 67.6459 295.088 65.1153 292.101 62.4724C292.371 62.2762 292.798 61.5265 293.135 61.1275C293.893 60.228 294.619 59.2884 295.15 58.2362C295.988 56.5733 296.797 53.9209 294.575 52.9428C292.158 51.8771 291.01 54.877 290.993 56.6666C290.982 57.9043 291.324 59.0801 291.502 60.2933C291.557 60.6716 291.343 62.3771 291.866 61.6435C291.841 61.914 291.837 62.1099 291.85 62.2488C291.313 61.7719 290.781 61.2899 290.253 60.8044C290.277 60.743 290.295 60.6762 290.299 60.5987C290.328 60.0652 289.783 59.8597 289.402 60.0159C288.704 59.362 288.013 58.6998 287.335 58.0244C285.896 56.5936 284.437 55.122 282.988 53.619C283.303 53.3526 283.178 52.9838 283.472 52.701C283.765 52.4188 284.343 52.2628 284.689 52.0007C285.557 51.3411 286.276 50.3802 286.797 49.4345C287.657 47.8719 288.767 44.594 286.256 43.8492C283.668 43.0803 282.355 46.2357 282.188 48.2085C282.156 48.5907 282.446 52.0343 282.668 53.2848C279.987 50.4916 277.35 47.5935 274.961 44.6451C275.686 44.6385 277.739 43.1746 278.154 42.7752C279.167 41.801 280.778 39.6482 279.002 38.509C277.423 37.4986 275.476 38.9621 274.801 40.3844C274.69 40.6186 274.299 42.7984 274.268 43.7765C273.279 42.5261 272.336 41.2685 271.459 40.0067C270.873 39.1679 270.327 38.3068 269.815 37.4275C269.938 37.3586 270.054 37.2386 270.163 37.0892C272.797 36.6484 276.155 32.5953 273.061 31.1851C271.588 30.5146 269.991 31.8987 269.27 33.0319C269.122 33.2638 268.882 34.4294 268.688 35.3488C267.216 32.4357 266.091 29.3518 265.234 26.1897C265.464 26.1336 265.658 25.9608 265.683 25.6637C266.962 24.9447 267.972 24.346 268.864 22.9634C269.419 22.1046 270.418 20.1426 268.788 19.6659C266.668 19.0457 265.336 22.2401 265.162 23.8135C265.142 23.9962 265.143 24.5274 265.15 25.0141C265.076 25.0042 265.002 25.0054 264.929 25.0181C264.442 23.0601 264.053 21.0769 263.744 19.0904C264.901 18.723 265.102 12.728 264.331 11.8744C262.609 9.96306 261.394 12.7241 261.485 14.1834C261.594 15.904 262.385 17.4692 263.326 18.8583C263.427 19.0054 263.398 18.9982 263.424 18.7933C263.439 18.8946 263.473 18.9693 263.524 19.0235C263.475 19.9292 263.381 20.8565 263.426 21.6579C263.556 23.9531 263.828 26.2616 264.221 28.5272C264.317 29.0782 264.426 29.6247 264.549 30.1665C263.619 29.3849 262.365 28.6904 261.874 28.4732C260.601 27.9101 258.638 27.3021 257.372 28.2561ZM321.437 107.932C321.378 108.732 321.232 109.465 320.958 110.069C321.163 109.381 321.32 108.666 321.437 107.932Z" fill="#F2F2F2"/>
<path opacity="0.2" fill-rule="evenodd" clip-rule="evenodd" d="M147.727 14.1959C149.008 13.5693 150.716 14.2961 150.004 15.9525C149.241 17.7263 146.419 17.7483 144.826 17.7131C144.985 17.7049 145.499 16.0782 145.675 15.8324C146.193 15.1073 146.94 14.5819 147.727 14.1959ZM132.976 46.5163C132.524 46.8979 132.939 46.5521 132.976 46.5163V46.5163ZM149.216 22.4316C149.982 23.0034 150.018 24.0138 149.392 24.6979C148.646 25.5125 147.285 25.4835 146.269 25.4047C145.81 25.369 143.356 25.1783 143.937 24.7857C143.893 24.8022 143.799 24.8423 143.699 24.8968C143.645 25.0889 143.589 25.2804 143.53 25.471C143.544 25.4792 143.556 25.4881 143.572 25.4962C143.555 25.4891 143.543 25.4814 143.529 25.4741C142.938 27.3791 142.097 29.1931 140.996 30.8903C141.407 30.7318 141.834 30.6118 142.266 30.5582C143.546 30.3994 146.239 31.3699 144.806 33.0358C143.432 34.6328 141.295 32.9213 139.737 32.6859C138.224 34.7475 136.557 36.7233 134.809 38.6331C134.916 38.6658 135.01 38.734 135.064 38.8402C135.765 38.4926 136.495 37.9954 137.144 37.8606C138.079 37.6664 139.998 37.5479 140.705 38.3658C141.575 39.3714 140.642 40.1891 139.614 40.3825C138.123 40.6631 136.173 39.9528 134.739 39.473C134.575 39.5014 134.396 39.4546 134.289 39.3265C134.258 39.3164 134.226 39.3064 134.195 39.2968C132.425 41.1973 130.588 43.0352 128.762 44.8328C128.781 44.8318 128.801 44.8306 128.821 44.8296C129.297 44.5243 129.808 44.2738 130.362 44.1424C131.642 43.8369 133.149 43.8346 134.188 44.7392C135.223 45.6399 135.588 47.2159 134.517 48.2284C132.372 50.2552 129.217 45.638 128.135 45.4458C126.28 47.2534 124.317 48.9424 122.324 50.5974C122.551 50.53 122.783 50.4804 123.023 50.458C124.976 50.2744 129.56 52.6115 127.162 54.9144C125.071 56.9212 122.655 53.0619 120.972 51.7126C119.094 53.2551 117.206 54.787 115.371 56.3786C116.371 56.1186 117.338 56.0799 118.411 56.396C119.52 56.7235 121.311 57.5412 120.609 59.0053C119.894 60.4942 117.744 59.8179 116.624 59.3458C116.013 59.0884 114.789 58.2191 113.714 57.8532C110.785 60.5543 108.248 63.5291 106.327 67.0329C105.127 69.2206 104.216 71.5577 103.575 73.9596C103.166 75.4926 102.359 78.0676 102.519 80.0626C101.753 76.0695 103.145 71.2724 104.643 67.7022C106.021 64.4191 108.081 61.5366 110.494 58.9416C109.89 57.1638 104.797 54.6017 107.843 52.9482C109.461 52.0739 111.116 53.5225 111.469 55.0573C111.711 56.112 111.341 57.4376 110.948 58.4616C111.707 57.6706 112.496 56.9049 113.309 56.1647C114.432 55.1416 115.583 54.1482 116.745 53.1673C114.832 51.4125 113.024 46.394 115.59 45.5719C119.379 44.3612 117.551 51.2087 117.286 52.4921C117.211 52.4964 117.153 52.4743 117.11 52.4269C117.131 52.5444 117.156 52.67 117.185 52.7967C119.409 50.9291 121.665 49.0981 123.847 47.1859C123.65 47.0442 123.338 46.5022 123.093 46.2138C122.539 45.5637 122.009 44.8845 121.622 44.1238C121.011 42.9217 120.422 41.0041 122.044 40.296C123.809 39.5246 124.646 41.6934 124.658 42.9874C124.666 43.8824 124.416 44.7327 124.285 45.61C124.245 45.8836 124.4 47.1168 124.019 46.5865C124.037 46.7821 124.039 46.9237 124.03 47.0242C124.422 46.6792 124.811 46.3304 125.197 45.9791C125.179 45.9348 125.166 45.8865 125.163 45.8304C125.143 45.4446 125.54 45.2958 125.819 45.4087C126.328 44.9356 126.833 44.4565 127.329 43.9679C128.379 42.9327 129.445 41.8681 130.504 40.7808C130.274 40.5882 130.366 40.3215 130.151 40.1171C129.937 39.9132 129.515 39.8006 129.263 39.6112C128.629 39.1346 128.104 38.44 127.724 37.7563C127.097 36.6268 126.288 34.2569 128.121 33.7174C130.011 33.1605 130.969 35.4417 131.09 36.8682C131.113 37.1445 130.9 39.6347 130.738 40.539C132.696 38.5182 134.623 36.4217 136.368 34.2888C135.839 34.2843 134.34 33.2266 134.037 32.9379C133.298 32.2338 132.123 30.6777 133.42 29.8533C134.573 29.1221 135.994 30.1796 136.487 31.2079C136.567 31.3772 136.852 32.9533 136.874 33.6605C137.597 32.756 138.286 31.8462 138.927 30.9335C139.355 30.3268 139.754 29.704 140.128 29.0679C140.038 29.0182 139.954 28.9314 139.874 28.8235C137.951 28.5056 135.501 25.5761 137.76 24.5553C138.836 24.0699 140.002 25.0702 140.528 25.8893C140.636 26.0569 140.81 26.8997 140.952 27.5644C142.028 25.4575 142.85 23.227 143.477 20.9403C143.309 20.8997 143.168 20.7749 143.149 20.5601C142.216 20.0406 141.479 19.6081 140.828 18.6086C140.423 17.9879 139.695 16.5695 140.885 16.2242C142.433 15.775 143.404 18.0844 143.53 19.222C143.545 19.3541 143.544 19.7382 143.539 20.0902C143.593 20.083 143.647 20.0838 143.7 20.0929C144.057 18.677 144.341 17.2428 144.568 15.8063C143.723 15.541 143.579 11.2061 144.142 10.5886C145.4 9.20587 146.286 11.2019 146.219 12.2571C146.139 13.5014 145.561 14.6334 144.873 15.6382C144.799 15.7446 144.82 15.7394 144.801 15.5913C144.791 15.6645 144.766 15.7186 144.728 15.7578C144.764 16.4127 144.832 17.0831 144.799 17.6627C144.703 19.3223 144.504 20.9917 144.216 22.6301C144.146 23.0286 144.065 23.4238 143.976 23.8156C144.655 23.2501 145.571 22.7474 145.929 22.5902C146.86 22.1826 148.293 21.7422 149.216 22.4316ZM102.367 79.9051C102.412 80.4384 102.546 80.9251 102.808 81.3238C102.615 80.868 102.471 80.3933 102.367 79.9051Z" fill="#C1DEE2"/>
<g opacity="0.7">
<path fill-rule="evenodd" clip-rule="evenodd" d="M287.833 116.52C292.815 116.265 298.975 119.133 299.507 124.474C299.893 128.355 299.773 132.224 300.371 136.099C300.848 139.195 301.859 142.168 303.237 144.989C304.562 147.701 307.31 150.01 308.025 152.908C308.481 154.754 308.226 157.352 307.597 159.158C306.833 161.354 307.239 161.18 308.762 163.023C311.746 166.634 314.432 170.336 316.332 174.649C319.069 180.861 320.863 188.121 319.847 194.921C319.718 195.784 319.565 198.883 318.36 199.099C317.013 199.341 317.643 197.569 317.715 196.997C318.173 193.344 318.58 190.152 318.027 186.442C315.895 172.129 305.485 162.699 298.707 150.551C298.334 149.925 297.548 148.433 297.001 147.449C296.137 145.895 295.269 142.939 294.1 141.787C291.899 139.617 293.923 143.98 294.352 144.813C294.894 145.866 295.491 146.986 296.046 147.909C298.59 152.189 301.428 156.861 304.055 161.272C292.695 163.825 284.695 150.355 281.647 141.499C279.135 134.203 276.13 117.145 287.833 116.52Z" fill="#69A1AC"/>
<path fill-rule="evenodd" clip-rule="evenodd" d="M354.598 102.971C346.271 103.623 340.925 109.042 338.436 116.623C337.095 120.708 336.941 124.905 336.196 129.103C335.075 135.419 332.662 140.206 327.948 144.706C326.487 146.1 325.411 147.531 324.646 149.061C323.128 150.59 321.806 152.32 320.835 154.434C319.594 157.135 319.243 160.375 320.675 163.068C321.06 163.791 322.021 165.245 323.017 165.905C319.289 173.736 317.239 182.313 317.47 190.878C317.61 196.049 317.866 201.222 318.164 206.386C318.245 207.773 318.703 210.063 319.39 207.737C320.02 205.61 319.23 202.271 319.157 200.049C318.802 189.223 318.498 179.38 323.016 169.265C323.49 168.205 323.992 167.154 324.515 166.111C324.546 166.093 324.575 166.072 324.604 166.051C324.623 166.066 324.642 166.083 324.662 166.098C324.695 166.039 324.741 165.969 324.794 165.891C324.944 165.738 325.075 165.545 325.2 165.33C325.6 164.782 326.054 164.138 326.056 163.786C326.056 163.783 326.055 163.779 326.055 163.776C328.852 159.273 332.055 155.018 335.328 150.846C335.303 150.876 338.877 146.077 338.324 148.731C338.058 150.01 335.429 152.446 334.367 153.801C332.019 156.815 329.261 160.634 326.969 164.327C326.661 164.502 326.225 165.361 325.91 166C325.736 166.324 325.573 166.65 325.414 166.935C333.535 169.581 339.852 164.25 344.159 158.05C344.164 158.043 344.169 158.035 344.174 158.028C345.485 156.315 346.828 154.614 348.505 153.259C351.304 151 354.301 150.601 357.601 149.489C366.6 146.456 370.426 134.953 371.641 126.417C373.012 116.788 366.306 102.021 354.598 102.971Z" fill="#89C5CC"/>
<path fill-rule="evenodd" clip-rule="evenodd" d="M338.148 76.0045C329.602 84.7781 325.473 96.9472 322.203 108.387C318.552 121.165 316.14 134.14 316.047 147.424C315.987 156.153 315.746 164.935 316.262 173.653C316.446 176.749 316.759 179.851 317.256 182.914C317.297 183.166 318.41 190.005 319.475 188.411C320.081 187.505 318.334 181.317 318.202 180.286C317.46 174.481 317.287 168.633 317.324 162.786C317.383 153.159 317.095 143.581 318.085 133.989C318.232 132.557 318.349 131.053 318.694 129.652C319.06 128.162 318.593 128.812 319.786 128.223C320.945 127.65 322.377 127.731 323.58 127.012C328.349 124.16 330.789 116.832 332.688 112.024C334.86 106.525 336.181 100.662 337.235 94.8762C338.009 90.6249 338.563 86.3996 338.876 82.0936C338.975 80.7365 338.98 79.3174 339.251 77.983C339.324 77.623 339.689 76.9863 339.676 76.6675C339.648 75.9929 339.235 75.5961 339.201 75.0293C338.843 75.3468 338.492 75.6721 338.148 76.0045Z" fill="#89C5CC"/>
<path fill-rule="evenodd" clip-rule="evenodd" d="M291.547 192.899C291.547 207.408 303.472 219.171 318.182 219.171C332.893 219.171 344.818 207.408 344.818 192.899" fill="#89C5CC"/>
<path fill-rule="evenodd" clip-rule="evenodd" d="M320.319 192.982H318.912C319.01 191.241 319.139 189.502 319.434 187.78C320.563 181.193 324.093 171.518 331.836 170.449C332.121 170.409 333.172 170.403 334.445 170.476C335.048 170.144 335.724 169.943 336.436 169.897C343.028 169.417 350.389 174.663 353.569 180.122C356.133 184.523 355.701 190.302 354.117 194.978C353.057 198.109 350.743 202.572 346.884 202.615C342.057 202.67 341.824 196.784 341.73 193.344C341.606 188.769 341.02 184.784 337.366 181.667C336.514 180.94 335.583 180.301 334.723 179.585C333.376 178.464 331.887 177.316 331.714 175.461C331.474 172.902 332.939 172.442 335.175 172.917C335.556 172.998 339.395 174.697 338.827 173.354C338.653 172.944 338.019 172.619 337.219 172.375C335.149 172.153 332.68 171.895 331.97 172.049C324.309 173.707 321.326 184.173 320.534 190.823C320.449 191.541 320.38 192.261 320.319 192.982V192.982Z" fill="#69A1AC"/>
</g>
<g opacity="0.5">
<path fill-rule="evenodd" clip-rule="evenodd" d="M83.0271 68.5382C84.5603 66.3818 87.4057 60.9052 89.5638 60.1346C90.9537 59.6383 90.5485 64.7723 90.5656 65.7512C90.6325 69.5385 90.2587 73.3019 89.797 77.0574C88.9654 83.8305 86.2459 89.8625 82.5159 95.6271C80.5965 98.5934 78.3453 101.596 75.2272 103.446C73.7919 104.299 72.0649 104.441 70.6475 105.176C68.9967 106.031 69.8957 105.34 69.1518 107.036C68.1186 109.392 67.7882 112.431 67.3102 114.945C65.1153 126.483 59.8017 187.481 60.7229 199.218C60.8047 200.258 59.334 200.507 59.2606 199.237C58.8704 192.503 62.2471 145.87 63.9507 130.619C65.6543 115.369 67.3782 101.896 69.1069 96.6199C71.2039 90.2188 74.9914 82.521 78.1441 76.5517C79.6086 73.7786 81.2048 71.1009 83.0271 68.5382Z" fill="#69A1AC"/>
<path fill-rule="evenodd" clip-rule="evenodd" d="M94.4081 143.335C98.3979 140.445 102.717 145.898 99.1062 148.788C97.1103 150.385 95.0237 149.817 93.849 148.486C93.0865 149.403 92.3727 150.361 91.6869 151.171C89.5974 153.638 87.6226 156.165 85.7352 158.75C81.8144 164.12 78.4543 169.794 74.9412 175.365C71.4741 180.862 68.0348 186.388 64.8923 192.025C62.2302 196.8 58.6819 202.419 57.7705 207.654C59.1534 196.55 64.4008 185.878 70.6495 176.089C76.8474 166.38 83.9602 155.778 93.5568 148.116C92.5801 146.699 92.553 144.677 94.4081 143.335Z" fill="#C1DEE2"/>
<path fill-rule="evenodd" clip-rule="evenodd" d="M18.6981 116.254C20.9308 116.685 24.579 121.667 26.4194 123.565C28.6066 125.82 30.5909 128.225 32.4614 130.744C36.4881 136.166 40.0893 141.93 43.1516 147.942C48.1438 157.742 52.1433 167.802 55.0459 178.474C56.8226 185.006 57.973 191.777 58.6548 198.501C58.7836 199.769 60.1314 209.545 58.1893 209.808C56.4426 210.045 56.982 202.385 56.8978 201.343C55.9452 189.587 53.0917 178.149 49.1224 167.068C48.2579 164.655 47.4547 161.698 46.072 159.526C45.0763 157.961 46.0649 158.507 44.3151 157.915C42.8126 157.406 41.1007 157.531 39.5622 156.908C36.2198 155.556 33.5435 152.931 31.1975 150.291C26.6385 145.16 23.0256 139.61 21.1424 133.036C20.0978 129.39 19.1378 125.724 18.605 121.966C18.4672 120.995 17.26 115.977 18.6981 116.254Z" fill="#69A1AC"/>
<path fill-rule="evenodd" clip-rule="evenodd" d="M27.5089 33.3671C35.919 47.7534 42.8301 63.5563 47.2926 79.5622C49.9964 89.26 51.8872 99.2114 53.7659 109.091C56.6747 124.388 59.4261 139.684 60.2087 155.253C60.9961 170.912 62.5531 188.973 57.3547 204.055C59.9513 188.743 57.4791 172.444 57.0414 157.036C56.8322 149.681 56.2261 142.397 55.4309 135.085C54.6593 127.992 53.3986 120.932 52.2247 113.894C51.6529 110.467 51.0523 107.045 50.4408 103.624C50.2583 102.604 50.1812 99.5756 49.5249 98.8785C48.8643 98.1768 45.4942 97.8907 44.4361 97.3758C42.3055 96.3388 40.3014 94.8657 38.5277 93.3093C35.1275 90.3256 32.1694 86.427 29.8347 82.5839C24.4329 73.6915 22.2732 62.8397 22.3823 52.5412C22.4033 50.5417 25.6634 29.0103 24.3541 28.7138C24.433 28.6228 24.5075 28.5287 24.5778 28.4309C25.5691 30.068 26.5418 31.7161 27.5089 33.3671Z" fill="#89C5CC"/>
<path fill-rule="evenodd" clip-rule="evenodd" d="M118.282 85.2524C118.412 85.0678 119.256 83.7838 118.831 83.8659C119.697 83.6988 117.64 85.2819 119.797 84.3105C118.773 85.2648 119.364 86.5045 119.378 87.7889C119.4 89.8742 119.046 91.9423 118.648 93.9829C118.019 97.2084 117.082 100.344 115.721 103.345C112.756 109.882 107.721 116.176 101.743 120.264C98.7923 122.282 95.9002 122.969 92.5346 123.898C90.4087 124.485 90.2401 125.57 89.1117 127.604C86.7625 131.842 84.455 136.065 82.3832 140.446C79.9092 145.677 77.5077 150.914 75.2423 156.238C67.6106 174.169 61.3991 192.747 58.137 211.973C58.0571 200.643 60.7144 188.974 64.0662 178.175C66.5078 170.307 69.6863 162.723 73.0764 155.215C73.898 153.396 75.1429 151.057 75.4917 149.048C75.736 147.641 74.9892 146.288 74.6472 144.806C73.3142 139.035 73.4096 132.569 74.5802 126.766C75.8709 120.368 79.6036 117.398 85.9179 116.492C88.2272 116.16 91.1623 116.282 93.2798 115.31C95.5868 114.253 96.5385 110.777 97.8503 108.545C101.374 102.551 105.56 96.8018 110.367 91.751C111.699 90.3524 113.13 89.0621 114.649 87.8662C115.606 87.1116 117.629 86.1819 118.282 85.2524Z" fill="#89C5CC"/>
<path fill-rule="evenodd" clip-rule="evenodd" d="M47.4779 199.737H69.8868C70.8944 199.737 71.7111 200.542 71.7111 201.536C71.7111 201.624 71.7046 201.712 71.6916 201.799L69.9596 213.383C69.4316 216.914 66.3594 219.53 62.7404 219.53H54.6243C51.0053 219.53 47.9331 216.914 47.4051 213.383L45.6731 201.799C45.5261 200.815 46.215 199.901 47.2117 199.756C47.2998 199.743 47.3888 199.737 47.4779 199.737Z" fill="#C1DEE2"/>
</g>
<path fill-rule="evenodd" clip-rule="evenodd" d="M80.3008 205.659C80.3008 213.32 80.9137 219.53 89.1407 219.53C97.3676 219.53 97.9806 213.32 97.9806 205.659" fill="#F2F2F2"/>
<path fill-rule="evenodd" clip-rule="evenodd" d="M91.588 200.879C91.2865 201.393 91.0176 201.918 90.7801 202.45C90.7717 201.354 90.8332 200.249 91.001 199.129C91.288 197.211 91.7262 195.303 92.1381 193.399C92.434 192.03 92.4153 189.571 93.5386 188.48C93.8466 188.244 93.9208 188.706 93.9208 188.907C93.9246 188.95 93.9199 188.088 93.6209 188.238C91.8438 189.143 91.268 191.99 90.699 193.415C89.8689 195.495 89.1626 197.622 88.8718 199.786C88.7983 200.333 88.7583 200.88 88.7491 201.425C88.6887 201.279 88.632 201.132 88.5692 200.987C87.5435 198.614 86.1593 196.299 84.4329 194.164C84.008 193.638 78.6648 188.454 78.2465 189.248C78.2878 189.363 78.3742 189.458 78.5059 189.534C78.5137 189.543 78.5139 189.538 78.5094 189.525C78.8232 190.025 79.7154 190.798 79.9933 191.236C80.6927 192.338 81.2363 193.508 81.7887 194.656C82.9558 197.081 84.0385 199.531 85.088 201.986C85.3324 202.558 85.5871 203.126 85.847 203.693C83.1682 199.882 79.5946 196.422 74.6753 194.442C76.3555 195.285 77.457 196.871 78.5917 198.086C79.9602 199.551 81.4016 200.976 82.7727 202.439C84.3899 204.166 86.2928 205.984 87.8483 207.894C89.355 211.014 90.8192 214.137 91.723 217.417C91.3527 216.284 91.694 214.718 91.6306 213.529C91.5803 212.582 91.4681 211.643 91.3144 210.706C91.5044 211.129 91.6682 211.552 91.7424 211.945C91.6746 211.285 91.5966 210.63 91.5128 209.977C91.728 209.367 91.9392 208.797 92.082 208.327C92.8134 205.919 93.6843 203.552 94.8704 201.246C95.9678 199.112 97.2267 197.005 98.5985 194.963C99.2384 194.011 99.8871 193.062 100.532 192.111C100.954 191.489 101.355 190.493 101.943 189.897C98.1456 193.321 93.9971 196.77 91.588 200.879Z" fill="#F2F2F2"/>
<path fill-rule="evenodd" clip-rule="evenodd" d="M365.312 44.5637C364.224 40.9824 361.668 38.1793 359.015 35.611C353.85 30.6112 351.073 27.5198 349.232 20.206C348.15 15.9045 347.048 11.3463 343.614 8.22556C341.114 5.95297 336.812 4.04358 333.468 5.67094C328.325 8.69902 326.944 14.9131 327.462 20.4775C328.105 27.3741 331.371 31.6266 337.646 34.1668C341.181 35.5975 343.531 37.4852 345.45 40.7745C346.986 43.4048 347.881 46.6984 349.81 49.0828C352.694 52.6472 356.303 54.2317 360.751 53.6396C356.585 46.0779 351.716 38.4451 345.844 32.0785C345.295 31.4384 342.053 28.9885 342.707 27.8976C343.427 26.6965 346.755 31.2084 346.732 31.1811C348.438 33.1132 350.017 35.1663 351.568 37.2391C351.564 37.2411 351.559 37.2422 351.555 37.2443C353.151 39.3713 354.735 41.5296 356.289 43.715C356.917 44.6394 357.528 45.5756 358.114 46.5353C358.973 47.9436 360.336 51.9404 361.742 52.8063C362.043 52.9915 362.321 53.0949 362.581 53.1376C363.54 54.6867 364.474 56.2482 365.361 57.8281C367.679 61.9546 369.669 66.3115 370.582 70.9703C370.848 72.3301 370.66 77.4165 371.601 78.3981C373.321 80.1936 372.817 76.736 372.714 75.6924C371.86 67.0503 368.714 59.6876 364.147 52.4222C365.55 50.6149 365.753 46.0147 365.312 44.5637Z" fill="#F2F2F2"/>
<path fill-rule="evenodd" clip-rule="evenodd" d="M306.386 48.7393C308.199 46.6314 312.56 46.2737 315.226 46.4148C318.526 46.5894 321.915 47.3817 325.055 48.3397C330.226 49.9177 335.251 52.7974 339.806 55.5846C340.355 55.9205 347.117 59.9315 346.518 60.6355C345.925 61.3329 339.287 56.5683 337.807 55.7471C334.65 53.9943 331.755 51.9213 328.275 50.7638C324.672 49.565 320.861 49.0904 317.072 49.1231C316.586 49.1274 315 48.7929 314.966 49.5026C314.932 50.1966 317.557 49.8345 318.019 49.8386C319.931 49.8559 321.854 50.0334 323.739 50.3602C327.269 50.9723 330.589 52.2055 333.613 54.0969C332.769 56.032 330.746 56.9242 328.624 56.44C326.791 56.0212 325.003 54.9889 323.207 54.6904C321.97 54.4848 320.732 54.6071 319.533 54.9508C316.37 55.8576 314.545 57.7152 311.067 56.423C308.341 55.4101 303.781 51.7707 306.386 48.7393Z" fill="#F2F2F2"/>
<path fill-rule="evenodd" clip-rule="evenodd" d="M308.437 28.7909H309.295C309.235 27.7167 309.157 26.6444 308.973 25.5823C308.283 21.6012 306.126 15.754 301.396 15.1078C301.221 15.0837 300.579 15.0797 299.802 15.1241C299.433 14.9232 299.02 14.8017 298.585 14.7738C294.558 14.484 290.06 17.6544 288.118 20.9537C286.552 23.6138 286.815 27.1068 287.783 29.9329C288.43 31.8249 289.844 34.5225 292.202 34.5488C295.151 34.5817 295.293 31.0245 295.351 28.945C295.426 26.1803 295.784 23.7719 298.017 21.8874C298.537 21.4484 299.106 21.0622 299.632 20.6292C300.455 19.9516 301.364 19.2578 301.47 18.1368C301.616 16.5902 300.722 16.3119 299.356 16.5992C299.123 16.6481 296.777 17.6752 297.124 16.8634C297.231 16.6154 297.618 16.4189 298.107 16.2716C299.372 16.1374 300.88 15.9817 301.314 16.0748C305.994 17.0766 307.816 23.4026 308.3 27.4217C308.355 27.8768 308.399 28.3335 308.437 28.7909H308.437Z" fill="#F2F2F2"/>
<path fill-rule="evenodd" clip-rule="evenodd" d="M299.198 54.2789C302.874 50.0313 305.362 44.8257 304.946 38.9926C303.748 22.1861 279.98 25.8833 275.357 34.3658C270.734 42.8483 271.283 64.3649 277.258 65.881C279.641 66.4856 284.718 65.0045 289.884 61.9392L286.641 84.5221H305.79L299.198 54.2789Z" fill="#915B3C"/>
<path fill-rule="evenodd" clip-rule="evenodd" d="M300.669 58.0622C303.072 47.5379 309.919 40.3638 308.873 35.6599C308.176 32.5239 306.318 30.5738 303.299 29.8095C301.738 23.5923 296.702 20.9478 288.193 21.8762C275.428 23.2688 267.637 28.4867 271.001 39.9684C274.094 39.9684 277.828 38.8674 282.991 40.7537C284.629 41.3522 285.8 43.2082 286.506 46.3218H288.839C291.103 42.6269 293.336 41.2691 295.537 42.2484C297.738 43.2278 298.238 45.6067 297.038 49.3851L298.187 58.0622H300.669Z" fill="#191847"/>
<path fill-rule="evenodd" clip-rule="evenodd" d="M359.245 182.689H267.493C260.442 182.689 254.727 188.315 254.727 195.254V267.505C254.727 274.445 260.442 280.071 267.493 280.071H359.245C366.295 280.071 372.011 274.445 372.011 267.505V195.254C372.011 188.315 366.295 182.689 359.245 182.689ZM346.48 204.678C348.242 204.678 349.671 206.085 349.671 207.82V254.94C349.671 256.675 348.242 258.081 346.48 258.081H280.258C278.496 258.081 277.067 256.675 277.067 254.94V207.82C277.067 206.085 278.496 204.678 280.258 204.678H346.48Z" fill="#C5CFD6"/>
<path fill-rule="evenodd" clip-rule="evenodd" d="M175.613 276.144C191.343 257.236 201.987 243.219 207.544 234.092C217.058 218.465 224.845 204.559 227.302 199.247C233.162 186.58 213.812 180.649 209.432 186.557C202.804 195.5 188.648 223.639 166.964 270.974L175.613 276.144Z" fill="#B28B67"/>
<path fill-rule="evenodd" clip-rule="evenodd" d="M207.847 270.647L237.122 198.11C243.384 184.888 213.147 176.196 208.545 182.35C198.098 196.32 173.268 251.433 170.155 255.595L207.847 270.647Z" fill="#2F3676"/>
<path fill-rule="evenodd" clip-rule="evenodd" d="M285.817 256.104C280.114 247.916 259.369 220.367 248.07 208.968C244.823 205.693 241.655 202.549 238.659 199.619C229.753 190.91 212.024 205.541 220.913 213.473C243.052 233.227 275.353 259.895 278.052 262.273C281.834 265.605 289.402 261.25 285.817 256.104Z" fill="#915B3C"/>
<path fill-rule="evenodd" clip-rule="evenodd" d="M284.48 252.403C286.445 253.996 287.724 255.298 288.316 256.307C289.036 257.534 289.879 259.442 290.845 262.032C289.4 262.854 276.411 270.233 251.88 284.172C248.933 281.45 248.473 279.337 250.5 277.835C252.528 276.332 254.201 275.065 255.519 274.034L268.964 255.79C269.223 255.439 269.722 255.362 270.079 255.617C270.085 255.621 270.091 255.625 270.097 255.63L272.893 257.75C275.457 257.531 277.37 257.063 278.633 256.345C279.659 255.762 280.836 254.549 282.165 252.706L282.165 252.706C282.675 251.998 283.671 251.832 284.39 252.335C284.421 252.357 284.451 252.379 284.48 252.403Z" fill="#E4E4E4"/>
<path fill-rule="evenodd" clip-rule="evenodd" d="M182.38 273.318C183.272 275.664 183.719 277.418 183.719 278.583C183.719 279.999 183.479 282.066 183 284.783C181.331 284.783 166.331 284.783 138 284.783C136.83 280.977 137.505 278.923 140.025 278.619C142.544 278.316 144.637 278.042 146.304 277.797L167.219 268.619C167.622 268.443 168.093 268.621 168.273 269.017C168.276 269.024 168.279 269.031 168.282 269.037L169.626 272.248C171.959 273.319 173.854 273.854 175.312 273.854C176.497 273.854 178.133 273.383 180.221 272.441L180.221 272.441C181.022 272.08 181.969 272.426 182.336 273.215C182.352 273.249 182.367 273.283 182.38 273.318Z" fill="#E4E4E4"/>
<path fill-rule="evenodd" clip-rule="evenodd" d="M247.657 201.733C271.988 197.832 288.286 195.164 296.55 193.729C320.105 189.641 326.974 177.164 322.912 149.942H279.513C273.77 151.575 249.772 161.671 207.52 180.232C199.919 183.947 201.334 194.899 202.724 198.507C202.78 198.654 215.596 220.27 241.17 263.353L276.673 241.091L247.59 204.357C246.822 202.834 246.844 201.96 247.657 201.733Z" fill="#5C63AB"/>
<path fill-rule="evenodd" clip-rule="evenodd" d="M244.53 139.662L219.08 158.057C212.178 159.89 206.411 162.171 201.779 164.9C200.686 165.881 199.363 167.868 203.9 167.525C208.437 167.181 213.225 167.021 213.851 168.544C214.477 170.067 211.732 171.889 212.997 173.944C213.841 175.314 217.826 171.879 224.954 163.638L250.156 153.351L244.53 139.662ZM342.245 140.296L325.572 140.361C335.867 173.073 341.425 190.43 342.245 192.432C344.091 196.935 340.185 203.794 338.514 207.48C343.955 209.876 343.375 201.001 350.24 204.144C356.505 207.013 361.271 212.212 368.509 207.815C369.399 207.275 370.375 205.24 368.018 203.649C362.148 199.687 353.688 192.753 352.545 190.47C350.987 187.358 347.553 170.633 342.245 140.296Z" fill="#915B3C"/>
<path fill-rule="evenodd" clip-rule="evenodd" d="M294.863 71.4321L287.964 70.2673C262.366 92.0332 251.853 133.848 220.476 155.999L228.028 165.213C282.461 158.58 295.952 107.575 294.863 71.4321Z" fill="#E87613"/>
<path fill-rule="evenodd" clip-rule="evenodd" d="M324.938 156.773C297.275 156.773 276.927 156.773 263.893 156.773C261.104 156.773 261.63 152.808 262.033 150.808C266.687 127.718 284.853 102.829 284.853 69.9625L302.461 67.2447C317.025 90.3009 322.062 118.688 324.938 156.773Z" fill="#DDE3E9"/>
<path fill-rule="evenodd" clip-rule="evenodd" d="M324.447 89.9078C327.005 89.1843 329.03 87.4966 330.523 84.845C336.958 73.4143 334.634 67.1209 327.756 65.0522C320.879 62.9836 314.745 67.2447 303.787 67.2447C303.191 67.2447 302.645 67.2815 302.149 67.355L296.637 67.6646C280.821 120.424 276.46 155.624 283.551 173.265H331.598C334.445 179.799 337.169 185.296 339.77 189.757H352.862C354.095 150.543 344.623 117.26 324.447 89.9078Z" fill="#FF9B21"/>
<path fill-rule="evenodd" clip-rule="evenodd" d="M321.136 146.169C319.625 158.614 317.169 167.646 313.768 173.265H331.598C328.278 165.643 324.79 156.611 321.136 146.169V146.169Z" fill="black" fill-opacity="0.1"/>
<path fill-rule="evenodd" clip-rule="evenodd" d="M72.0188 70.837C69.5321 67.9585 67.8491 64.431 68.1304 60.4783C68.9407 49.0894 85.017 51.5948 88.1442 57.343C91.2714 63.0911 90.8998 77.6717 86.8582 78.699C85.2464 79.1087 81.8128 78.1051 78.3182 76.0279L80.5117 91.3311H67.5601L72.0188 70.837Z" fill="#B28B67"/>
<path fill-rule="evenodd" clip-rule="evenodd" d="M85.2255 53.5525C84.9289 53.3779 84.3082 53.0096 83.9938 52.8761C83.9193 52.844 83.3983 52.4775 83.3843 52.4821C82.9899 52.6134 81.8476 53.0979 81.7496 53.5166C81.7344 53.5483 81.7195 53.5781 81.705 53.6041C81.5431 53.8942 81.3946 54.1916 81.2529 54.4926C80.942 55.1533 80.6737 55.8438 80.4174 56.529C79.9181 57.8632 79.4844 59.2286 79.0857 60.5971C78.6797 61.9902 78.3352 63.3995 77.9495 64.7983C77.3945 66.8112 76.6841 68.7747 76.1329 70.7867C75.7809 72.0714 75.5852 73.3712 75.6776 74.6935C75.6785 74.7094 75.679 74.7251 75.6805 74.7412C75.681 74.7478 75.6819 74.7544 75.6825 74.761C75.6982 74.9643 75.7206 75.168 75.7505 75.3724C75.7766 75.5472 75.8028 75.7225 75.8308 75.8979C76.3342 74.9078 76.7186 73.8169 77.1265 72.7815C77.1664 72.6801 77.2045 72.578 77.2417 72.4756C77.3732 72.2656 77.5073 72.0571 77.643 71.8494C78.4982 70.5397 79.3567 69.2348 80.1768 67.9014C81.6518 65.5033 83.1131 63.0544 84.8618 60.8521C85.3782 60.2018 85.9066 59.5615 86.4165 58.9059C86.7066 58.5328 86.9893 58.1534 87.2627 57.7673C87.4582 57.4913 88.3081 56.529 88.0003 55.9508C87.8429 55.655 85.9951 54.0056 85.2255 53.5525Z" fill="#2C2C2C"/>
<path fill-rule="evenodd" clip-rule="evenodd" d="M84.0877 52.9244C84.3762 53.02 84.2358 52.428 83.9564 52.2197C82.6619 51.2545 77.7126 50.9042 73.4056 51.7859C70.5204 52.3766 67.1648 53.8467 64.8602 55.7366C62.7828 57.4404 61.354 60.1716 60.6184 62.8104C59.8461 65.5812 59.7291 68.4699 60.1594 71.3113C60.2539 71.9354 60.4571 72.5301 60.5702 73.141C60.6977 73.8289 60.7631 74.4913 60.9903 75.1606C61.1294 75.5703 61.3658 75.972 61.4846 76.3841C61.6201 76.8543 61.5375 77.2894 61.4386 77.7676C61.2776 78.5472 61.0779 79.3251 60.7941 80.0696C60.368 81.1876 59.8509 82.2347 59.5267 83.3948C59.0953 84.9385 57.2908 89.9618 58.6095 91.3311H83.7134C83.0813 89.6306 81.1838 87.6294 80.7997 85.8091C80.5734 84.7368 80.4658 82.395 80.4421 82.3099C79.8764 78.4642 78.7718 76.6278 78.0799 75.9613C77.3881 75.2948 76.4666 75.0899 76.4192 74.5117C76.2229 72.1207 77.1871 69.8297 77.8941 67.5981C78.7367 64.9385 79.3542 62.2129 80.2229 59.5623C80.6075 58.3886 82.5897 52.428 84.0877 52.9244Z" fill="#8991DC"/>
<path fill-rule="evenodd" clip-rule="evenodd" d="M75.2856 55.6751C74.3389 58.6372 74.1353 60.2183 74.3389 64.2656H73.8745C73.007 60.4462 73.7791 56.8506 74.7019 55.6751H75.2856ZM62.5854 63.3195C64.3495 67.5407 65.1539 70.0335 70.0801 73.4494L69.6997 73.7121C64.8093 70.9789 63.3852 67.7186 62.2144 63.4953L62.5854 63.3195ZM69.8337 59.0237C70.6349 65.0154 70.8689 68.4378 75.0429 74.9919L74.5989 75.1258C70.303 69.4192 69.622 64.7616 69.4191 59.0566L69.8337 59.0237ZM65.2229 76.8219L65.6028 76.3664C70.7875 77.9679 70.21 81.2741 76.74 84.6224L76.1943 84.9485C70.4764 82.6214 69.1398 77.6303 65.2229 76.8219Z" fill="black" fill-opacity="0.2"/>
<path fill-rule="evenodd" clip-rule="evenodd" d="M44.1513 157.853H85.8419L91.3047 223.843H29.2446L44.1513 157.853Z" fill="#C5CFD6"/>
<path fill-rule="evenodd" clip-rule="evenodd" d="M44.1513 157.853H56.9735L64.6479 223.843H29.2446L44.1513 157.853Z" fill="black" fill-opacity="0.1"/>
<path fill-rule="evenodd" clip-rule="evenodd" d="M133.373 146.548C137.818 143.916 145.276 147.297 145.271 151.062C145.255 162.325 134.832 215.409 134.288 218.765C133.743 222.12 127.914 223.007 127.574 218.776C127.034 212.043 126.03 188.737 127.034 177.95C127.449 173.497 127.895 169.256 128.335 165.473C122.865 175.213 114.406 189.159 102.958 207.311L96.7432 204.51C101.624 188.654 105.625 177.459 108.749 170.927C114.097 159.742 119.111 150.164 121.222 146.79C124.541 141.483 130.32 143.335 133.373 146.548Z" fill="#B28B67"/>
<path fill-rule="evenodd" clip-rule="evenodd" d="M97.1874 195.705L118.519 145.872C123.629 137.766 137.956 147.522 136.213 152.224C132.257 162.898 112.136 197.455 110.957 200.635L97.1874 195.705Z" fill="#1F28CF"/>
<path fill-rule="evenodd" clip-rule="evenodd" d="M96.0029 201.368C94.6742 202.447 93.8098 203.328 93.4098 204.011C92.9232 204.842 92.3536 206.135 91.7009 207.889C92.6785 208.446 101.465 213.448 118.06 222.897C120.053 221.054 120.363 219.623 118.992 218.605C117.62 217.586 116.488 216.728 115.596 216.028L106.498 203.667C106.323 203.429 105.985 203.376 105.744 203.549C105.74 203.552 105.736 203.555 105.732 203.558L103.841 204.993C102.107 204.844 100.813 204.526 99.9588 204.04C99.2648 203.645 98.4682 202.823 97.569 201.574L97.569 201.574C97.2239 201.094 96.5501 200.981 96.0641 201.322C96.0431 201.336 96.0227 201.352 96.0029 201.368Z" fill="#E4E4E4"/>
<path fill-rule="evenodd" clip-rule="evenodd" d="M126.209 216.075C125.605 217.664 125.303 218.853 125.303 219.642C125.303 220.602 125.465 222.002 125.79 223.843C126.919 223.843 137.064 223.843 156.227 223.843C157.018 221.265 156.561 219.872 154.857 219.667C153.153 219.461 151.737 219.276 150.61 219.11L136.463 212.89C136.191 212.771 135.872 212.891 135.751 213.16C135.749 213.164 135.747 213.169 135.745 213.174L134.835 215.349C133.258 216.075 131.976 216.438 130.989 216.438C130.188 216.438 129.081 216.119 127.669 215.48L127.669 215.48C127.127 215.235 126.487 215.47 126.238 216.004C126.228 216.027 126.218 216.051 126.209 216.075Z" fill="#E4E4E4"/>
<path fill-rule="evenodd" clip-rule="evenodd" d="M146.766 154.891C146.766 169.029 139.957 202.008 139.953 205.121L125.303 205.132C127.448 175.705 128.208 160.833 127.584 160.516C126.649 160.041 89.2415 164.199 78.0224 164.199C61.8445 164.199 55.1519 154.139 54.6089 135.502H86.6569C93.1821 136.19 127.219 142.96 139.859 145.288C145.271 146.284 146.766 150.996 146.766 154.891Z" fill="#2B44FF"/>
<path fill-rule="evenodd" clip-rule="evenodd" d="M113.697 128.828L128.984 143.535C133.432 145.406 137.077 147.472 139.918 149.733C140.556 150.493 141.252 151.949 138.246 151.298C135.24 150.646 132.048 150.094 131.483 151.058C130.919 152.022 132.583 153.499 131.539 154.761C130.843 155.602 128.502 152.927 124.516 146.735L108.619 137.492L113.697 128.828ZM38.9423 115.518L50.7593 115.562C41.7591 144.318 36.9815 159.374 36.4265 160.73C35.1778 163.782 37.8203 168.43 38.9503 170.927C35.2698 172.551 35.662 166.537 31.0192 168.667C26.7815 170.611 23.5578 174.134 18.6618 171.155C18.0598 170.788 17.4002 169.409 18.9939 168.332C22.9646 165.647 28.6865 160.948 29.4596 159.401C30.5139 157.292 33.6748 142.664 38.9423 115.518Z" fill="#B28B67"/>
<path fill-rule="evenodd" clip-rule="evenodd" d="M74.9507 82.4608L79.6172 81.6714C86.9682 107.297 124.738 124.764 127.056 134.343C127.907 137.856 125.343 139.632 126.667 140.702L120.602 145.081C119.575 143.899 117.383 146.061 112.805 144.549C108.228 143.037 74.9507 112.803 74.9507 82.4608Z" fill="#DB2721"/>
<path fill-rule="evenodd" clip-rule="evenodd" d="M82.8005 85.8676C82.2625 119.794 102.15 128.448 97.72 142.057C94.062 153.296 59.0485 165.378 52.9897 154.361C50.5371 149.902 49.4244 144.508 49.2981 138.645C47.7496 143.15 46.5249 147.028 45.624 150.279C44.0699 155.888 38.0447 156.78 38.0447 158.941L30.1066 156.78C30.645 153.844 26.9028 152.415 27.9062 145.856C32.4019 116.471 44.4812 95.1703 64.144 81.9546L64.3474 79.0858C64.4306 77.913 65.4621 77.0288 66.6513 77.1108L81.1865 78.1131C82.3757 78.1951 83.2724 79.2123 83.1892 80.3851L82.8005 85.8676Z" fill="#FF4133"/>
</svg>
