<svg width="102" height="108" viewBox="0 0 102 108" fill="none" xmlns="http://www.w3.org/2000/svg">
<path fill-rule="evenodd" clip-rule="evenodd" d="M49.4595 24.1623C48.2226 22.7019 47.3855 20.9123 47.5254 18.9068C47.9284 13.1287 55.9247 14.3998 57.4802 17.3161C59.0356 20.2324 58.8508 27.6299 56.8405 28.1511C56.0388 28.359 54.331 27.8498 52.5928 26.7959L53.6838 34.56H47.2417L49.4595 24.1623Z" fill="#B28B67"/>
<path fill-rule="evenodd" clip-rule="evenodd" d="M51.4641 21.0241C51.2535 20.8785 51.0018 20.79 50.7314 20.79C49.9902 20.79 49.3893 21.4549 49.3893 22.14C49.3893 22.8528 49.7239 23.4039 50.2018 23.6377C49.9465 24.1396 49.6899 24.5038 49.3893 24.57C48.2292 24.452 46.7051 21.5515 46.7051 19.17C46.7051 16.5633 48.7671 14.31 52.6103 14.31C56.0647 14.31 57.3744 15.7427 57.4419 17.01C55.9617 17.4192 53.3751 17.5768 49.6577 17.55V17.82L52.8788 18.09L53.4156 19.71C52.5615 19.6459 51.9512 20.2351 51.4641 21.0241Z" fill="#191847"/>
<path d="M44.5581 103.95C55.9729 103.95 65.2265 95.065 65.2265 84.1049C65.2265 73.1449 55.9729 64.2599 44.5581 64.2599C33.1432 64.2599 23.8896 73.1449 23.8896 84.1049C23.8896 95.065 33.1432 103.95 44.5581 103.95Z" fill="#C5CFD6"/>
<path fill-rule="evenodd" clip-rule="evenodd" d="M83.6159 100.888C80.1766 93.2314 77.6894 86.5642 76.6911 83.0466C74.9816 77.0236 73.6812 71.7237 73.3525 69.7444C72.5688 65.0247 79.3818 64.7499 80.2823 67.0955C81.6453 70.6457 84.0248 82.3102 86.884 99.929L83.6159 100.888ZM43.7229 76.8591C46.8784 75.6045 57.9287 71.6782 63.2583 70.5675C64.7898 70.2484 66.2742 69.9518 67.6697 69.6838C71.8179 68.8873 73.967 76.4147 69.9718 76.9931C60.0223 78.4334 45.9171 79.9209 44.71 80.0878C43.0182 80.3217 41.7398 77.6476 43.7229 76.8591Z" fill="#B28B67"/>
<path fill-rule="evenodd" clip-rule="evenodd" d="M70.2156 67.6124L53.1475 58.8726V56.97H55.1773C71.69 61.2024 80.1279 63.9148 80.4912 65.1072C80.4951 65.12 80.4986 65.1329 80.5019 65.1457C80.5102 65.1567 80.5184 65.1677 80.5264 65.1788C83.7989 69.7059 85.7587 91.8073 86.402 93.4621L80.1312 94.4031C77.7325 85.4559 70.058 79.2229 70.2619 68.5068C70.2068 68.1925 70.1929 67.8944 70.2156 67.6124Z" fill="#1F28CF"/>
<path fill-rule="evenodd" clip-rule="evenodd" d="M63 72.4999C61.4383 72.1854 51.5656 72.2078 50.335 71.9907C42.3861 70.5883 40.0682 66.3083 41.4387 56.97L56.0843 56.97C58.4767 57.6613 70.9098 62.9059 77.3607 65.6954C81.6302 67.5416 80.2843 74.1972 77.8665 75.9292C77.8533 76.0355 77.8098 76.1077 77.7323 76.14C64.7262 81.5623 54.4371 78.7172 50.9999 79.6263L49.4101 74.5816L63 72.4999Z" fill="#2B44FF"/>
<path fill-rule="evenodd" clip-rule="evenodd" d="M44.8088 76.0593C43.9554 76.1425 43.3494 76.2721 42.991 76.4481C42.555 76.6622 41.9541 77.0475 41.1883 77.604C41.4341 78.1114 43.6429 82.6713 47.8149 91.2839C49.1585 91.0641 49.6915 90.5484 49.4139 89.7366C49.1363 88.9248 48.9125 88.2471 48.7423 87.7035L48.4878 79.9577C48.4829 79.8087 48.3586 79.6922 48.2102 79.6975C48.2077 79.6976 48.2052 79.6977 48.2026 79.6979L47.0164 79.7745C46.3432 79.2274 45.8993 78.7322 45.6845 78.2889C45.5101 77.9287 45.4141 77.3601 45.3967 76.5831L45.3967 76.5831C45.39 76.2849 45.1439 76.0493 44.8471 76.0569C44.8343 76.0572 44.8215 76.058 44.8088 76.0593Z" fill="#E4E4E4"/>
<path fill-rule="evenodd" clip-rule="evenodd" d="M82.0505 99.4685C81.7502 100.275 81.6001 100.878 81.6001 101.278C81.6001 101.765 81.6807 102.476 81.842 103.41C82.4035 103.41 87.45 103.41 96.9814 103.41C97.3749 102.102 97.1478 101.395 96.3001 101.291C95.4525 101.187 94.7484 101.093 94.1877 101.008L87.151 97.8531C87.0156 97.7923 86.8569 97.8535 86.7966 97.9897C86.7956 97.992 86.7946 97.9944 86.7936 97.9968L86.3413 99.1004C85.5566 99.4687 84.919 99.6528 84.4284 99.6528C84.0298 99.6528 83.4793 99.4909 82.777 99.167L82.777 99.167C82.5075 99.0427 82.1888 99.1618 82.0653 99.4329C82.0599 99.4446 82.055 99.4564 82.0505 99.4685Z" fill="#E4E4E4"/>
<path fill-rule="evenodd" clip-rule="evenodd" d="M69.2229 51.6055L77.7851 57.9299C80.1073 58.5602 82.0475 59.3444 83.6056 60.2825C83.9736 60.6198 84.4184 61.303 82.8921 61.185C81.3657 61.0669 79.7549 61.0117 79.5443 61.5354C79.3337 62.0591 80.2574 62.6854 79.8316 63.392C79.5478 63.863 78.2069 62.6819 75.809 59.8485L67.3302 56.3119L69.2229 51.6055ZM30.4763 48.9713L35.2035 49.8322C29.7169 60.7837 26.7784 66.5741 26.3877 67.2036C25.5087 68.6199 26.396 71.1718 26.7308 72.5179C24.7857 73.0096 25.5046 70.0385 23.0438 70.6994C20.7977 71.3027 18.9101 72.7827 16.7728 70.8688C16.51 70.6335 16.3077 69.8872 17.1827 69.4872C19.3629 68.4907 22.5773 66.6399 23.0914 65.9343C23.7926 64.972 26.2542 59.3177 30.4763 48.9713Z" fill="#B28B67"/>
<path fill-rule="evenodd" clip-rule="evenodd" d="M71.2175 52.293C72.3191 52.2135 73.5174 52.3971 74.8022 52.8325C75.4344 53.0467 75.7742 53.7359 75.5612 54.3718C75.4375 54.7412 75.1545 55.0113 74.8151 55.1309C75.0609 55.3113 75.3089 55.4907 75.5592 55.6691L73.3991 60.1046C64.3096 55.5459 55.7663 52.1089 51.8733 44.5828C50.5667 42.0569 51.009 33.4768 50.8843 30.3555L53.755 29.1712C57.7568 37.4917 63.1726 45.4743 71.2175 52.293Z" fill="#3541A5"/>
<path fill-rule="evenodd" clip-rule="evenodd" d="M40.7998 59.3756C49.2385 60.3081 55.8807 60.3081 60.7264 59.3756C61.3267 59.2601 61.3004 56.6569 61.0219 55.946C56.6864 44.8745 53.8344 36.7697 53.8344 29.0797C53.0389 29.4977 51.6467 29.5603 49.6577 29.2676C44.3124 37.1924 41.8554 46.2852 40.7998 59.3756Z" fill="#191847"/>
<path fill-rule="evenodd" clip-rule="evenodd" d="M39.2318 60.6846C38.9452 60.4134 38.7958 60.0068 38.8692 59.5879L39.0091 58.7902C39.1038 58.2496 39.5403 57.856 40.0556 57.7944C40.1457 57.3893 40.2234 56.9869 40.2875 56.5875C40.8294 53.2136 39.9036 49.9053 39.9471 46.6566C35.6308 50.3608 31.7588 56.757 28.331 65.8452L23.2614 64.3446C23.4549 63.6218 23.6552 62.9078 23.8625 62.2027C23.2774 61.8683 22.5936 60.3358 23.0857 60.0794C23.5939 59.8145 24.1323 59.6281 24.6993 59.5184C29.3477 45.4354 36.9491 35.1359 47.5037 28.62L48.9536 28.62L50.5564 28.62C49.6576 40.5758 62.072 60.6778 57.7614 82.9699C49.794 84.7596 38.4194 79.1912 27.3472 83.64C27.7592 74.6628 36.012 70.1165 39.2318 60.6846Z" fill="#3541A5"/>
<path fill-rule="evenodd" clip-rule="evenodd" d="M48.6126 28.89L47.2278 33.1737L50.0165 36.385L47.4962 38.9085L53.5936 49.41L46.1372 38.9295L48.6126 36.385L46.1372 33.5471L48.6126 28.89Z" fill="black" fill-opacity="0.1"/>
<path fill-rule="evenodd" clip-rule="evenodd" d="M51.8051 53.46C51.2122 53.46 50.7314 52.9765 50.7314 52.38C50.7314 51.7835 51.2122 51.3 51.8051 51.3C52.3981 51.3 52.8788 51.7835 52.8788 52.38C52.8788 52.9765 52.3981 53.46 51.8051 53.46ZM53.1472 59.67C52.5543 59.67 52.0736 59.1865 52.0736 58.59C52.0736 57.9935 52.5543 57.51 53.1472 57.51C53.7402 57.51 54.2209 57.9935 54.2209 58.59C54.2209 59.1865 53.7402 59.67 53.1472 59.67ZM53.4157 65.88C52.8227 65.88 52.342 65.3965 52.342 64.8C52.342 64.2035 52.8227 63.72 53.4157 63.72C54.0086 63.72 54.4893 64.2035 54.4893 64.8C54.4893 65.3965 54.0086 65.88 53.4157 65.88Z" fill="black" fill-opacity="0.4"/>
</svg>
