<svg width="18" height="19" viewBox="0 0 18 19" fill="none" xmlns="http://www.w3.org/2000/svg">
<path d="M17.7623 11.9151L16.3723 10.7275C16.4381 10.3245 16.4721 9.91313 16.4721 9.50172C16.4721 9.09031 16.4381 8.67889 16.3723 8.27597L17.7623 7.08838C17.8672 6.99869 17.9422 6.87923 17.9775 6.74589C18.0127 6.61255 18.0065 6.47164 17.9597 6.3419L17.9406 6.28676C17.5579 5.218 16.9849 4.22723 16.2492 3.36234L16.211 3.31781C16.1218 3.21294 16.0028 3.13756 15.8699 3.1016C15.7369 3.06564 15.5961 3.07078 15.4662 3.11634L13.7409 3.72922C13.1042 3.20753 12.3933 2.79612 11.6251 2.50771L11.2919 0.705127C11.2668 0.569493 11.2009 0.444712 11.1031 0.347363C11.0053 0.250014 10.8802 0.184705 10.7444 0.160112L10.6871 0.149508C9.58147 -0.049836 8.41853 -0.049836 7.3129 0.149508L7.2556 0.160112C7.11978 0.184705 6.99466 0.250014 6.89686 0.347363C6.79907 0.444712 6.73323 0.569493 6.70809 0.705127L6.37279 2.51619C5.61071 2.80466 4.90102 3.21586 4.27187 3.73346L2.53384 3.11634C2.40389 3.07041 2.26304 3.06509 2.12999 3.10107C1.99694 3.13706 1.878 3.21265 1.78897 3.31781L1.75077 3.36234C1.01597 4.22784 0.443056 5.21844 0.0594242 6.28676L0.0403249 6.3419C-0.0551714 6.60699 0.0233479 6.90388 0.237684 7.08838L1.64466 8.28869C1.57888 8.68738 1.54704 9.09455 1.54704 9.4996C1.54704 9.90677 1.57888 10.3139 1.64466 10.7105L0.237684 11.9108C0.132841 12.0005 0.0578039 12.12 0.0225499 12.2533C-0.0127041 12.3867 -0.00650436 12.5276 0.0403249 12.6573L0.0594242 12.7124C0.443532 13.7813 1.01227 14.7674 1.75077 15.6369L1.78897 15.6814C1.87821 15.7863 1.99716 15.8616 2.13013 15.8976C2.2631 15.9336 2.40385 15.9284 2.53384 15.8829L4.27187 15.2657C4.90427 15.7853 5.61094 16.1967 6.37279 16.483L6.70809 18.2941C6.73323 18.4297 6.79907 18.5545 6.89686 18.6518C6.99466 18.7492 7.11978 18.8145 7.2556 18.8391L7.3129 18.8497C8.42869 19.0501 9.57131 19.0501 10.6871 18.8497L10.7444 18.8391C10.8802 18.8145 11.0053 18.7492 11.1031 18.6518C11.2009 18.5545 11.2668 18.4297 11.2919 18.2941L11.6251 16.4915C12.393 16.2038 13.1079 15.7911 13.7409 15.27L15.4662 15.8829C15.5961 15.9288 15.737 15.9341 15.87 15.8981C16.0031 15.8621 16.122 15.7865 16.211 15.6814L16.2492 15.6369C16.9877 14.7653 17.5565 13.7813 17.9406 12.7124L17.9597 12.6573C18.0552 12.3965 17.9767 12.0996 17.7623 11.9151ZM14.8656 8.52621C14.9186 8.84643 14.9462 9.17513 14.9462 9.50384C14.9462 9.83255 14.9186 10.1613 14.8656 10.4815L14.7255 11.3319L16.3108 12.687C16.0705 13.2402 15.7671 13.764 15.4067 14.2478L13.4374 13.5501L12.771 14.0972C12.2639 14.5129 11.6994 14.8395 11.0882 15.0685L10.2797 15.3718L9.89979 17.4288C9.30043 17.4967 8.69532 17.4967 8.09597 17.4288L7.71611 15.3675L6.91394 15.06C6.30913 14.831 5.74676 14.5044 5.24381 14.0909L4.57746 13.5416L2.59538 14.2457C2.23462 13.7601 1.93327 13.2362 1.69135 12.6849L3.29357 11.317L3.15563 10.4688C3.1047 10.1528 3.07711 9.82618 3.07711 9.50384C3.07711 9.17938 3.10257 8.85491 3.15563 8.53893L3.29357 7.69066L1.69135 6.32282C1.93115 5.76932 2.23462 5.24763 2.59538 4.76199L4.57746 5.46606L5.24381 4.9168C5.74676 4.50327 6.30913 4.17668 6.91394 3.94765L7.71823 3.64439L8.09809 1.58309C8.69441 1.51523 9.30347 1.51523 9.90191 1.58309L10.2818 3.64015L11.0903 3.94341C11.6994 4.17244 12.266 4.49903 12.7732 4.91468L13.4395 5.46182L15.4089 4.76411C15.7696 5.24975 16.071 5.77356 16.3129 6.32494L14.7277 7.68005L14.8656 8.52621ZM9.00212 5.55937C6.9394 5.55937 5.26716 7.23047 5.26716 9.29177C5.26716 11.3531 6.9394 13.0242 9.00212 13.0242C11.0648 13.0242 12.7371 11.3531 12.7371 9.29177C12.7371 7.23047 11.0648 5.55937 9.00212 5.55937ZM10.6829 10.9714C10.4624 11.1923 10.2004 11.3675 9.91199 11.4868C9.62354 11.6062 9.31433 11.6674 9.00212 11.6669C8.3676 11.6669 7.77128 11.4188 7.32139 10.9714C7.10031 10.7511 6.925 10.4893 6.80554 10.201C6.68609 9.91277 6.62484 9.60376 6.62533 9.29177C6.62533 8.65769 6.87362 8.06178 7.32139 7.61219C7.77128 7.16261 8.3676 6.91661 9.00212 6.91661C9.63664 6.91661 10.233 7.16261 10.6829 7.61219C10.9039 7.83248 11.0792 8.09428 11.1987 8.38253C11.3182 8.67078 11.3794 8.97978 11.3789 9.29177C11.3789 9.92586 11.1306 10.5218 10.6829 10.9714Z" fill="#8D99AE"/>
</svg>
